<svg width="683" height="683" viewBox="0 0 683 683" fill="none" xmlns="http://www.w3.org/2000/svg">
<g clip-path="url(#clip0_294_395)">
<path d="M561 329C561 356.614 538.614 379 511 379C483.386 379 461 369 461 329C461 301.386 483.386 279 511 279C538.614 279 561 301.386 561 329Z" fill="#423D33" fill-opacity="0.1"/>
<path d="M371.75 234.883L517.458 516.52C518.154 517.865 517.16 519.466 515.645 519.438L226.026 514.12C223.039 514.065 221.164 510.876 222.569 508.24L368.209 234.862C368.967 233.439 371.01 233.452 371.75 234.883Z" fill="#FF8E8E" fill-opacity="0.2"/>
<path d="M149.993 463.655L244.073 292.015C245.137 290.075 247.573 289.367 249.511 290.435L291.701 313.682C293.554 314.703 294.292 316.991 293.384 318.902L219.542 474.358C219.211 475.056 218.508 475.5 217.736 475.5H157.008C150.928 475.5 147.07 468.986 149.993 463.655Z" fill="#D68A59" fill-opacity="0.2"/>
<path d="M277.91 63.1859C258.283 66.1167 197.566 79.3722 137.003 135.67C70.4505 197.536 57.1744 354.224 57.1744 354.224L68.0373 360.098C68.0373 360.098 110.946 227.366 161.839 166.267C194.319 127.274 262.188 93.6898 286.772 82.3496C291.435 80.1985 293.047 74.2921 290.041 70.1284L288.35 67.7858C285.931 64.4361 281.997 62.5758 277.91 63.1859Z" fill="#E3B646" fill-opacity="0.2"/>
<path d="M171.774 590.519C186.932 605.172 238.874 649.002 329.847 662.596C429.145 677.435 578.43 580.806 578.43 580.806L576.549 567.365C576.549 567.365 429.248 621.855 340.946 620.021C283.756 618.834 207.575 582.304 182.303 569.357C177.825 567.062 172.328 569.315 170.791 574.106L169.145 579.234C167.858 583.244 168.746 587.592 171.774 590.519Z" fill="#423D33" fill-opacity="0.1"/>
<path d="M640.749 326.869C641.006 305.788 637.239 237.929 584.696 162.43C527.344 80.0223 485.03 95.4285 422.501 55.9989C401.001 42.4412 397.315 20.8585 386 17.9988C340.5 6.49884 427.388 63.925 534 151.5C579.391 188.786 609.964 299.673 618.378 333.275C619.627 338.262 625.151 340.919 629.79 338.703L634.346 336.526C638.146 334.71 640.698 331.08 640.749 326.869Z" fill="#7B9361" fill-opacity="0.2"/>
<path d="M299.967 109.65C321.335 91.4639 374.823 95.0644 423.742 120.683C454.467 121.805 479.949 120.966 473.026 112.342C469.927 108.574 428.658 85.4738 411.54 78.6444C375.315 64.0552 332.342 69.2063 304.509 79.9934C284.953 87.5331 264.996 98.9916 267.75 104.394C270.307 109.41 293.067 115.598 299.967 109.65Z" fill="#A7D8F0" fill-opacity="0.3"/>
<path d="M294.553 75.1287C279.399 77.8591 256.053 85.3679 243.766 91.2384C218.509 103.389 207.86 109.396 209.089 110.625C210.045 111.58 217.417 108.577 230.933 101.751C255.234 89.6002 273.528 83.047 294.553 78.8148C316.26 74.4461 353.121 74.4461 371.962 78.9513C401.587 85.914 428.619 97.655 457.152 115.949C465.344 121.137 472.579 125.096 473.262 124.687C475.31 123.458 472.579 121.41 455.241 110.488C425.615 91.9211 393.942 79.0879 366.637 74.4461C348.48 71.306 312.983 71.7156 294.553 75.1287Z" fill="#423D33"/>
<path d="M203.868 79.1154C184.345 90.7199 170.283 101.642 152.945 118.98C118.404 153.384 88.0962 201.44 82.6352 230.11C81.27 237.346 81.9526 239.667 86.1849 241.169L89.1884 242.397L86.4579 251.681C84.2735 258.507 83.5909 264.787 83.5909 275.3C83.4544 299.464 85.6388 336.735 87.1405 336.735C88.0962 336.735 88.2327 324.721 87.5501 300.829C86.5944 261.92 87.277 256.186 94.2397 241.851C96.1511 238.029 100.11 227.789 103.114 219.052C110.076 198.71 117.722 182.6 127.142 168.538C135.197 156.388 135.47 150.381 127.415 161.576C116.083 177.139 107.892 193.932 99.0181 219.325C93.1475 236.117 92.3284 237.756 89.3249 237.756C84.6831 237.756 84.5466 233.796 88.9153 221.1C96.2876 199.529 108.984 177.412 128.371 152.428C151.989 122.12 176.017 100.14 204.687 82.938C218.066 74.8831 221.753 71.7431 217.52 72.0162C216.565 72.0162 210.421 75.2927 203.868 79.1154Z" fill="#423D33"/>
<path d="M501.658 106.666C501.658 107.621 503.706 109.806 506.3 111.444C513.126 115.813 537.154 135.472 547.667 145.165C563.913 160.046 576.2 173.972 592.31 195.542C594.767 198.956 596.679 200.321 597.498 199.502C599.545 197.454 573.06 164.552 556.404 148.442C541.523 134.107 507.256 106.12 503.706 105.3C502.614 105.027 501.658 105.573 501.658 106.666Z" fill="#423D33"/>
<path d="M488.325 136.546C488.604 137.501 494.031 142.821 500.571 148.414C524.506 168.604 526.315 170.787 533.133 186.475C555.12 237.222 564.582 260.822 564.582 264.778C564.582 265.46 562.077 262.868 559.155 259.185C554.285 253.183 534.386 238.45 531.046 238.45C527.567 238.45 530.489 242.269 536.473 245.543C546.909 251.273 554.702 258.639 561.938 269.416C571.679 284.149 579.332 300.519 583.507 315.662C586.708 327.53 587.264 332.032 587.403 351.676C587.543 377.186 585.594 389.327 577.941 411.563C568.757 438.164 558.738 453.715 533.272 481.954C491.665 527.926 467.174 545.933 429.185 558.347C400.241 567.76 371.436 571.443 323.984 571.716C294.483 571.989 291.979 571.853 282.794 568.851C257.607 560.53 236.734 548.389 220.453 532.428C182.882 495.595 154.355 444.985 146.284 401.059C143.501 385.234 143.64 346.765 146.562 327.393C148.928 311.705 155.051 290.97 160.617 280.057C165.766 270.098 175.924 254.82 180.794 249.772C185.943 244.588 184.83 240.632 179.542 245.543C173.697 250.863 161.034 270.644 155.329 283.467C137.239 323.437 134.873 384.552 149.763 428.888C158.808 456.035 179.403 491.776 200.276 516.058C219.757 538.976 236.873 552.891 256.494 561.894C262.339 564.622 263.591 565.714 263.452 568.442C263.174 574.854 281.959 583.994 306.033 589.177C324.123 593.134 379.228 594.361 399.684 591.224C433.638 586.176 474.688 570.898 502.658 552.891C527.984 536.657 561.66 502.553 581.976 472.405C607.72 434.208 616.765 399.149 613.286 351.403C609.39 296.29 600.762 270.78 570.566 225.49C562.077 212.667 551.78 197.115 547.605 190.84C539.813 178.835 526.871 165.739 504.05 146.505C490.274 134.909 487.351 133.136 488.325 136.546ZM541.9 188.657C544.126 191.659 549.414 199.571 553.45 206.392C557.624 213.076 565.417 225.081 570.983 232.993C597.701 271.326 607.72 304.066 609.946 359.861C611.338 395.329 606.468 419.748 592.135 447.85C575.158 480.999 539.395 522.06 506.972 545.797C484.707 561.894 439.761 580.174 407.059 586.449C378.393 591.906 330.803 591.087 303.111 584.812C290.03 581.811 267.487 572.125 268.74 570.079C269.296 569.261 272.636 569.806 277.367 571.307C290.17 575.672 303.111 576.491 337.9 575.263C390.5 573.49 422.923 567.214 452.563 553.027C480.533 539.522 500.154 523.561 532.577 487.956C556.789 461.355 563.19 452.761 572.096 435.163C584.759 410.471 591.021 383.461 591.021 354.404C591.021 325.893 586.847 306.794 575.714 285.65C572.653 279.647 570.148 273.645 570.148 272.281C570.148 268.598 562.634 246.225 556.372 231.629C553.45 224.535 547.466 210.348 543.152 200.253C538.838 190.158 535.36 181.564 535.36 181.291C535.36 180.472 536.612 181.973 541.9 188.657Z" fill="#423D33"/>
<path d="M328.956 170.149C303.562 176.429 274.756 191.856 256.052 209.331C247.588 217.113 231.342 237.592 232.161 239.093C232.843 240.049 235.301 238.001 238.714 233.905C263.288 204.28 289.227 186.122 320.491 176.702C328.273 174.381 333.734 171.924 333.734 170.968C333.734 169.057 333.461 169.057 328.956 170.149Z" fill="#423D33"/>
<path d="M140.281 202.915C121.85 231.038 92.0881 305.171 87.9924 332.475C87.1733 338.482 84.9889 347.902 83.0776 353.5C75.5688 376.163 74.067 400.464 79.1184 419.714C81.7123 430.09 91.6785 450.432 98.3682 459.169C101.099 462.855 106.833 472.139 110.928 479.648C121.031 498.488 130.178 511.321 143.967 526.475C150.384 533.574 157.892 542.175 160.759 545.725C176.596 565.248 186.426 572.347 214.823 585.044C250.182 600.744 278.579 609.754 309.843 615.215C330.868 618.901 384.658 618.492 406.775 614.533C450.872 606.751 485.958 591.87 517.495 567.978C526.915 560.742 538.793 552.415 543.844 549.411C553.81 543.404 591.218 507.908 596.952 499.034C602.276 490.569 612.925 468.589 618.113 455.073C630.263 423.536 635.042 396.778 636.68 351.316C637.909 316.502 637.09 298.891 633.54 283.6C631.083 273.088 625.349 256.841 620.843 247.694C614.017 233.905 596.542 206.055 594.904 206.055C593.948 206.055 593.129 206.464 593.129 206.874C593.129 207.283 597.361 214.519 602.549 223.12C631.629 270.494 636.68 293.976 632.994 362.374C630.537 407.29 622.209 440.192 603.914 477.736L594.221 497.532L573.47 518.42C559.135 532.892 549.851 541.22 543.025 545.315C537.564 548.592 528.417 555.145 522.683 559.65C497.153 579.992 478.313 590.232 447.595 600.471C403.362 615.215 356.807 618.628 306.43 610.71C280.9 606.751 246.906 595.829 227.246 585.317C213.184 577.944 189.839 562.108 172.773 548.592C154.616 534.257 127.721 502.447 116.662 482.378C112.567 474.869 105.194 462.719 100.143 455.21C85.3985 433.23 79.9375 416.847 79.801 394.866C79.801 384.081 83.2141 362.237 85.2619 359.916C85.808 359.37 86.6272 363.466 87.0367 369.064C88.1289 381.351 95.0916 403.741 105.194 427.223C112.84 444.971 139.735 495.484 141.646 495.484C144.104 495.484 141.919 490.023 132.909 474.187C114.341 441.284 97.9586 403.604 92.7707 381.76C89.3576 367.152 88.8115 348.995 91.4055 333.841C96.8664 301.894 128.813 224.076 146.015 200.867C152.841 191.447 152.978 191.037 150.111 191.037C148.882 191.037 144.513 196.361 140.281 202.915ZM197.894 572.21C198.713 573.03 196.802 572.347 193.798 570.845C187.655 567.842 174.002 557.056 174.002 555.282C174.002 554.326 194.617 568.934 197.894 572.21Z" fill="#423D33"/>
<path d="M640.503 373.842C642.551 398.689 632.994 441.285 618.796 470.364C613.608 481.013 612.789 484.699 616.202 482.651C617.704 481.695 624.53 467.634 628.899 456.575C638.182 433.23 642.278 412.888 643.234 385.856C643.916 366.879 643.78 364.422 641.868 364.422C640.094 364.422 639.821 365.787 640.503 373.842Z" fill="#423D33"/>
<path d="M642.278 481.013C632.722 483.743 626.715 486.61 616.748 493.3C604.598 501.218 599.683 505.86 586.85 521.424C548.76 567.705 508.485 593.508 448.142 610.301C437.357 613.304 432.032 615.352 432.032 616.581C432.032 617.809 432.988 618.219 434.49 617.809C435.718 617.536 441.725 615.898 447.732 614.26C510.124 597.058 550.535 571.391 589.99 523.335C611.288 497.532 630.401 485.382 653.064 483.47C659.344 482.924 663.439 481.832 663.849 480.74C664.532 478.555 650.743 478.692 642.278 481.013Z" fill="#423D33"/>
<path d="M394.143 41.5921C400.181 49.4872 405.047 54.0288 414.919 60.8565C426.734 69.2677 432.852 72.1435 452.032 78.3928C509.04 96.9093 547.789 124.951 585.494 174.967C592.236 183.906 596.09 188.112 597.233 187.662C598.377 187.213 598.408 186.173 597.478 184.926C596.774 183.882 593.051 178.891 589.329 173.9C550.493 122.128 511.821 93.9089 452.662 74.7712C420.855 64.3904 402.554 51.0478 392.484 30.6554C389.678 25.0105 387.163 21.5984 385.997 21.6168C383.714 21.7807 388.886 34.5636 394.143 41.5921Z" fill="#423D33"/>
<path d="M538.257 391.205C558.156 381.903 570.848 366.082 575.093 345.207C577.661 332.141 576.378 316.071 571.812 304.994C566.365 291.375 555.231 274.2 551.354 273.277C548.708 272.598 548.883 274.495 551.871 277.632C553.566 279.445 557.236 284.451 560.234 288.925C567.299 299.75 574.003 321.526 573.476 331.917C572.128 356.93 560.923 375.6 541.442 385.876C517.847 398.344 490.75 399.42 469.337 388.822C444.808 376.831 424.178 342.362 427.841 319.954C430.455 304.436 438.599 290.206 451.027 279.582C456.995 274.525 457.79 274.168 477.316 268.388C499.8 261.732 504.122 261.549 516.772 266.455C534.222 273.23 556.171 300.851 560.048 320.905C563.447 338.907 553.95 356.828 533.93 370.066C526.494 374.948 503.939 382.234 492.962 383.412C487.963 383.917 483.755 384.919 483.533 385.472C482.965 387.468 487.978 387.446 499.5 385.498C539.707 378.713 567.157 352.309 563.713 323.719C562.697 314.637 556.44 300.893 548.381 289.754C533.099 268.567 513.929 258.158 494.389 260.409C485.049 261.468 467.18 266.758 459.209 270.701C444.858 277.874 430.382 295.929 426.197 311.79C424.13 319.591 423.23 317.42 423.852 305.173C424.596 288.99 431.421 268.57 439.693 258.689C443.21 254.48 441.647 253.115 437.577 256.756C430.639 263.319 422.734 283.571 421.048 299.179C419.295 314.564 420.4 322.644 425.901 339.05C434.542 364.761 447.554 380.892 467.974 391.175C480.852 397.72 491.877 400.183 503.967 399.285C514.419 398.505 530.897 394.602 538.257 391.205Z" fill="#423D33"/>
<path d="M543.121 323.261C542.527 310.87 541.678 307.291 538.144 301.61C534.824 296.259 530.876 293.168 529.245 294.481C528.837 294.809 529.147 295.646 529.993 296.47C537.72 303.707 539.852 309.261 540.114 323.173C540.4 339.154 536.694 348.988 526.893 358.044C522.926 361.737 521.324 364.53 523.056 364.807C524.529 365.043 533.504 356.15 536.688 351.25C539.402 347.061 540.086 345.006 541.579 336.785C542.51 331.524 543.216 325.44 543.121 323.261Z" fill="#423D33"/>
<path d="M446.325 619.512C440.089 622.698 418.612 630.134 408.754 632.551C369.268 642.116 318.308 641.041 275.38 629.577C227.626 616.911 194.019 596.756 165.792 563.768C158.036 554.634 148.376 541.496 143.203 532.745C141.659 529.998 140.301 528.989 139.187 529.558C134.399 532.004 164.919 571.679 183.999 587.862C229.32 625.999 291.061 644.878 361.881 642.223C391.112 641.171 416.678 635.968 439.687 626.309C448.023 622.836 449.083 622.163 448.287 620.605C447.81 619.67 446.993 619.171 446.325 619.512Z" fill="#423D33"/>
<path d="M344.859 174.07C343.616 175.73 327.874 204.586 313.375 231.988C307.576 243.095 301.155 255.031 299.291 258.457C297.426 261.882 292.352 271.431 288.002 279.735C276.714 301.117 260.04 331.945 254.965 340.456L250.719 347.722L229.696 348.034C218.2 348.137 208.88 347.93 209.087 347.515C216.543 331.218 243.366 277.348 246.473 272.366C247.198 271.224 248.027 270.393 248.545 270.393C249.787 270.393 252.169 276.725 254.033 284.717C256.83 296.965 257.658 299.457 258.797 299.457C261.283 299.457 255.173 273.507 251.651 269.252L249.062 266.242H143.531C50.4276 266.242 38 266.449 38 267.798C38 269.148 50.1169 269.355 141.046 269.355H244.091L237.256 282.019C233.528 289.077 225.553 304.75 219.65 316.791C213.644 328.935 208.362 338.899 207.948 338.899C206.808 338.899 198.316 327.482 187.649 311.601C180.503 300.91 176.775 297.069 176.775 300.598C176.775 302.259 199.248 335.267 203.287 339.522C205.255 341.598 206.808 343.57 206.808 343.778C206.808 344.193 189.099 374.606 167.972 410.519C144.049 451.208 129.032 476.95 127.582 480.271C123.958 487.848 118.987 487.329 197.177 487.329C235.806 487.329 267.911 486.914 268.532 486.499C269.982 485.565 273.71 478.091 284.481 454.633C302.915 414.256 321.867 372.737 330.049 354.677L338.645 335.786H373.96C393.43 335.786 410.311 336.097 411.553 336.408C413.003 336.824 414.764 339.315 417.146 344.401C435.062 384.155 446.144 410.519 445.522 411.661C445.108 412.18 436.719 412.595 426.467 412.595H408.032L391.98 439.271L375.928 466.051L367.228 468.957C348.794 475.081 327.874 481.413 327.46 480.894C326.217 479.648 369.403 389.76 371.164 389.76C371.682 389.76 375.099 395.884 378.724 403.357C385.352 416.747 387.423 419.757 388.769 418.408C389.598 417.578 376.031 389.137 373.442 386.231C372.406 385.193 370.957 384.57 370.024 384.882C367.953 385.712 336.677 449.547 318.968 489.509C314.1 500.304 305.712 499.266 397.676 499.577C470.585 499.785 478.248 499.681 478.87 498.124C479.595 496.048 468.306 459.096 461.057 440.102C460.539 438.752 460.539 438.337 461.264 439.064C461.885 439.583 465.821 448.509 470.17 458.785C474.416 469.061 482.702 488.679 488.501 502.276C494.197 515.873 498.754 527.706 498.443 528.433C498.029 529.575 491.09 529.886 463.542 530.094C437.134 530.301 429.056 530.716 428.641 531.651C428.331 532.689 435.994 533 464.371 533C501.032 533 503 532.792 503 529.16C503 528.433 496.683 512.76 488.812 494.284C481.045 475.912 471.827 453.699 468.203 444.876C461.885 429.099 461.782 428.892 463.232 424.74C466.235 416.332 464.164 412.699 455.879 412.076C450.286 411.557 450.183 411.557 447.801 405.849C443.451 395.261 421.599 345.958 418.596 339.834L415.178 332.879L418.182 332.256C419.839 331.945 421.185 331.218 421.185 330.803C421.185 330.284 418.078 323.33 414.35 315.441C407.514 300.91 390.634 263.439 388.045 257.107C387.32 255.343 386.18 253.786 385.352 253.786C384.627 253.786 383.695 252.125 383.384 249.842C382.97 247.766 382.452 244.756 382.141 243.095C381.831 240.915 361.843 198.877 350.451 175.938C348.898 172.928 346.412 172.098 344.859 174.07ZM349.208 181.335C349.933 183.204 356.872 197.735 364.639 213.72C372.406 229.601 378.827 243.925 378.931 245.378C379.035 247.247 377.377 250.776 374.063 255.966C367.228 266.449 364.95 269.044 339.059 298.834C326.631 313.054 312.133 330.181 306.954 336.927L297.426 349.279H292.559H287.692L288.727 346.165C289.97 342.844 291.213 342.221 292.145 344.297C292.766 345.75 308.197 330.181 317.104 319.178C320.107 315.441 327.563 304.231 333.674 294.267C339.784 284.302 349.622 268.525 355.526 259.391C361.429 250.153 366.296 241.849 366.296 240.915C366.296 239.981 362.982 232.611 359.047 224.619C353.765 214.135 351.28 210.191 350.14 210.399C349.105 210.606 344.444 219.221 338.334 231.988C332.845 243.718 323.732 262.816 318.139 274.545C293.284 326.859 287.795 338.692 286.035 343.259L284.17 348.241H276.61H268.947L276.3 333.398C287.692 310.459 307.369 271.224 309.336 267.798C310.268 266.034 314.204 258.561 318.139 251.191C321.971 243.718 328.496 231.366 332.638 223.685C345.584 199.5 347.862 194.414 346.723 193.272C345.998 192.546 344.859 193.687 342.994 196.801C332.638 214.239 268.532 339.107 266.461 345.854C265.84 347.93 265.011 348.241 260.558 348.241C257.762 348.241 255.483 348.034 255.483 347.722C255.483 347.411 259.626 339.834 264.597 330.803C269.671 321.877 276.092 310.044 278.992 304.646C326.735 214.343 346.308 178.014 347.241 178.014C347.551 178.014 348.38 179.571 349.208 181.335ZM356.043 225.968C358.943 231.885 361.739 237.697 362.257 238.943C362.982 240.811 361.739 243.302 355.733 252.436C351.694 258.561 341.855 274.13 333.881 287.001C325.906 299.872 317.414 312.846 315.032 315.753C308.508 323.849 292.766 340.353 292.248 339.73C291.731 339.211 301.776 317.102 320.418 278.178C327.46 263.335 337.091 243.095 341.752 233.234C346.308 223.477 350.244 215.381 350.451 215.381C350.658 215.381 353.144 220.156 356.043 225.968ZM383.798 258.561C384.316 258.249 385.455 259.91 386.388 262.401C387.32 264.788 394.465 280.773 402.336 297.9L416.732 329.039L413.21 329.35C410.518 329.662 409.793 330.077 410.207 331.218C410.725 332.672 406.582 332.775 373.96 332.568C339.888 332.36 336.884 332.464 335.745 334.125C335.02 335.059 331.292 342.948 327.46 351.667C323.628 360.385 312.34 385.193 302.294 406.887C292.352 428.58 283.549 447.886 282.72 449.755C277.853 461.38 267.497 482.762 266.461 483.385C264.908 484.423 130.171 484.423 130.171 483.385C130.171 482.451 137.317 469.788 150.573 447.367C156.269 437.61 169.836 414.568 180.71 395.988C191.585 377.408 201.734 360.178 203.287 357.583L205.98 352.912L208.776 359.14C211.987 366.198 220.168 380.833 224.621 387.373C227.314 391.421 227.418 392.044 226.175 394.12C221.618 401.489 205.773 433.666 206.291 434.497C207.844 436.884 209.812 434.393 215.611 422.871C219.029 416.021 223.689 407.094 225.864 402.942L229.903 395.573L232.389 398.687C238.188 405.641 238.085 405.122 235.081 414.464C233.528 419.135 232.596 423.183 233.01 423.598C234.667 425.259 236.635 422.664 238.292 416.332C239.327 412.595 240.57 409.481 240.984 409.481C241.399 409.481 243.677 412.076 246.059 415.19C250.305 420.899 253.101 422.145 255.276 419.55C256.415 418.2 274.125 381.041 281.892 363.499L286.863 352.393L292.248 353.016C298.669 353.846 298.048 354.365 309.958 338.899C314.618 332.879 327.46 317.725 338.438 305.165C364.536 275.376 371.267 267.176 376.238 259.08L380.174 252.436L381.52 255.758C382.349 257.626 383.281 258.872 383.798 258.561ZM245.852 356.753C244.506 359.244 240.156 367.132 236.324 374.398C232.596 381.768 229.282 387.684 229.075 387.684C227.935 387.684 209.915 355.092 209.915 353.016C209.915 352.704 218.615 352.393 229.178 352.393H248.441L245.852 356.753ZM262.733 352.808C262.733 352.912 258.176 362.669 252.584 374.294C246.991 385.92 241.813 397.026 241.088 398.79L239.742 402.216L235.599 397.026L231.457 391.836L239.431 376.474C252.791 351.044 251.755 352.393 257.658 352.393C260.454 352.393 262.733 352.601 262.733 352.808ZM282.41 352.704C282.41 353.327 274.435 371.284 269.982 380.937C267.6 386.023 263.043 395.884 259.937 402.735C256.83 409.585 253.826 415.606 253.308 416.228C252.169 417.266 246.577 411.454 243.988 406.679C242.434 403.876 244.92 397.649 258.176 370.661L267.186 352.393H274.85C278.992 352.393 282.41 352.497 282.41 352.704ZM450.183 422.145C451.529 425.778 455.257 435.431 458.468 443.735C463.749 457.228 469.445 474.251 473.07 487.329C473.795 489.924 474.727 492.415 475.245 492.934C475.659 493.557 476.073 494.387 476.073 494.803C476.073 495.218 440.965 495.633 397.987 495.633H320.003L322.385 490.755C325.182 485.357 321.246 486.914 360.6 474.977C372.406 471.345 375.72 469.891 378.206 467.193C379.967 465.428 387.837 453.076 395.812 439.79L410.207 415.709H429.056H447.904L450.183 422.145ZM460.332 416.955C461.471 418.408 460.85 423.702 459.4 424.636C458.882 424.947 458.468 427.127 458.364 429.514C458.364 434.393 458.364 434.497 453.911 422.664L451.322 415.709H455.257C457.432 415.709 459.71 416.332 460.332 416.955Z" fill="#423D33"/>
<path d="M380.428 279.609C378.17 281.885 364.311 302.884 357.022 315.194C354.353 319.642 352.813 323.469 353.018 325.021L353.326 327.607L380.839 328.538C395.93 329.055 408.557 329.158 408.967 328.745C409.994 327.71 386.485 279.506 384.432 278.368C383.097 277.644 382.071 277.954 380.428 279.609ZM390.899 296.781C394.903 305.263 399.523 314.78 401.165 318.09C402.808 321.4 404.142 324.504 404.142 325.124C404.142 326.055 357.125 325.331 355.995 324.4C355.174 323.676 382.071 281.575 383.303 281.575C383.508 281.575 386.998 288.402 390.899 296.781Z" fill="#423D33"/>
<path d="M114.022 241.4C114.42 242.911 119.065 243 192.71 243C261.446 243 271 242.822 271 241.667C271 240.512 261.181 240.334 192.312 240.067C117.738 239.89 113.624 239.978 114.022 241.4Z" fill="#423D33"/>
<path d="M18.4107 494.692C15.8777 496.999 22.0103 497.153 126.397 496.922C225.317 496.691 231.583 496.614 231.983 495.307C232.383 494.077 226.65 494 125.73 494C65.2046 494 18.8107 494.308 18.4107 494.692Z" fill="#423D33"/>
</g>
<defs>
<clipPath id="clip0_294_395">
<rect width="682.667" height="682.667" fill="white"/>
</clipPath>
</defs>
</svg>
