<svg width="549" height="549" viewBox="0 0 549 549" fill="none" xmlns="http://www.w3.org/2000/svg">
<g clip-path="url(#clip0_173_360)">
<ellipse cx="270.749" cy="277.107" rx="177.115" ry="183.511" transform="rotate(21.8764 270.749 277.107)" fill="#E3B646"/>
<path d="M106.449 369.716C97.7625 351.344 87.4809 321.313 85.1779 303.378C80.8895 269.982 88.3939 216.466 106.333 183.34C164.91 75.1729 269.071 65.0496 356.975 110.492C418.285 142.187 449.348 179.684 462.366 255.632C474.89 328.693 441.493 385.335 388.792 425.463C369.955 439.807 343.81 454.489 323.133 459.996C244.235 481.011 142.469 445.897 106.449 369.716ZM325.377 437.588C421.415 398.677 478.513 305.771 427.762 201.911C415.465 176.745 389.904 148.507 366.211 132.147C258.082 57.4849 127.357 121.656 103.884 240.316C94.0895 289.83 102.559 339.023 130.322 375.549C176.428 436.205 267.753 460.935 325.377 437.588Z" fill="#423D33"/>
</g>
<defs>
<clipPath id="clip0_173_360">
<rect width="400.974" height="386.044" fill="white" transform="translate(81.9851 474.75) rotate(-90)"/>
</clipPath>
</defs>
</svg>
