<svg width="1039" height="283" viewBox="0 0 1039 283" fill="none" xmlns="http://www.w3.org/2000/svg">
<path d="M36.5591 136.638C34.8781 193.038 79.237 240.122 135.637 241.803C163.523 242.635 190.356 234.488 210.012 217.658C229.764 200.746 241.942 175.333 240.803 142.444C239.677 109.944 229.152 84.0688 211.563 66.0879C193.97 48.1034 169.674 38.3922 141.725 37.5592C109.092 36.5865 83.1101 47.1658 65.0883 65.317C47.1111 83.4234 37.3911 108.721 36.5591 136.638Z" stroke="#E3B646" stroke-width="8.71361"/>
<path d="M92.1115 102.618C59.345 127.298 52.7894 173.867 77.4692 206.634C89.6197 222.766 106.411 234.299 124.938 237.812C143.591 241.348 163.591 236.667 181.703 221.1C199.521 205.787 209.445 188.085 211.661 169.872C213.877 151.653 208.315 133.443 196.127 117.261C181.904 98.377 164.093 88.404 145.532 86.4201C127.034 84.443 108.268 90.4495 92.1115 102.618Z" stroke="#E3B646" stroke-width="8.71361"/>
<path d="M111.572 146.413C88.4586 161.194 81.7043 191.913 96.4854 215.026C103.706 226.318 114.279 234.879 126.509 238.183C138.861 241.522 152.496 239.378 165.33 229.954C177.85 220.76 185.402 209.502 187.826 197.397C190.251 185.288 187.439 172.844 180.185 161.499C171.727 148.275 160.365 140.666 148.003 138.378C135.704 136.101 122.888 139.176 111.572 146.413Z" stroke="#E3B646" stroke-width="8.71361"/>
<path d="M929.778 261.558C923.987 261.558 919.187 260.289 915.379 257.75C911.65 255.291 909.786 251.998 909.786 247.873C909.786 246.207 910.143 244.382 910.857 242.399C911.65 240.495 913.118 238.353 915.26 235.973C917.481 233.593 920.734 231.015 925.018 228.238L926.208 229.547C925.415 230.34 924.661 231.253 923.947 232.284C923.233 233.395 922.638 234.704 922.162 236.211C921.765 237.798 921.567 239.781 921.567 242.161C921.567 247.318 922.955 251.205 925.732 253.823C928.509 256.441 931.96 257.75 936.085 257.75C938.862 257.75 941.281 257.195 943.344 256.084C945.407 255.053 947.033 253.506 948.223 251.443C949.413 249.46 950.008 247.119 950.008 244.422C950.008 242.042 949.453 240.098 948.342 238.591C947.311 237.163 945.883 236.013 944.058 235.14C942.313 234.347 940.329 233.712 938.108 233.236C935.887 232.76 933.626 232.363 931.325 232.046C928.548 231.57 925.851 231.015 923.233 230.38C920.694 229.825 918.632 228.873 917.045 227.524C915.458 226.175 914.665 224.192 914.665 221.574C914.665 219.511 915.577 217.25 917.402 214.791C919.306 212.332 922.479 210.11 926.922 208.127L927.993 208.841C926.486 209.634 925.375 210.507 924.661 211.459C924.026 212.411 923.709 213.561 923.709 214.91C923.709 216.735 924.383 218.163 925.732 219.194C927.16 220.146 929.024 220.86 931.325 221.336C933.626 221.812 936.045 222.288 938.584 222.764C941.123 223.161 943.622 223.637 946.081 224.192C948.62 224.747 950.92 225.501 952.983 226.453C955.125 227.405 956.831 228.754 958.1 230.499C959.369 232.244 960.004 234.505 960.004 237.282C960.004 240.535 959.211 243.589 957.624 246.445C956.037 249.38 953.856 251.959 951.079 254.18C948.302 256.481 945.089 258.266 941.44 259.535C937.791 260.884 933.903 261.558 929.778 261.558ZM932.158 210.745C928.112 210.745 924.661 210.031 921.805 208.603C919.028 207.175 916.886 205.35 915.379 203.129C913.951 200.828 913.237 198.488 913.237 196.108C913.237 192.776 914.308 189.999 916.45 187.778C918.671 185.557 921.369 183.93 924.542 182.899C927.715 181.788 930.77 181.233 933.705 181.233C937.434 181.233 940.726 181.907 943.582 183.256C946.438 184.525 948.659 186.271 950.246 188.492C951.912 190.634 952.745 193.093 952.745 195.87C952.745 198.964 951.674 201.622 949.532 203.843C947.469 206.064 944.851 207.77 941.678 208.96C938.584 210.15 935.411 210.745 932.158 210.745ZM935.371 208.603C936.72 208.603 937.989 207.889 939.179 206.461C940.448 204.954 941.083 202.375 941.083 198.726C941.083 194.363 939.933 190.753 937.632 187.897C935.411 184.962 932.793 183.494 929.778 183.494C928.033 183.494 926.763 184.327 925.97 185.993C925.177 187.58 924.78 189.88 924.78 192.895C924.78 195.513 925.216 198.012 926.089 200.392C926.962 202.772 928.191 204.755 929.778 206.342C931.365 207.849 933.229 208.603 935.371 208.603ZM944.177 190.753L944.415 186.945C946.954 184.962 949.413 183.454 951.793 182.423C954.252 181.392 956.95 180.876 959.885 180.876C960.282 180.876 960.52 181.193 960.599 181.828C960.758 182.463 960.837 183.256 960.837 184.208C960.837 185.319 960.678 186.548 960.361 187.897C960.044 189.246 959.766 189.801 959.528 189.563C958.021 188.928 956.513 188.452 955.006 188.135C953.499 187.738 952.031 187.54 950.603 187.54C949.73 187.54 948.818 187.619 947.866 187.778C946.914 187.857 945.922 188.095 944.891 188.492L944.177 190.753Z" fill="#E3B646"/>
<path d="M882.134 228C881.896 228 881.777 227.762 881.777 227.286C881.777 226.81 881.896 226.572 882.134 226.572C884.594 226.572 886.26 226.017 887.132 224.906C888.005 223.716 888.441 221.535 888.441 218.361V201.225C888.441 196.941 887.648 193.768 886.061 191.705C884.554 189.643 882.134 188.611 878.802 188.611C876.422 188.611 873.963 189.206 871.424 190.396C868.965 191.586 866.982 193.213 865.474 195.275L864.879 193.847C867.656 189.881 870.79 186.707 874.28 184.327C877.771 181.868 881.579 180.638 885.704 180.638C890.147 180.638 893.558 182.027 895.938 184.803C898.398 187.58 899.627 191.15 899.627 195.513V218.361C899.627 221.535 900.064 223.716 900.936 224.906C901.888 226.017 903.594 226.572 906.053 226.572C906.291 226.572 906.41 226.81 906.41 227.286C906.41 227.762 906.291 228 906.053 228C904.467 228 902.642 227.961 900.579 227.881C898.517 227.802 896.335 227.762 894.034 227.762C891.813 227.762 889.671 227.802 887.608 227.881C885.546 227.961 883.721 228 882.134 228ZM850.123 228C849.885 228 849.766 227.762 849.766 227.286C849.766 226.81 849.885 226.572 850.123 226.572C852.583 226.572 854.249 226.017 855.121 224.906C855.994 223.716 856.43 221.535 856.43 218.361V195.989C856.43 193.53 856.153 191.745 855.597 190.634C855.042 189.444 854.09 188.849 852.741 188.849C852.027 188.849 851.194 189.008 850.242 189.325C849.29 189.563 848.219 189.96 847.029 190.515C846.712 190.674 846.474 190.515 846.315 190.039C846.157 189.563 846.157 189.286 846.315 189.206L862.856 181.114C863.332 180.956 863.61 180.876 863.689 180.876C864.562 180.876 865.435 181.828 866.307 183.732C867.18 185.636 867.616 188.373 867.616 191.943V218.361C867.616 221.535 868.053 223.716 868.925 224.906C869.877 226.017 871.583 226.572 874.042 226.572C874.28 226.572 874.399 226.81 874.399 227.286C874.399 227.762 874.28 228 874.042 228C872.456 228 870.631 227.961 868.568 227.881C866.506 227.802 864.324 227.762 862.023 227.762C859.802 227.762 857.66 227.802 855.597 227.881C853.535 227.961 851.71 228 850.123 228Z" fill="#E3B646"/>
<path d="M818.863 228C818.625 228 818.506 227.762 818.506 227.286C818.506 226.81 818.625 226.572 818.863 226.572C821.322 226.572 822.988 226.017 823.861 224.906C824.733 223.716 825.17 221.534 825.17 218.361V197.06C825.17 194.442 824.892 192.538 824.337 191.348C823.861 190.079 822.948 189.444 821.6 189.444C821.044 189.444 820.37 189.563 819.577 189.801C818.863 190.039 818.069 190.356 817.197 190.753C816.879 190.832 816.602 190.634 816.364 190.158C816.205 189.682 816.245 189.404 816.483 189.325L834.452 180.995C834.61 180.916 834.729 180.876 834.809 180.876C835.205 180.876 835.602 181.074 835.999 181.471C836.395 181.868 836.594 182.225 836.594 182.542C836.594 183.494 836.554 185.081 836.475 187.302C836.395 189.523 836.356 192.697 836.356 196.822V218.361C836.356 221.534 836.792 223.716 837.665 224.906C838.617 226.017 840.322 226.572 842.782 226.572C843.02 226.572 843.139 226.81 843.139 227.286C843.139 227.762 843.02 228 842.782 228C841.195 228 839.37 227.96 837.308 227.881C835.245 227.802 833.063 227.762 830.763 227.762C828.541 227.762 826.399 227.802 824.337 227.881C822.274 227.96 820.449 228 818.863 228ZM830.287 169.095C828.065 169.095 826.28 168.46 824.932 167.191C823.662 165.922 823.028 164.137 823.028 161.836C823.028 159.773 823.662 158.147 824.932 156.957C826.28 155.688 828.065 155.053 830.287 155.053C832.508 155.053 834.214 155.688 835.404 156.957C836.594 158.147 837.189 159.773 837.189 161.836C837.189 166.675 834.888 169.095 830.287 169.095Z" fill="#E3B646"/>
<path d="M742.595 228C742.278 228 742.119 227.762 742.119 227.286C742.119 226.81 742.278 226.572 742.595 226.572C745.61 226.572 747.553 226.057 748.426 225.025C749.299 223.994 749.735 221.773 749.735 218.361V191.586C749.735 189.841 749.497 188.572 749.021 187.778C748.545 186.906 747.752 186.35 746.641 186.112C745.53 185.795 744.023 185.636 742.119 185.636C741.881 185.636 741.762 185.279 741.762 184.565C741.762 183.851 741.881 183.494 742.119 183.494C744.896 183.494 746.8 183.137 747.831 182.423C748.862 181.63 749.417 180.242 749.497 178.258C749.893 165.089 752.353 155.688 756.875 150.055C761.476 144.423 768.299 141.606 777.343 141.606C781.786 141.606 785.236 142.201 787.696 143.391C790.155 144.581 791.385 146.327 791.385 148.627C791.385 150.531 790.711 151.999 789.362 153.03C788.093 153.982 786.665 154.458 785.078 154.458C783.095 154.458 781.587 153.863 780.556 152.673C779.604 151.483 778.811 150.135 778.176 148.627C777.621 147.279 776.986 146.168 776.272 145.295C775.558 144.423 774.368 143.986 772.702 143.986C769.291 143.986 766.474 146.485 764.253 151.483C762.032 156.402 760.921 164.494 760.921 175.759V218.361C760.921 220.662 761.159 222.407 761.635 223.597C762.111 224.787 763.102 225.581 764.61 225.977C766.117 226.374 768.418 226.572 771.512 226.572C771.829 226.572 771.988 226.81 771.988 227.286C771.988 227.762 771.829 228 771.512 228C768.735 228 765.998 227.961 763.301 227.881C760.683 227.802 757.985 227.762 755.209 227.762C752.908 227.762 750.647 227.802 748.426 227.881C746.284 227.961 744.34 228 742.595 228ZM796.145 229.428C794.241 229.428 792.297 229.111 790.314 228.476C788.41 227.842 786.823 226.731 785.554 225.144C784.284 223.558 783.65 221.336 783.65 218.48V191.586C783.65 190.238 783.372 189.167 782.817 188.373C782.262 187.58 781.071 186.985 779.247 186.588C777.501 186.192 774.804 185.954 771.155 185.874C767.585 185.716 762.746 185.636 756.637 185.636V183.018C760.842 183.018 764.888 182.979 768.775 182.899C772.742 182.82 775.716 182.741 777.7 182.661C780.397 182.423 782.579 181.947 784.245 181.233C785.99 180.519 787.537 179.528 788.886 178.258C790.235 176.91 791.623 175.323 793.051 173.498C793.21 173.181 793.566 173.022 794.122 173.022C794.677 173.022 794.955 173.181 794.955 173.498V214.553C794.955 217.727 795.748 219.988 797.335 221.336C798.922 222.685 800.945 223.359 803.404 223.359C805.229 223.359 806.934 223.042 808.521 222.407C810.107 221.773 811.416 220.94 812.448 219.908C812.765 219.591 813.083 219.631 813.4 220.027C813.797 220.345 813.836 220.622 813.519 220.86C810.584 223.796 807.767 225.977 805.07 227.405C802.372 228.754 799.398 229.428 796.145 229.428ZM809.949 188.135C806.696 187.421 803.523 186.945 800.429 186.707C797.414 186.39 794.201 186.231 790.79 186.231V183.137C794.042 183.137 797.216 183.018 800.31 182.78C803.483 182.542 806.815 182.265 810.306 181.947C810.544 181.947 810.742 182.265 810.901 182.899C811.139 183.455 811.258 184.089 811.258 184.803C811.258 185.597 811.099 186.39 810.782 187.183C810.544 187.897 810.266 188.215 809.949 188.135Z" fill="#E3B646"/>
<path d="M727.256 228.714C726.939 228.873 726.542 228.952 726.066 228.952C724.638 228.952 723.21 228 721.782 226.096C720.354 224.192 719.64 221.455 719.64 217.885V197.655C719.64 194.561 719.442 191.983 719.045 189.92C718.648 187.857 718.014 186.31 717.141 185.279C716.268 184.248 715.078 183.732 713.571 183.732C712.381 183.732 711.31 184.049 710.358 184.684C709.406 185.239 708.652 186.191 708.097 187.54C707.542 188.809 707.185 190.594 707.026 192.895C706.788 195.196 706.074 196.901 704.884 198.012C703.694 199.043 702.068 199.559 700.005 199.559C698.022 199.559 696.594 199.123 695.721 198.25C694.848 197.377 694.412 196.187 694.412 194.68C694.412 192.935 695.245 191.269 696.911 189.682C698.577 188.016 700.64 186.548 703.099 185.279C705.638 183.93 708.256 182.899 710.953 182.185C713.65 181.392 716.07 180.995 718.212 180.995C721.703 180.995 724.678 182.066 727.137 184.208C729.596 186.271 730.826 189.563 730.826 194.085V215.148C730.826 217.449 731.223 219.234 732.016 220.503C732.889 221.772 734.079 222.407 735.586 222.407C736.697 222.407 737.847 222.129 739.037 221.574C739.354 221.415 739.592 221.574 739.751 222.05C739.989 222.447 739.91 222.724 739.513 222.883L727.256 228.714ZM702.266 228.833C699.807 228.833 697.823 228.198 696.316 226.929C694.809 225.58 694.055 223.676 694.055 221.217C694.055 218.361 695.126 216.338 697.268 215.148C699.489 213.879 702.901 212.49 707.502 210.983L720.83 206.699L721.306 208.484L713.095 211.459C710.953 212.252 709.406 213.125 708.454 214.077C707.581 215.029 707.145 216.179 707.145 217.528C707.145 219.194 707.621 220.503 708.573 221.455C709.525 222.407 710.715 222.883 712.143 222.883C712.778 222.883 713.611 222.764 714.642 222.526C715.753 222.209 716.943 221.772 718.212 221.217L724.757 217.647L724.876 219.67L714.642 225.263C712.659 226.294 710.556 227.167 708.335 227.881C706.114 228.516 704.091 228.833 702.266 228.833Z" fill="#E3B646"/>
<path d="M664.759 195.751L663.807 194.204C666.901 190.634 669.519 187.897 671.661 185.993C673.803 184.089 675.627 182.78 677.135 182.066C678.642 181.273 679.991 180.876 681.181 180.876C682.847 180.876 684.552 181.511 686.298 182.78C688.122 183.97 689.035 185.557 689.035 187.54C689.035 189.206 688.519 190.594 687.488 191.705C686.536 192.736 685.187 193.252 683.442 193.252C681.776 193.252 680.506 192.816 679.634 191.943C678.84 191.07 678.087 190.237 677.373 189.444C676.738 188.571 675.786 188.135 674.517 188.135C673.961 188.135 673.327 188.333 672.613 188.73C671.978 189.047 671.026 189.761 669.757 190.872C668.567 191.903 666.901 193.53 664.759 195.751ZM650.241 228C650.003 228 649.884 227.762 649.884 227.286C649.884 226.81 650.003 226.572 650.241 226.572C652.7 226.572 654.366 226.017 655.239 224.906C656.111 223.716 656.548 221.534 656.548 218.361V195.989C656.548 193.53 656.27 191.745 655.715 190.634C655.159 189.444 654.207 188.849 652.859 188.849C652.145 188.849 651.312 189.008 650.36 189.325C649.408 189.563 648.337 189.96 647.147 190.515C646.829 190.674 646.591 190.515 646.433 190.039C646.274 189.563 646.274 189.285 646.433 189.206L662.974 181.114C663.45 180.955 663.727 180.876 663.807 180.876C664.679 180.876 665.552 181.828 666.425 183.732C667.297 185.636 667.734 188.373 667.734 191.943V218.361C667.734 220.424 668.051 222.09 668.686 223.359C669.32 224.549 670.391 225.382 671.899 225.858C673.485 226.334 675.627 226.572 678.325 226.572C678.642 226.572 678.801 226.81 678.801 227.286C678.801 227.762 678.642 228 678.325 228C676.183 228 673.723 227.96 670.947 227.881C668.249 227.802 665.314 227.762 662.141 227.762C659.919 227.762 657.777 227.802 655.715 227.881C653.652 227.96 651.827 228 650.241 228Z" fill="#E3B646"/>
<path d="M622.894 229.428C617.42 229.428 612.898 228.278 609.328 225.977C605.758 223.597 603.1 220.582 601.355 216.933C599.689 213.284 598.856 209.595 598.856 205.866C598.856 201.899 599.689 198.369 601.355 195.275C603.021 192.181 605.202 189.603 607.9 187.54C610.676 185.398 613.731 183.772 617.063 182.661C620.395 181.55 623.687 180.995 626.94 180.995C629.24 180.995 631.541 181.352 633.842 182.066C636.142 182.701 638.047 183.692 639.554 185.041C641.061 186.31 641.815 187.937 641.815 189.92C641.815 191.269 641.26 192.538 640.149 193.728C639.038 194.839 637.412 195.394 635.27 195.394C633.287 195.394 631.739 194.878 630.629 193.847C629.518 192.816 628.646 191.308 628.011 189.325C627.456 187.421 626.821 185.993 626.107 185.041C625.472 184.01 624.203 183.494 622.299 183.494C618.887 183.494 616.15 185.2 614.088 188.611C612.104 192.022 611.113 196.465 611.113 201.939C611.113 205.906 611.708 209.555 612.898 212.887C614.088 216.14 616.031 218.758 618.729 220.741C621.426 222.645 625.036 223.597 629.558 223.597C631.938 223.597 633.921 223.319 635.508 222.764C637.174 222.209 638.998 221.455 640.982 220.503C641.14 220.344 641.339 220.424 641.577 220.741C641.894 221.058 641.973 221.296 641.815 221.455C639.038 223.994 636.182 225.977 633.247 227.405C630.311 228.754 626.86 229.428 622.894 229.428Z" fill="#E3B646"/>
<path d="M573.972 229.428C568.815 229.428 564.412 228.357 560.763 226.215C557.193 224.073 554.456 221.257 552.552 217.766C550.727 214.196 549.815 210.428 549.815 206.461C549.815 201.78 551.005 197.536 553.385 193.728C555.765 189.841 558.978 186.747 563.024 184.446C567.149 182.145 571.79 180.995 576.947 180.995C581.865 180.995 585.634 182.066 588.252 184.208C590.87 186.271 592.179 189.127 592.179 192.776C592.179 193.649 592.099 194.442 591.941 195.156C591.782 195.87 591.425 196.227 590.87 196.227H579.446C579.604 192.498 579.168 189.444 578.137 187.064C577.105 184.605 575.241 183.375 572.544 183.375C569.37 183.375 566.792 185.041 564.809 188.373C562.825 191.626 561.834 195.989 561.834 201.463C561.834 205.906 562.548 209.793 563.976 213.125C565.404 216.457 567.466 219.035 570.164 220.86C572.861 222.685 576.114 223.597 579.922 223.597C581.826 223.597 583.849 223.319 585.991 222.764C588.212 222.209 590.195 221.376 591.941 220.265C592.099 220.106 592.298 220.186 592.536 220.503C592.853 220.82 592.932 221.098 592.774 221.336C589.838 224.271 586.824 226.374 583.73 227.643C580.715 228.833 577.462 229.428 573.972 229.428ZM557.669 196.465L557.55 194.204L583.611 193.609V196.227L557.669 196.465Z" fill="#E3B646"/>
<path d="M521.471 195.751L520.519 194.204C523.613 190.634 526.231 187.897 528.373 185.993C530.515 184.089 532.339 182.78 533.847 182.066C535.354 181.273 536.703 180.876 537.893 180.876C539.559 180.876 541.264 181.511 543.01 182.78C544.834 183.97 545.747 185.557 545.747 187.54C545.747 189.206 545.231 190.594 544.2 191.705C543.248 192.736 541.899 193.252 540.154 193.252C538.488 193.252 537.218 192.816 536.346 191.943C535.552 191.07 534.799 190.237 534.085 189.444C533.45 188.571 532.498 188.135 531.229 188.135C530.673 188.135 530.039 188.333 529.325 188.73C528.69 189.047 527.738 189.761 526.469 190.872C525.279 191.903 523.613 193.53 521.471 195.751ZM506.953 228C506.715 228 506.596 227.762 506.596 227.286C506.596 226.81 506.715 226.572 506.953 226.572C509.412 226.572 511.078 226.017 511.951 224.906C512.823 223.716 513.26 221.534 513.26 218.361V195.989C513.26 193.53 512.982 191.745 512.427 190.634C511.871 189.444 510.919 188.849 509.571 188.849C508.857 188.849 508.024 189.008 507.072 189.325C506.12 189.563 505.049 189.96 503.859 190.515C503.541 190.674 503.303 190.515 503.145 190.039C502.986 189.563 502.986 189.285 503.145 189.206L519.686 181.114C520.162 180.955 520.439 180.876 520.519 180.876C521.391 180.876 522.264 181.828 523.137 183.732C524.009 185.636 524.446 188.373 524.446 191.943V218.361C524.446 220.424 524.763 222.09 525.398 223.359C526.032 224.549 527.103 225.382 528.611 225.858C530.197 226.334 532.339 226.572 535.037 226.572C535.354 226.572 535.513 226.81 535.513 227.286C535.513 227.762 535.354 228 535.037 228C532.895 228 530.435 227.96 527.659 227.881C524.961 227.802 522.026 227.762 518.853 227.762C516.631 227.762 514.489 227.802 512.427 227.881C510.364 227.96 508.539 228 506.953 228Z" fill="#E3B646"/>
<path d="M465.078 229.428C460.715 229.428 457.264 228.04 454.725 225.263C452.266 222.486 451.036 218.916 451.036 214.553V197.06C451.036 194.442 450.719 192.498 450.084 191.229C449.529 189.96 448.617 189.325 447.347 189.325C446.475 189.325 445.483 189.603 444.372 190.158C444.055 190.237 443.777 190.039 443.539 189.563C443.381 189.087 443.42 188.809 443.658 188.73L459.604 181.114C459.842 181.035 460.041 180.995 460.199 180.995C460.596 180.995 460.993 181.193 461.389 181.59C461.865 181.907 462.103 182.225 462.103 182.542V208.841C462.103 213.125 462.897 216.338 464.483 218.48C466.149 220.622 468.648 221.693 471.98 221.693C474.281 221.693 476.582 221.058 478.882 219.789C481.183 218.44 483.008 216.774 484.356 214.791L485.07 216.219C482.373 220.106 479.358 223.28 476.026 225.739C472.694 228.198 469.045 229.428 465.078 229.428ZM493.162 182.542V214.196C493.162 216.893 493.4 218.797 493.876 219.908C494.432 221.019 495.304 221.574 496.494 221.574C497.05 221.574 497.724 221.455 498.517 221.217C499.39 220.979 500.342 220.662 501.373 220.265C501.691 220.106 501.968 220.265 502.206 220.741C502.444 221.138 502.444 221.415 502.206 221.574L485.784 229.547C485.626 229.626 485.427 229.666 485.189 229.666C484.396 229.666 483.682 228.674 483.047 226.691C482.413 224.708 482.095 221.891 482.095 218.242V197.06C482.095 194.442 481.778 192.498 481.143 191.229C480.588 189.96 479.676 189.325 478.406 189.325C477.534 189.325 476.502 189.603 475.312 190.158C475.074 190.237 474.836 190.039 474.598 189.563C474.44 189.087 474.479 188.809 474.717 188.73L490.663 181.114C490.822 181.035 491.02 180.995 491.258 180.995C491.655 180.995 492.052 181.193 492.448 181.59C492.924 181.907 493.162 182.225 493.162 182.542Z" fill="#E3B646"/>
<path d="M424.15 229.428C422.246 229.428 420.302 229.111 418.319 228.476C416.415 227.841 414.789 226.731 413.44 225.144C412.171 223.557 411.536 221.336 411.536 218.48V192.062C411.536 190.396 411.338 189.087 410.941 188.135C410.544 187.183 409.91 186.509 409.037 186.112C408.164 185.715 406.974 185.517 405.467 185.517C405.15 185.517 404.991 185.16 404.991 184.446C404.991 183.732 405.15 183.375 405.467 183.375C409.513 183.216 412.805 182.344 415.344 180.757C417.883 179.091 419.787 176.671 421.056 173.498C421.215 173.181 421.532 173.022 422.008 173.022C422.563 173.022 422.841 173.181 422.841 173.498V214.553C422.841 217.726 423.634 219.987 425.221 221.336C426.887 222.685 428.91 223.359 431.29 223.359C433.115 223.359 434.82 223.002 436.407 222.288C438.073 221.495 439.461 220.662 440.572 219.789C440.81 219.551 441.088 219.63 441.405 220.027C441.802 220.344 441.841 220.622 441.524 220.86C438.589 223.795 435.733 225.977 432.956 227.405C430.259 228.754 427.323 229.428 424.15 229.428ZM437.835 188.135C434.582 187.421 431.409 186.945 428.315 186.707C425.3 186.39 422.087 186.231 418.676 186.231V183.137C421.929 183.137 425.102 183.018 428.196 182.78C431.369 182.542 434.741 182.264 438.311 181.947C438.47 181.947 438.628 182.264 438.787 182.899C439.025 183.454 439.144 184.089 439.144 184.803C439.144 185.596 438.985 186.39 438.668 187.183C438.43 187.897 438.152 188.214 437.835 188.135Z" fill="#E3B646"/>
<path d="M365.021 229.428C360.657 229.428 357.206 228.04 354.668 225.263C352.208 222.486 350.979 218.916 350.979 214.553V197.06C350.979 194.442 350.661 192.498 350.027 191.229C349.471 189.96 348.559 189.325 347.29 189.325C346.417 189.325 345.425 189.603 344.315 190.158C343.997 190.237 343.72 190.039 343.482 189.563C343.323 189.087 343.363 188.809 343.601 188.73L359.547 181.114C359.785 181.035 359.983 180.995 360.142 180.995C360.538 180.995 360.935 181.193 361.332 181.59C361.808 181.907 362.046 182.225 362.046 182.542V208.841C362.046 213.125 362.839 216.338 364.426 218.48C366.092 220.622 368.591 221.693 371.923 221.693C374.223 221.693 376.524 221.058 378.825 219.789C381.125 218.44 382.95 216.774 384.299 214.791L385.013 216.219C382.315 220.106 379.301 223.28 375.969 225.739C372.637 228.198 368.987 229.428 365.021 229.428ZM393.105 182.542V214.196C393.105 216.893 393.343 218.797 393.819 219.908C394.374 221.019 395.247 221.574 396.437 221.574C396.992 221.574 397.666 221.455 398.46 221.217C399.332 220.979 400.284 220.662 401.316 220.265C401.633 220.106 401.911 220.265 402.149 220.741C402.387 221.138 402.387 221.415 402.149 221.574L385.727 229.547C385.568 229.626 385.37 229.666 385.132 229.666C384.338 229.666 383.624 228.674 382.99 226.691C382.355 224.708 382.038 221.891 382.038 218.242V197.06C382.038 194.442 381.72 192.498 381.086 191.229C380.53 189.96 379.618 189.325 378.349 189.325C377.476 189.325 376.445 189.603 375.255 190.158C375.017 190.237 374.779 190.039 374.541 189.563C374.382 189.087 374.422 188.809 374.66 188.73L390.606 181.114C390.764 181.035 390.963 180.995 391.201 180.995C391.597 180.995 391.994 181.193 392.391 181.59C392.867 181.907 393.105 182.225 393.105 182.542Z" fill="#E3B646"/>
<path d="M284.046 228C283.808 228 283.689 227.762 283.689 227.286C283.689 226.81 283.808 226.572 284.046 226.572C286.743 226.572 288.727 226.374 289.996 225.977C291.345 225.58 292.217 224.787 292.614 223.597C293.09 222.407 293.328 220.662 293.328 218.361V163.264C293.328 160.963 293.13 159.258 292.733 158.147C292.336 156.957 291.543 156.164 290.353 155.767C289.163 155.291 287.338 155.053 284.879 155.053C284.641 155.053 284.522 154.815 284.522 154.339C284.522 153.863 284.641 153.625 284.879 153.625H335.335C336.128 153.625 336.525 153.982 336.525 154.696L336.763 170.523C336.763 170.682 336.565 170.801 336.168 170.88C335.771 170.959 335.494 170.88 335.335 170.642C334.066 165.961 331.924 162.55 328.909 160.408C325.894 158.187 321.928 157.076 317.009 157.076H313.439C311.059 157.076 309.314 157.592 308.203 158.623C307.092 159.654 306.537 161.241 306.537 163.383V217.885C306.537 220.265 306.854 222.09 307.489 223.359C308.124 224.549 309.353 225.382 311.178 225.858C313.003 226.334 315.7 226.572 319.27 226.572C319.429 226.572 319.508 226.81 319.508 227.286C319.508 227.762 319.429 228 319.27 228C316.573 228 313.637 227.96 310.464 227.881C307.37 227.802 303.721 227.762 299.516 227.762C296.66 227.762 293.883 227.802 291.186 227.881C288.489 227.96 286.109 228 284.046 228ZM329.385 202.772C329.385 199.599 328.155 197.1 325.696 195.275C323.237 193.371 319.667 192.419 314.986 192.419H300.23V189.087H315.105C319.786 189.087 323.316 188.254 325.696 186.588C328.076 184.922 329.266 182.701 329.266 179.924C329.266 179.765 329.504 179.686 329.98 179.686C330.456 179.686 330.694 179.765 330.694 179.924C330.694 182.621 330.654 184.724 330.575 186.231C330.575 187.659 330.575 189.166 330.575 190.753C330.575 192.736 330.615 194.68 330.694 196.584C330.773 198.488 330.813 200.551 330.813 202.772C330.813 203.01 330.575 203.129 330.099 203.129C329.623 203.129 329.385 203.01 329.385 202.772Z" fill="#E3B646"/>
<path d="M732.716 125.428C727.559 125.428 723.156 124.357 719.507 122.215C715.937 120.073 713.2 117.257 711.296 113.766C709.471 110.196 708.559 106.428 708.559 102.461C708.559 97.7804 709.749 93.5361 712.129 89.7281C714.509 85.8408 717.722 82.7468 721.768 80.4461C725.893 78.1454 730.534 76.9951 735.691 76.9951C740.61 76.9951 744.378 78.0661 746.996 80.2081C749.614 82.2708 750.923 85.1268 750.923 88.7761C750.923 89.6488 750.844 90.4421 750.685 91.1561C750.526 91.8701 750.169 92.2271 749.614 92.2271H738.19C738.349 88.4984 737.912 85.4441 736.881 83.0641C735.85 80.6048 733.985 79.3751 731.288 79.3751C728.115 79.3751 725.536 81.0411 723.553 84.3731C721.57 87.6258 720.578 91.9891 720.578 97.4631C720.578 101.906 721.292 105.793 722.72 109.125C724.148 112.457 726.211 115.035 728.908 116.86C731.605 118.685 734.858 119.597 738.666 119.597C740.57 119.597 742.593 119.319 744.735 118.764C746.956 118.209 748.94 117.376 750.685 116.265C750.844 116.106 751.042 116.186 751.28 116.503C751.597 116.82 751.677 117.098 751.518 117.336C748.583 120.271 745.568 122.374 742.474 123.643C739.459 124.833 736.207 125.428 732.716 125.428ZM716.413 92.4651L716.294 90.2041L742.355 89.6091V92.2271L716.413 92.4651Z" fill="#E3B646"/>
<path d="M706.366 78.0662C706.524 78.0662 706.604 78.3042 706.604 78.7802C706.604 79.2562 706.524 79.4942 706.366 79.4942C704.065 79.4942 702.002 80.3668 700.178 82.1122C698.432 83.8575 696.766 86.5548 695.18 90.2042L680.543 124C680.384 124.397 679.948 124.595 679.234 124.595C678.599 124.595 678.163 124.397 677.925 124L659.718 87.9432C657.972 84.2938 656.465 81.9932 655.196 81.0412C653.926 80.0098 652.419 79.4942 650.674 79.4942C650.436 79.4942 650.317 79.2562 650.317 78.7802C650.317 78.3042 650.436 78.0662 650.674 78.0662C652.022 78.0662 653.53 78.1058 655.196 78.1852C656.941 78.2645 659.281 78.3042 662.217 78.3042C665.469 78.3042 668.246 78.2645 670.547 78.1852C672.847 78.1058 674.989 78.0662 676.973 78.0662C677.211 78.0662 677.33 78.3042 677.33 78.7802C677.33 79.2562 677.211 79.4942 676.973 79.4942C674.513 79.4942 672.609 79.8115 671.261 80.4462C669.912 81.0808 669.714 82.3105 670.666 84.1352L684.946 111.029L678.877 121.501L691.848 90.0852C693.196 86.8325 693.196 84.2542 691.848 82.3502C690.578 80.4462 688.357 79.4942 685.184 79.4942C685.025 79.4942 684.946 79.2562 684.946 78.7802C684.946 78.3042 685.025 78.0662 685.184 78.0662C687.088 78.0662 688.873 78.1058 690.539 78.1852C692.284 78.2645 694.505 78.3042 697.203 78.3042C699.107 78.3042 700.654 78.2645 701.844 78.1852C703.113 78.1058 704.62 78.0662 706.366 78.0662Z" fill="#E3B646"/>
<path d="M625.72 124C625.482 124 625.363 123.762 625.363 123.286C625.363 122.81 625.482 122.572 625.72 122.572C628.179 122.572 629.845 122.017 630.718 120.906C631.591 119.716 632.027 117.534 632.027 114.361V93.06C632.027 90.442 631.749 88.538 631.194 87.348C630.718 86.0786 629.806 85.444 628.457 85.444C627.902 85.444 627.227 85.563 626.434 85.801C625.72 86.039 624.927 86.3563 624.054 86.753C623.737 86.8323 623.459 86.634 623.221 86.158C623.062 85.682 623.102 85.4043 623.34 85.325L641.309 76.995C641.468 76.9156 641.587 76.876 641.666 76.876C642.063 76.876 642.459 77.0743 642.856 77.471C643.253 77.8676 643.451 78.2246 643.451 78.542C643.451 79.494 643.411 81.0806 643.332 83.302C643.253 85.5233 643.213 88.6967 643.213 92.822V114.361C643.213 117.534 643.649 119.716 644.522 120.906C645.474 122.017 647.18 122.572 649.639 122.572C649.877 122.572 649.996 122.81 649.996 123.286C649.996 123.762 649.877 124 649.639 124C648.052 124 646.228 123.96 644.165 123.881C642.102 123.802 639.921 123.762 637.62 123.762C635.399 123.762 633.257 123.802 631.194 123.881C629.131 123.96 627.307 124 625.72 124ZM637.144 65.095C634.923 65.095 633.138 64.4603 631.789 63.191C630.52 61.9216 629.885 60.1366 629.885 57.836C629.885 55.7733 630.52 54.147 631.789 52.957C633.138 51.6876 634.923 51.053 637.144 51.053C639.365 51.053 641.071 51.6876 642.261 52.957C643.451 54.147 644.046 55.7733 644.046 57.836C644.046 62.6753 641.745 65.095 637.144 65.095Z" fill="#E3B646"/>
<path d="M602.998 125.428C601.094 125.428 599.151 125.111 597.167 124.476C595.263 123.842 593.637 122.731 592.288 121.144C591.019 119.558 590.384 117.336 590.384 114.48V88.0622C590.384 86.3962 590.186 85.0872 589.789 84.1352C589.393 83.1832 588.758 82.5089 587.885 82.1122C587.013 81.7155 585.823 81.5172 584.315 81.5172C583.998 81.5172 583.839 81.1602 583.839 80.4462C583.839 79.7322 583.998 79.3752 584.315 79.3752C588.361 79.2165 591.654 78.3439 594.192 76.7572C596.731 75.0912 598.635 72.6715 599.904 69.4982C600.063 69.1809 600.38 69.0222 600.856 69.0222C601.412 69.0222 601.689 69.1809 601.689 69.4982V110.553C601.689 113.727 602.483 115.988 604.069 117.336C605.735 118.685 607.758 119.359 610.138 119.359C611.963 119.359 613.669 119.002 615.255 118.288C616.921 117.495 618.31 116.662 619.42 115.789C619.658 115.551 619.936 115.631 620.253 116.027C620.65 116.345 620.69 116.622 620.372 116.86C617.437 119.796 614.581 121.977 611.804 123.405C609.107 124.754 606.172 125.428 602.998 125.428ZM616.683 84.1352C613.431 83.4212 610.257 82.9452 607.163 82.7072C604.149 82.3899 600.936 82.2312 597.524 82.2312V79.1372C600.777 79.1372 603.95 79.0182 607.044 78.7802C610.218 78.5422 613.589 78.2646 617.159 77.9472C617.318 77.9472 617.477 78.2645 617.635 78.8992C617.873 79.4545 617.992 80.0892 617.992 80.8032C617.992 81.5965 617.834 82.3899 617.516 83.1832C617.278 83.8972 617.001 84.2145 616.683 84.1352Z" fill="#E3B646"/>
<path d="M558.397 125.428C552.923 125.428 548.401 124.278 544.831 121.977C541.261 119.597 538.603 116.582 536.858 112.933C535.192 109.284 534.359 105.595 534.359 101.866C534.359 97.8994 535.192 94.3691 536.858 91.2751C538.524 88.1811 540.705 85.6028 543.403 83.5401C546.179 81.3981 549.234 79.7718 552.566 78.6611C555.898 77.5505 559.19 76.9951 562.443 76.9951C564.743 76.9951 567.044 77.3521 569.345 78.0661C571.645 78.7008 573.549 79.6924 575.057 81.0411C576.564 82.3104 577.318 83.9368 577.318 85.9201C577.318 87.2688 576.762 88.5381 575.652 89.7281C574.541 90.8388 572.915 91.3941 570.773 91.3941C568.789 91.3941 567.242 90.8785 566.132 89.8471C565.021 88.8158 564.148 87.3084 563.514 85.3251C562.958 83.4211 562.324 81.9931 561.61 81.0411C560.975 80.0098 559.706 79.4941 557.802 79.4941C554.39 79.4941 551.653 81.1998 549.591 84.6111C547.607 88.0224 546.616 92.4651 546.616 97.9391C546.616 101.906 547.211 105.555 548.401 108.887C549.591 112.14 551.534 114.758 554.232 116.741C556.929 118.645 560.539 119.597 565.061 119.597C567.441 119.597 569.424 119.319 571.011 118.764C572.677 118.209 574.501 117.455 576.485 116.503C576.643 116.344 576.842 116.424 577.08 116.741C577.397 117.058 577.476 117.296 577.318 117.455C574.541 119.994 571.685 121.977 568.75 123.405C565.814 124.754 562.363 125.428 558.397 125.428Z" fill="#E3B646"/>
<path d="M509.475 125.428C504.318 125.428 499.915 124.357 496.266 122.215C492.696 120.073 489.959 117.257 488.055 113.766C486.23 110.196 485.318 106.428 485.318 102.461C485.318 97.7804 486.508 93.5361 488.888 89.7281C491.268 85.8408 494.481 82.7468 498.527 80.4461C502.652 78.1454 507.293 76.9951 512.45 76.9951C517.368 76.9951 521.137 78.0661 523.755 80.2081C526.373 82.2708 527.682 85.1268 527.682 88.7761C527.682 89.6488 527.602 90.4421 527.444 91.1561C527.285 91.8701 526.928 92.2271 526.373 92.2271H514.949C515.107 88.4984 514.671 85.4441 513.64 83.0641C512.608 80.6048 510.744 79.3751 508.047 79.3751C504.873 79.3751 502.295 81.0411 500.312 84.3731C498.328 87.6258 497.337 91.9891 497.337 97.4631C497.337 101.906 498.051 105.793 499.479 109.125C500.907 112.457 502.969 115.035 505.667 116.86C508.364 118.685 511.617 119.597 515.425 119.597C517.329 119.597 519.352 119.319 521.494 118.764C523.715 118.209 525.698 117.376 527.444 116.265C527.602 116.106 527.801 116.186 528.039 116.503C528.356 116.82 528.435 117.098 528.277 117.336C525.341 120.271 522.327 122.374 519.233 123.643C516.218 124.833 512.965 125.428 509.475 125.428ZM493.172 92.4651L493.053 90.2041L519.114 89.6091V92.2271L493.172 92.4651Z" fill="#E3B646"/>
<path d="M453.833 124C453.674 124 453.595 123.762 453.595 123.286C453.595 122.81 453.674 122.572 453.833 122.572C456.292 122.572 457.958 122.017 458.831 120.906C459.783 119.716 460.259 117.534 460.259 114.361L460.378 53.9091C460.378 51.2118 460.14 49.2681 459.664 48.0781C459.188 46.8088 458.276 46.1741 456.927 46.1741C455.896 46.1741 454.388 46.6104 452.405 47.4831C452.167 47.5624 451.929 47.3641 451.691 46.8881C451.453 46.4121 451.413 46.1344 451.572 46.0551L469.065 37.8441C469.224 37.7648 469.382 37.7251 469.541 37.7251C469.938 37.7251 470.374 37.9234 470.85 38.3201C471.326 38.6374 471.564 38.9548 471.564 39.2721V114.361C471.564 117.534 472 119.716 472.873 120.906C473.746 122.017 475.412 122.572 477.871 122.572C478.188 122.572 478.347 122.81 478.347 123.286C478.347 123.762 478.188 124 477.871 124C476.364 124 474.539 123.96 472.397 123.881C470.334 123.802 468.153 123.762 465.852 123.762C463.551 123.762 461.37 123.802 459.307 123.881C457.244 123.96 455.42 124 453.833 124Z" fill="#E3B646"/>
<path d="M421.991 124C421.832 124 421.753 123.762 421.753 123.286C421.753 122.81 421.832 122.572 421.991 122.572C424.45 122.572 426.116 122.017 426.989 120.906C427.941 119.716 428.417 117.534 428.417 114.361L428.536 53.9091C428.536 51.2118 428.298 49.2681 427.822 48.0781C427.346 46.8088 426.434 46.1741 425.085 46.1741C424.054 46.1741 422.546 46.6104 420.563 47.4831C420.325 47.5624 420.087 47.3641 419.849 46.8881C419.611 46.4121 419.571 46.1344 419.73 46.0551L437.223 37.8441C437.382 37.7648 437.54 37.7251 437.699 37.7251C438.096 37.7251 438.532 37.9234 439.008 38.3201C439.484 38.6374 439.722 38.9548 439.722 39.2721V114.361C439.722 117.534 440.158 119.716 441.031 120.906C441.904 122.017 443.57 122.572 446.029 122.572C446.346 122.572 446.505 122.81 446.505 123.286C446.505 123.762 446.346 124 446.029 124C444.522 124 442.697 123.96 440.555 123.881C438.492 123.802 436.311 123.762 434.01 123.762C431.709 123.762 429.528 123.802 427.465 123.881C425.402 123.96 423.578 124 421.991 124Z" fill="#E3B646"/>
<path d="M387.807 125.547C382.809 125.547 378.486 124.397 374.836 122.096C371.187 119.795 368.371 116.741 366.387 112.933C364.404 109.046 363.412 104.881 363.412 100.438C363.412 96.3127 364.206 92.7427 365.792 89.728C367.379 86.7134 369.481 84.254 372.099 82.35C374.717 80.3667 377.573 78.899 380.667 77.947C383.761 76.995 386.816 76.519 389.83 76.519C394.908 76.519 399.231 77.709 402.801 80.089C406.451 82.469 409.227 85.5234 411.131 89.252C413.035 92.9807 413.987 96.9474 413.987 101.152C413.987 105.991 412.758 110.275 410.298 114.004C407.918 117.653 404.745 120.509 400.778 122.572C396.812 124.555 392.488 125.547 387.807 125.547ZM391.377 123.048C394.551 123.048 396.931 121.501 398.517 118.407C400.104 115.313 400.897 110.95 400.897 105.317C400.897 99.5257 400.144 94.6864 398.636 90.799C397.208 86.9117 395.344 83.9764 393.043 81.993C390.743 80.0097 388.323 79.018 385.784 79.018C382.69 79.018 380.31 80.4064 378.644 83.183C377.058 85.9597 376.264 90.2437 376.264 96.035C376.264 101.43 376.939 106.19 378.287 110.315C379.636 114.361 381.461 117.495 383.761 119.716C386.062 121.937 388.601 123.048 391.377 123.048Z" fill="#E3B646"/>
<path d="M330.099 48.3162C333.431 48.3162 337.001 48.5938 340.809 49.1492C344.696 49.7045 347.751 50.4978 349.972 51.5292C350.686 51.7672 351.162 52.0845 351.4 52.4812C351.638 52.7985 351.797 53.3935 351.876 54.2662L353.304 70.8072C353.304 71.0452 353.106 71.2038 352.709 71.2832C352.392 71.3625 352.154 71.2435 351.995 70.9262C349.377 64.8175 345.807 60.0178 341.285 56.5272C336.842 53.0365 331.567 51.2912 325.458 51.2912C320.143 51.2912 315.621 52.6398 311.892 55.3372C308.243 58.0345 305.466 61.8028 303.562 66.6422C301.737 71.4022 300.825 76.9555 300.825 83.3022C300.825 88.7762 301.499 93.9328 302.848 98.7722C304.197 103.532 306.101 107.737 308.56 111.386C311.019 114.956 313.955 117.773 317.366 119.835C320.777 121.898 324.546 122.929 328.671 122.929C333.748 122.929 338.27 121.263 342.237 117.931C346.283 114.599 349.893 109.443 353.066 102.461C353.225 102.144 353.502 102.025 353.899 102.104C354.296 102.183 354.494 102.342 354.494 102.58L352.709 118.764C352.55 119.716 352.352 120.351 352.114 120.668C351.955 120.906 351.519 121.184 350.805 121.501C347.156 122.85 343.467 123.841 339.738 124.476C336.089 125.111 332.519 125.428 329.028 125.428C321.333 125.428 314.748 124.278 309.274 121.977C303.8 119.597 299.318 116.503 295.827 112.695C292.416 108.808 289.877 104.603 288.211 100.081C286.624 95.4798 285.831 90.9578 285.831 86.5152C285.831 80.6445 287.021 75.3688 289.401 70.6882C291.86 66.0075 295.153 62.0012 299.278 58.6692C303.483 55.3372 308.203 52.7985 313.439 51.0532C318.754 49.2285 324.308 48.3162 330.099 48.3162Z" fill="#E3B646"/>
</svg>
