<svg width="222" height="222" viewBox="0 0 222 222" fill="none" xmlns="http://www.w3.org/2000/svg">
<path d="M36.9598 109.483C35.7463 150.198 67.7684 184.188 108.483 185.401C128.614 186.001 147.984 180.12 162.173 167.971C176.432 155.763 185.223 137.417 184.401 113.675C183.588 90.2139 175.99 71.5346 163.293 58.5545C150.592 45.5717 133.053 38.5613 112.878 37.9599C89.3201 37.2578 70.5644 44.8948 57.5547 57.998C44.5772 71.0687 37.5605 89.3311 36.9598 109.483Z" stroke="#A7D8F0" stroke-width="6.29024"/>
<path d="M77.0625 84.9252C53.4088 102.741 48.6764 136.359 66.4923 160.013C75.2636 171.658 87.3847 179.984 100.76 182.52C114.225 185.073 128.663 181.693 141.738 170.456C154.6 159.401 161.764 146.622 163.364 133.474C164.963 120.323 160.949 107.177 152.15 95.4954C141.882 81.8634 129.025 74.664 115.626 73.2319C102.272 71.8047 88.7254 76.1407 77.0625 84.9252Z" stroke="#A7D8F0" stroke-width="6.29024"/>
<path d="M91.1104 116.54C74.4255 127.21 69.5497 149.386 80.2199 166.071C85.4326 174.222 93.0651 180.402 101.893 182.788C110.81 185.198 120.653 183.65 129.918 176.847C138.956 170.21 144.408 162.083 146.158 153.345C147.908 144.603 145.878 135.62 140.641 127.431C134.536 117.884 126.334 112.392 117.41 110.74C108.532 109.096 99.28 111.316 91.1104 116.54Z" stroke="#A7D8F0" stroke-width="6.29024"/>
</svg>
