<svg width="683" height="683" viewBox="0 0 683 683" fill="none" xmlns="http://www.w3.org/2000/svg">
<g clip-path="url(#clip0_294_416)">
<path d="M134.155 546.815C149.313 561.468 201.255 605.297 292.228 618.892C391.526 633.73 540.811 537.101 540.811 537.101L538.93 523.66C538.93 523.66 391.629 578.15 303.327 576.317C246.137 575.129 169.956 538.599 144.684 525.652C140.206 523.358 134.709 525.61 133.171 530.402L131.526 535.529C130.238 539.539 131.127 543.887 134.155 546.815Z" fill="#423D33" fill-opacity="0.1"/>
<path d="M622.003 380.557C623.724 359.545 624.685 291.589 577.516 212.619C526.033 126.424 482.749 138.852 423.113 95.1707C402.607 80.1511 400.431 58.3644 389.342 54.7251C344.752 40.0899 427.438 103.417 527.703 198.192C570.392 238.543 593.182 351.287 599.241 385.393C600.14 390.454 605.466 393.49 610.247 391.601L614.944 389.746C618.861 388.199 621.659 384.755 622.003 380.557Z" fill="#7B9361" fill-opacity="0.2"/>
<path d="M243.028 69.3992C223.4 72.3299 162.684 85.5854 102.121 141.883C35.5681 203.749 45.5 334 22.2921 360.438C19.1105 364.062 28.3323 366.311 33.155 366.311C41.4996 366.311 76.0635 233.579 126.957 172.48C159.437 133.487 227.305 99.903 251.889 88.5628C256.553 86.4117 258.165 80.5053 255.159 76.3416L253.467 73.999C251.049 70.6493 247.114 68.789 243.028 69.3992Z" fill="#E3B646" fill-opacity="0.2"/>
<path d="M215.086 445.052C187.656 439.146 157.99 394.493 148.583 340.078C130.791 315.004 114.632 295.284 111.994 306.024C110.887 310.775 117.642 357.585 122.628 375.327C133.073 412.958 163.292 443.941 188.78 459.479C206.657 470.42 227.889 479.296 230.503 473.825C232.93 468.745 224.004 446.913 215.086 445.052Z" fill="#A7D8F0" fill-opacity="0.3"/>
<path d="M413.392 282.34C432.363 303.014 441.214 345.658 417.441 395.5C417.467 426.245 385.641 458.74 394 451.5C397.65 448.262 442.359 410.039 448.544 392.677C461.769 355.932 455.017 313.182 443.197 285.771C434.932 266.51 422.736 246.995 417.441 249.949C412.524 252.692 407.19 275.668 413.392 282.34Z" fill="#FF8E8E" fill-opacity="0.2"/>
<path d="M271.066 69.4671C256.266 72.1337 233.466 79.4671 221.466 85.2004C196.8 97.0671 186.4 102.934 187.6 104.134C188.533 105.067 195.733 102.134 208.933 95.4671C232.666 83.6004 250.533 77.2004 271.066 73.0671C292.266 68.8004 328.266 68.8004 346.666 73.2004C375.6 80.0004 402 91.4671 429.866 109.334C437.866 114.4 444.933 118.267 445.6 117.867C447.6 116.667 444.933 114.667 428 104C399.066 85.8671 368.133 73.3337 341.466 68.8004C323.733 65.7337 289.066 66.1337 271.066 69.4671Z" fill="#423D33"/>
<path d="M167.733 100.401C148.667 111.735 134.933 122.401 118 139.335C84.2666 172.935 54.6666 219.868 49.3333 247.868C48 254.935 48.6666 257.201 52.8 258.668L55.7333 259.868L53.0666 268.935C50.9333 275.601 50.2666 281.735 50.2666 292.001C50.1333 315.601 52.2666 352.001 53.7333 352.001C54.6666 352.001 54.8 340.268 54.1333 316.935C53.2 278.935 53.8666 273.335 60.6666 259.335C62.5333 255.601 66.4 245.601 69.3333 237.068C76.1333 217.201 83.6 201.468 92.8 187.735C100.667 175.868 100.933 170.001 93.0666 180.935C82 196.135 74 212.535 65.3333 237.335C59.6 253.735 58.8 255.335 55.8666 255.335C51.3333 255.335 51.2 251.468 55.4666 239.068C62.6666 218.001 75.0666 196.401 94 172.001C117.067 142.401 140.533 120.935 168.533 104.135C181.6 96.2679 185.2 93.2012 181.067 93.4679C180.133 93.4679 174.133 96.6679 167.733 100.401Z" fill="#423D33"/>
<path d="M473.333 100.268C473.333 101.201 475.333 103.335 477.866 104.935C484.533 109.201 508 128.401 518.266 137.868C534.133 152.401 546.133 166.001 561.866 187.068C564.266 190.401 566.133 191.735 566.933 190.935C568.933 188.935 543.066 156.801 526.8 141.068C512.266 127.068 478.8 99.7345 475.333 98.9345C474.266 98.6678 473.333 99.2012 473.333 100.268Z" fill="#423D33"/>
<path d="M284.134 104.801C260.934 108.668 232.534 121.068 212.934 135.735C200.134 145.335 158.934 185.601 150.267 196.935C143.067 206.401 130.667 226.001 130.667 228.001C130.667 231.468 133.6 228.135 143.867 212.268C153.467 197.868 158.8 191.735 179.2 171.335C206.4 144.135 218.934 134.135 238.134 124.401C263.2 111.601 284.667 106.401 312.667 106.268C334.4 106.268 347.2 108.268 366.667 114.668C380.934 119.335 400 127.335 400 128.535C400 128.801 397.734 128.535 395.067 127.868C392.267 127.201 378.534 124.935 364.534 122.668C316.8 115.201 287.6 118.135 254.267 134.001C241.334 140.001 226.4 150.001 216.8 158.801C197.334 176.535 169.6 216.535 160.134 240.135C150 265.601 145.067 302.001 147.867 331.068C150.8 361.201 158.934 384.935 173.6 406.268C184 421.468 212.667 449.735 228 459.868C259.2 480.535 290.267 491.335 324.134 492.935C386.4 496.001 443.867 457.735 462.534 400.801C468.267 383.468 475.734 351.335 477.467 336.935C484.4 277.068 448.267 212.801 395.334 190.801C376.534 182.935 366.934 181.068 341.2 180.401C315.734 179.601 306.267 181.068 288 188.401C259.334 200.001 228.134 229.735 213.2 259.868C207.067 272.268 202.534 287.735 201.2 301.201C200.4 308.268 199.334 315.068 198.534 316.268C197.867 317.601 197.334 324.135 197.334 330.935C197.334 344.668 200.534 360.535 205.734 372.135C207.467 376.135 210.267 383.468 211.867 388.668C220.934 416.801 241.867 443.201 267.2 458.535C292.134 473.468 319.6 474.535 356.667 461.735C382.8 452.668 400 442.535 417.6 425.601C434.934 408.935 446.267 391.201 454.267 368.401C457.6 358.935 457.867 356.135 458 338.668C458 316.268 455.6 305.468 446.534 287.201C441.067 276.268 426.134 256.935 422.667 256.268C421.6 256.135 418.4 257.735 415.6 260.135C409.867 264.935 409.867 266.268 416.667 280.001C422.667 292.001 427.867 308.935 428.8 320.135C429.867 331.335 432.934 332.268 432.267 321.201C431.467 306.401 424.134 283.735 416.4 272.401L413.067 267.468L417.334 263.601L421.6 259.735L425.6 263.601C442.8 279.868 455.2 310.935 455.2 338.001C455.067 353.468 453.067 362.935 446.134 378.801C432.667 409.201 411.6 431.601 381.6 447.068C360 458.135 343.734 463.468 321.334 466.668C303.467 469.201 284.934 465.068 266.934 454.535C257.2 448.668 234 425.468 228.267 415.735C222.934 406.801 215.2 388.935 214 383.335C213.067 378.801 212.4 377.868 223.2 394.401C234.934 412.268 253.734 429.335 273.867 440.135C299.867 454.135 325.867 457.468 355.6 450.535C400.934 440.135 441.6 395.068 449.334 346.668C451.2 334.801 451.067 311.601 449.2 312.268C448.267 312.535 447.6 318.801 447.2 328.668C446.667 348.268 443.467 361.468 435.2 378.668C425.334 399.468 408.4 419.068 389.734 431.735C378.667 439.201 372.4 442.135 359.067 446.135C348.8 449.335 344.934 449.735 328.667 449.868C306.4 449.868 298.8 448.135 279.334 438.668C255.2 426.935 234.934 407.601 219.334 381.601C211.067 367.601 206.534 352.668 203.867 329.735C199.334 292.001 214.134 253.868 245.334 222.668C270.534 197.468 296.534 184.935 328 183.201C386.667 179.735 433.6 206.535 459.2 258.135C472.934 285.735 477.467 312.801 473.2 342.001C471.2 356.135 461.734 393.601 457.334 405.201C446 434.668 422.267 460.135 392.667 474.935C372.134 485.201 354.4 489.335 330.8 489.335C295.734 489.335 262.267 478.668 230.667 457.335C205.2 440.135 179.2 411.868 166.8 388.001C150 355.735 146 308.801 156.267 264.668C159.867 248.668 164.8 236.668 174.4 220.135C205.6 165.868 239.6 137.601 288 125.601C299.734 122.801 305.067 122.135 321.334 122.135C334 122.135 344.8 122.801 352.667 124.268C359.334 125.601 370.934 127.468 378.534 128.668C409.734 133.601 426 140.535 452 160.135C473.334 176.135 488.8 192.668 495.467 206.535C500.4 216.801 502.667 219.601 502.667 215.468C502.667 207.868 490.534 189.335 477.2 176.535C441.2 142.135 384.8 112.135 342 104.801C327.2 102.268 299.467 102.268 284.134 104.801ZM202.267 345.601C201.867 346.535 201.6 345.868 201.6 344.001C201.6 342.135 201.867 341.468 202.267 342.268C202.534 343.201 202.534 344.801 202.267 345.601ZM203.6 352.268C203.2 353.201 202.934 352.535 202.934 350.668C202.934 348.801 203.2 348.135 203.6 348.935C203.867 349.868 203.867 351.468 203.6 352.268ZM205.867 359.335C206.534 362.268 206.4 362.801 205.334 361.335C204.667 360.268 204 358.135 204 356.801C204 353.335 204.8 354.401 205.867 359.335Z" fill="#423D33"/>
<path d="M453.6 117.735C453.867 118.668 459.067 123.868 465.333 129.335C488.267 149.068 490 151.201 496.533 166.535C517.6 216.135 526.667 239.201 526.667 243.068C526.667 243.735 524.267 241.201 521.467 237.601C516.8 231.735 497.733 217.335 494.533 217.335C491.2 217.335 494 221.068 499.733 224.268C509.733 229.868 517.2 237.068 524.133 247.601C533.467 262.001 540.8 278.001 544.8 292.801C547.867 304.401 548.4 308.801 548.533 328.001C548.667 352.935 546.8 364.801 539.467 386.535C530.667 412.535 521.067 427.735 496.667 455.335C456.8 500.268 433.333 517.868 396.933 530.001C369.2 539.201 341.6 542.801 296.133 543.068C267.867 543.335 265.467 543.201 256.667 540.268C232.533 532.135 212.533 520.268 196.933 504.668C160.933 468.668 133.6 419.201 125.867 376.268C123.2 360.801 123.333 323.201 126.133 304.268C128.4 288.935 134.267 268.668 139.6 258.001C144.533 248.268 154.267 233.335 158.933 228.401C163.867 223.335 162.8 219.468 157.733 224.268C152.133 229.468 140 248.801 134.533 261.335C117.2 300.401 114.933 360.135 129.2 403.468C137.867 430.001 157.6 464.935 177.6 488.668C196.267 511.068 212.667 524.668 231.467 533.468C237.067 536.135 238.267 537.201 238.133 539.868C237.867 546.135 255.867 555.068 278.933 560.135C296.267 564.001 349.067 565.201 368.667 562.135C401.2 557.201 440.533 542.268 467.333 524.668C491.6 508.801 523.867 475.468 543.333 446.001C568 408.668 576.667 374.401 573.333 327.735C569.6 273.868 561.333 248.935 532.4 204.668C524.267 192.135 514.4 176.935 510.4 170.801C502.933 159.068 490.533 146.268 468.667 127.468C455.467 116.135 452.667 114.401 453.6 117.735ZM504.933 168.668C507.067 171.601 512.133 179.335 516 186.001C520 192.535 527.467 204.268 532.8 212.001C558.4 249.468 568 281.468 570.133 336.001C571.467 370.668 566.8 394.535 553.067 422.001C536.8 454.401 502.533 494.535 471.467 517.735C450.133 533.468 407.067 551.335 375.733 557.468C348.267 562.801 302.667 562.001 276.133 555.868C263.6 552.935 242 543.468 243.2 541.468C243.733 540.668 246.933 541.201 251.467 542.668C263.733 546.935 276.133 547.735 309.467 546.535C359.867 544.801 390.933 538.668 419.333 524.801C446.133 511.601 464.933 496.001 496 461.201C519.2 435.201 525.333 426.801 533.867 409.601C546 385.468 552 359.068 552 330.668C552 302.801 548 284.135 537.333 263.468C534.4 257.601 532 251.735 532 250.401C532 246.801 524.8 224.935 518.8 210.668C516 203.735 510.267 189.868 506.133 180.001C502 170.135 498.667 161.735 498.667 161.468C498.667 160.668 499.867 162.135 504.933 168.668Z" fill="#423D33"/>
<path d="M304.667 162.268C279.867 168.401 251.734 183.468 233.467 200.535C225.2 208.135 209.334 228.135 210.134 229.601C210.8 230.535 213.2 228.535 216.534 224.535C240.534 195.601 265.867 177.868 296.4 168.668C304 166.401 309.334 164.001 309.334 163.068C309.334 161.201 309.067 161.201 304.667 162.268Z" fill="#423D33"/>
<path d="M336.666 167.335C323.733 169.335 312.4 172.268 299.6 176.935C287.466 181.201 274.666 187.601 274.666 189.335C274.666 191.468 275.866 191.068 290 184.801C304.266 178.668 323.066 173.068 337.866 170.535C352.4 168.135 378.133 169.735 392.666 173.868C408.266 178.401 438.8 193.735 454 204.668C484.533 226.535 506.8 255.335 514.933 283.468C517.733 292.935 518 296.535 517.866 320.001C517.733 356.268 516.8 359.735 499.866 389.335C483.6 417.468 475.733 428.135 459.2 443.868C429.2 472.535 388.266 493.868 350.133 500.668C339.466 502.668 332.933 502.935 315.466 502.268C293.066 501.335 282.8 499.735 264 494.268C240.933 487.468 219.333 477.468 202.933 465.868C191.733 457.735 172 438.801 164.533 428.801C143.866 401.468 129.866 349.468 132.666 310.935C133.2 303.201 133.066 298.668 132.266 298.668C130 298.668 129.333 304.135 129.333 322.268C129.333 363.201 143.066 407.601 164 434.001C202.533 482.401 272.4 511.068 338 505.468C356.8 503.868 369.466 500.801 388.266 493.335C417.066 482.135 442 465.868 464 444.001C480 428.135 486.533 419.468 500.133 395.868C511.466 376.268 512.133 375.335 511.066 382.135C508.4 399.601 498 426.135 485.866 446.801C481.2 454.668 479.066 459.601 479.866 460.401C482.8 463.335 500.266 430.268 508 406.801C510.8 398.268 514.133 385.335 515.2 378.001C516.4 370.668 518.133 359.735 519.333 353.601C524.666 324.401 522.8 293.335 514.666 272.135C493.6 217.468 415.866 164.668 357.466 165.468C351.866 165.601 342.533 166.401 336.666 167.335Z" fill="#423D33"/>
<path d="M120.4 194.268C102.4 221.735 73.3332 294.135 69.3332 320.801C68.5332 326.668 66.3999 335.868 64.5332 341.335C57.1999 363.468 55.7332 387.201 60.6666 406.001C63.1999 416.135 72.9332 436.001 79.4666 444.535C82.1332 448.135 87.7332 457.201 91.7332 464.535C101.6 482.935 110.533 495.468 124 510.268C130.267 517.201 137.6 525.601 140.4 529.068C155.867 548.135 165.467 555.068 193.2 567.468C227.733 582.801 255.467 591.601 286 596.935C306.533 600.535 359.067 600.135 380.667 596.268C423.733 588.668 458 574.135 488.8 550.801C498 543.735 509.6 535.601 514.533 532.668C524.267 526.801 560.8 492.135 566.4 483.468C571.6 475.201 582 453.735 587.067 440.535C598.933 409.735 603.6 383.601 605.2 339.201C606.4 305.201 605.6 288.001 602.133 273.068C599.733 262.801 594.133 246.935 589.733 238.001C583.067 224.535 566 197.335 564.4 197.335C563.467 197.335 562.667 197.735 562.667 198.135C562.667 198.535 566.8 205.601 571.867 214.001C600.267 260.268 605.2 283.201 601.6 350.001C599.2 393.868 591.067 426.001 573.2 462.668L563.733 482.001L543.467 502.401C529.467 516.535 520.4 524.668 513.733 528.668C508.4 531.868 499.467 538.268 493.867 542.668C468.933 562.535 450.533 572.535 420.533 582.535C377.333 596.935 331.867 600.268 282.667 592.535C257.733 588.668 224.533 578.001 205.333 567.735C191.6 560.535 168.8 545.068 152.133 531.868C134.4 517.868 108.133 486.801 97.3332 467.201C93.3332 459.868 86.1332 448.001 81.1999 440.668C66.7999 419.201 61.4666 403.201 61.3332 381.735C61.3332 371.201 64.6666 349.868 66.6666 347.601C67.1999 347.068 67.9999 351.068 68.3999 356.535C69.4666 368.535 76.2666 390.401 86.1332 413.335C93.5999 430.668 119.867 480.001 121.733 480.001C124.133 480.001 122 474.668 113.2 459.201C95.0666 427.068 79.0666 390.268 73.9999 368.935C70.6666 354.668 70.1332 336.935 72.6666 322.135C77.9999 290.935 109.2 214.935 126 192.268C132.667 183.068 132.8 182.668 130 182.668C128.8 182.668 124.533 187.868 120.4 194.268ZM176.667 554.935C177.467 555.735 175.6 555.068 172.667 553.601C166.667 550.668 153.333 540.135 153.333 538.401C153.333 537.468 173.467 551.735 176.667 554.935Z" fill="#423D33"/>
<path d="M277.733 215.201C254.8 232.535 238.4 256.535 234.533 278.668C233.733 282.668 232.267 288.001 231.067 290.535C228.267 296.668 226.933 314.801 228.267 329.335C229.467 342.401 238.933 375.201 244.933 387.201C257.067 411.201 276.133 428.801 300.667 438.535C306.533 440.801 312.4 443.335 313.6 444.001C316.933 445.868 320 445.601 320 443.601C320 442.668 316.533 440.801 312.4 439.468C301.333 436.001 283.2 426.401 274.8 419.468C265.867 412.135 257.2 401.735 251.333 391.335C244.267 378.935 244.267 377.201 251.333 386.535C259.333 397.068 275.6 411.068 285.733 416.268C304.667 425.735 333.867 428.535 357.333 422.935C372 419.468 377.067 417.468 374.933 416.135C374.133 415.601 367.733 416.668 361.067 418.401C346.4 422.135 320.533 423.068 307.333 420.135C275.067 413.201 244.4 381.335 234.4 344.268C232.267 336.401 231.6 329.868 231.6 316.668C231.467 297.201 233.6 287.468 235.067 300.135C238 325.335 261.733 366.001 285.2 386.268C308.267 406.001 331.733 411.868 359.467 404.535C370.267 401.735 379.467 397.601 377.867 396.001C377.2 395.335 372.267 396.401 365.333 398.935C355.067 402.668 352.4 403.068 338 403.201C320 403.335 313.067 401.468 299.733 392.935C282.533 382.001 262 357.068 248.933 331.335C237.867 309.735 234.667 282.535 241.2 266.268C248.8 247.201 264.8 228.801 287.867 212.401C288.267 212.135 287.867 211.335 287.067 210.535C286.133 209.601 283.2 211.068 277.733 215.201Z" fill="#423D33"/>
<path d="M320.534 233.201C297.067 236.934 279.067 250.134 268.267 271.601C261.6 285.068 258 303.068 259.334 316.668C260.8 333.335 267.067 355.734 270.8 358.001C273.334 359.601 273.734 357.468 271.6 353.068C270.4 350.534 268.134 343.868 266.4 338.001C262.4 323.868 262.134 297.868 265.867 286.668C274.934 259.734 292.267 242.934 315.6 238.001C343.867 232.001 372.267 239.601 391.2 258.134C412.934 279.201 423.734 323.601 413.067 346.934C405.6 363.068 392.8 376.001 376.667 383.601C368.934 387.201 368 387.334 346 387.334C320.667 387.334 316.134 386.135 304.534 376.668C288.534 363.601 274.267 326.268 276.4 303.068C278.4 282.268 293.734 265.734 318.534 257.734C327.734 254.801 353.334 254.134 365.067 256.401C370.4 257.468 375.067 257.734 375.467 257.201C376.667 255.201 371.467 253.601 358.934 252.001C315.2 246.401 278.667 266.401 273.467 298.801C271.734 309.068 274 326.134 278.934 340.935C288.267 369.068 304.934 386.668 325.867 390.535C335.867 392.401 356 392.401 365.467 390.668C382.534 387.468 403.067 372.401 412.267 356.401C416.8 348.535 417.067 351.201 412.667 364.401C406.934 381.868 393.6 402.001 382 410.135C377.067 413.601 378.267 415.601 383.6 412.935C392.8 408.001 407.2 388.401 413.734 371.868C420.267 355.601 421.6 346.401 420.934 326.668C419.867 295.734 411.334 273.868 393.334 256.001C382 244.668 371.334 238.401 358.534 235.468C347.467 232.934 329.2 231.868 320.534 233.201Z" fill="#423D33"/>
<path d="M608.933 361.201C610.933 385.468 601.6 427.068 587.733 455.468C582.667 465.868 581.867 469.468 585.2 467.468C586.667 466.535 593.333 452.801 597.6 442.001C606.667 419.201 610.667 399.335 611.6 372.935C612.267 354.401 612.133 352.001 610.267 352.001C608.533 352.001 608.267 353.335 608.933 361.201Z" fill="#423D33"/>
<path d="M610.666 465.868C601.333 468.535 595.466 471.335 585.733 477.868C573.866 485.601 569.066 490.135 556.533 505.335C519.333 550.535 480 575.735 421.066 592.135C410.533 595.068 405.333 597.068 405.333 598.268C405.333 599.468 406.266 599.868 407.733 599.468C408.933 599.201 414.8 597.601 420.666 596.001C481.6 579.201 521.066 554.135 559.6 507.201C580.4 482.001 599.066 470.135 621.2 468.268C627.333 467.735 631.333 466.668 631.733 465.601C632.4 463.468 618.933 463.601 610.666 465.868Z" fill="#423D33"/>
</g>
<defs>
<clipPath id="clip0_294_416">
<rect width="682.667" height="682.667" fill="white"/>
</clipPath>
</defs>
</svg>
