<svg width="600" height="600" viewBox="0 0 600 600" fill="none" xmlns="http://www.w3.org/2000/svg">
<path d="M76.8762 480.03C131.646 541 188 521 245 521C256.813 521 417 531 461 514C472.371 509.607 498.684 499.054 513.5 479.5C546 436.607 528.221 419.962 524.5 415C496 377 501.342 436.607 501.342 436.607C501.342 436.607 448.015 444.364 413.482 448.478C383.552 452.044 366.96 455.04 336.462 456.6C296.731 458.633 273.676 458.397 234.339 454.726C192.803 450.85 173.092 432.452 131.646 436.607C104.78 439.301 78.789 440.561 70.0299 454.726C64.1793 464.188 69.7446 472.091 76.8762 480.03Z" fill="#423D33" fill-opacity="0.1"/>
<path d="M545.694 131.959C502.63 -5.44681 191.5 12.5 129.5 52.5C114.85 61.9518 92.7136 62.3165 84 78C76.1257 92.1725 120.233 142.423 106.5 153C99.842 158.128 95.9246 186.889 91.4999 193.5C78.8762 212.362 121.647 202.879 121.647 202.879C121.647 202.879 174.886 190.439 209.375 183.777C239.268 178.003 255.823 173.239 286.315 170.536C326.039 167.014 349.112 167.142 388.53 172.372C430.151 177.895 450.162 205.914 491.568 199.119C518.408 194.713 544.395 192.517 552.939 170.701C558.645 156.128 550.334 146.765 545.694 131.959Z" fill="#A7D8F0" fill-opacity="0.1"/>
<path d="M337.821 341.31C342.955 336.515 358.859 388.972 340.077 390.735C329.453 391.732 315.004 390.622 325.842 374.869C332.977 364.499 329.089 349.464 337.821 341.31Z" fill="#FF8E8E" fill-opacity="0.2"/>
<path d="M319.617 343.362C324.656 338.503 339.435 384.127 320.998 385.913C310.57 386.924 317.052 378.962 312.542 369.694C306.999 358.301 311.046 351.627 319.617 343.362Z" fill="#E3B646" fill-opacity="0.2"/>
<path d="M309.323 345.154C309.323 349.583 318 388.212 318 388.212C318 388.212 274.476 392.894 287.397 379.433C295.903 370.571 309.323 333.804 309.323 345.154Z" fill="#D68A59" fill-opacity="0.3"/>
<path d="M484.677 164.768C478.602 154.696 468.331 143.689 481.13 138.898C497.498 132.771 502.412 142.694 507.603 151.4C510.721 156.629 523.527 168.041 512.783 171.29C498.714 175.545 488.612 171.29 484.677 164.768Z" fill="#7B9361" fill-opacity="0.2"/>
<path d="M496.786 247.93C490.648 237.788 450.858 234.196 463.446 214.934C473.012 200.295 493.867 216.273 499.111 225.04C502.261 230.306 518.103 250.953 507.25 254.225C493.039 258.51 500.76 254.498 496.786 247.93Z" fill="#7B9361" fill-opacity="0.2"/>
<path d="M149.589 227.699C149.589 231.117 110.007 204.094 146.36 212.681C155.646 214.874 164.822 197.748 170.111 206.519C173.287 211.786 179.884 215.839 168.938 219.112C154.605 223.399 149.589 220.052 149.589 227.699Z" fill="#7B9361" fill-opacity="0.2"/>
<path d="M156.246 264.339C153.29 265.992 139.455 266.414 165.939 242.019C175.631 233.091 192.153 225.101 197.296 233.65C200.385 238.784 192.863 244.805 183.444 250.612C164.798 262.107 160.237 262.107 156.246 264.339Z" fill="#7B9361" fill-opacity="0.2"/>
<path d="M138.377 135.439C149.804 132.637 155.72 123.557 169.285 123.557C177.188 123.557 154.422 158.724 144.562 161.089C138.639 162.509 123.976 171.295 123.971 160.16C123.965 145.578 130.977 137.253 138.377 135.439Z" fill="#7B9361" fill-opacity="0.2"/>
<path d="M48.9361 175.994C41.4188 166.943 43.7273 143.456 54.6482 151.503C65.4849 159.488 76.0431 167.939 75.2413 178.048C74.7597 184.119 74.0398 189.715 63.7739 193.708C50.1838 198.993 54.6482 182.871 48.9361 175.994Z" fill="#7B9361" fill-opacity="0.2"/>
<path d="M48.4238 106.826C49.2945 95.0931 47.2989 80.2053 60.446 83.5473C77.2582 87.8211 75.5308 98.7716 74.729 108.88C74.2474 114.951 78.0666 131.613 67.4758 128.172C53.6075 123.668 47.8599 114.425 48.4238 106.826Z" fill="#7B9361" fill-opacity="0.2"/>
<path d="M443.677 105.539C437.602 95.1876 427.331 83.8752 440.13 78.9506C456.498 72.6532 461.412 82.8519 466.603 91.8001C469.721 97.1745 482.527 108.903 471.783 112.243C457.714 116.616 447.612 112.243 443.677 105.539Z" fill="#7B9361" fill-opacity="0.2"/>
<path d="M562.465 156.362C556.331 146.073 543.372 133.686 557.033 131.597C573.506 129.078 584.716 134.736 582.222 144.752C580.681 150.94 590.746 162.331 579.898 165.65C565.693 169.997 566.438 163.025 562.465 156.362Z" fill="#7B9361" fill-opacity="0.2"/>
<path d="M556.576 106.285C563.076 96.4785 583.915 83.7568 583.915 97.3221C583.915 99.033 580.726 114.084 570.797 116.143C564.662 117.415 561.101 124.698 555.768 125.66C550.435 126.622 552.367 112.636 556.576 106.285Z" fill="#7B9361" fill-opacity="0.2"/>
<path d="M484.785 102.869C478.734 92.6801 469.636 91.779 474.268 78.9193C478.48 67.2267 500.44 84.4922 497.394 94.2455C495.301 100.949 512.106 111.654 501.406 114.941C487.395 119.245 488.703 109.467 484.785 102.869Z" fill="#7B9361" fill-opacity="0.2"/>
<path d="M111.118 77.5239C110.766 77.8821 111.353 80.5092 112.291 83.1363C113.346 86.1216 114.167 91.9728 114.167 97.227C114.285 108.332 110.884 116.452 102.909 124.334C98.3352 128.991 97.7488 129.23 98.1007 126.722C99.8598 113.109 102.323 82.6587 101.736 81.9422C101.267 81.4645 100.446 81.7034 99.8598 82.3004C98.9216 83.2557 95.5206 111.318 94.4651 126.005C94.1133 129.707 92.1196 135.559 88.4841 143.082C85.4349 149.291 82.8548 154.306 82.6203 154.067C82.503 153.948 81.4475 147.38 80.392 139.499C79.3366 131.737 77.4602 122.304 76.1701 118.721C74.9974 115.02 73.9419 110.124 73.9419 107.616C73.9419 99.9735 69.4855 90.0622 63.1526 83.6139C59.7516 80.151 56.7024 78.0015 55.4124 78.2404C52.5978 78.8374 42.7466 102.72 41.1047 113.228C39.4629 123.498 40.4011 132.812 43.9194 140.693C46.0303 145.47 46.3821 147.5 45.4439 150.843C43.4502 158.725 45.2094 167.8 51.425 181.891L57.4061 195.145L54.2396 200.4C52.4805 203.266 50.4868 205.773 49.7831 205.773C48.6104 205.773 43.4503 185.712 43.4503 180.816C43.4503 179.383 42.6293 178.308 41.6911 178.308C40.7529 178.308 39.932 179.264 39.932 180.338C39.932 183.562 43.2157 200.041 44.5057 203.624C45.0921 205.296 45.6785 215.684 45.6785 226.79C45.7958 237.776 46.0303 249.598 46.3821 252.822C48.4931 271.809 49.7831 280.526 52.4805 291.631C54.826 301.901 55.1778 304.647 54.0051 307.155C51.6595 312.409 53.6532 357.905 57.1715 380.713C58.8134 391.221 60.5725 400.655 61.0416 401.61C61.7453 402.924 64.0907 403.401 69.6027 403.401C76.0529 403.401 77.6947 403.879 80.2748 406.267C81.9166 407.939 83.3239 409.85 83.3239 410.566C83.3239 411.88 53.3014 419.283 45.3267 419.761C42.7466 420 9.35183 424.478 9 425.194C12.9581 429.672 52.4804 423.224 66.319 419.642C73.4728 417.731 79.4538 416.417 79.6884 416.656C80.0402 417.014 78.8675 418.686 77.2256 420.477C72.7691 425.254 70.5409 430.389 69.72 437.673C67.9608 453.435 79.4538 468.123 104.082 481.975C117.92 489.737 122.377 491.409 148.764 499.529C165.417 504.663 175.385 504.663 194.149 499.051C220.888 491.289 226.752 491.05 263.342 495.349C279.878 497.379 283.983 498.454 302.629 506.216C321.863 514.097 332.417 515.411 349.071 511.948C355.638 510.515 361.15 510.156 368.773 510.753C407.943 513.5 413.338 513.142 433.04 506.574C447.23 501.917 486.283 482.93 495.783 476.124L503.758 470.511L514.899 471.586C539.409 473.736 551.02 471.944 557.587 465.018C562.395 459.884 562.63 454.988 558.291 445.315C556.297 440.897 554.89 436.956 555.242 436.598C555.476 436.24 560.167 437.434 565.562 439.106C574.592 441.852 578.462 441.852 576.586 438.867C576.234 438.27 571.191 436.479 565.327 434.926C552.779 431.583 553.482 434.21 557.587 405.193C560.519 385.37 565.327 340.351 565.327 333.425C565.327 331.037 564.858 329.963 563.803 330.201C562.864 330.56 561.574 338.68 559.933 355.756C556.883 386.564 551.02 430.269 549.847 430.269C547.97 430.269 541.638 423.582 538.706 418.686C535.305 412.716 535.305 416.417 538.94 377.489C539.878 367.219 540.934 350.263 541.286 339.874C542.107 313.961 544.218 271.928 544.804 265.957C545.039 262.972 546.915 258.434 549.495 254.613C552.075 250.672 555.476 242.314 558.291 233.238C560.871 224.999 563.685 217.237 564.624 215.923C566.266 213.774 566.383 214.252 566.5 222.252C566.5 227.029 565.21 240.522 563.568 252.105C561.105 270.853 559.581 283.75 557.704 304.528C557.118 310.259 558.408 313.603 559.933 310.976C560.402 310.379 561.692 299.751 562.982 287.332C564.272 275.033 566.383 257.36 567.673 248.165C568.963 238.97 570.018 226.312 570.018 219.983C570.018 209.475 570.37 207.923 573.654 201.355C577.876 192.877 579.635 181.771 577.993 172.576C577.055 167.203 577.172 165.651 579.049 163.023C580.925 160.277 581.16 157.411 580.925 142.246C580.69 120.274 578.814 103.078 576.234 100.69C574.592 99.0182 574.475 99.4958 575.178 104.869C576.703 117.766 578.228 150.485 577.524 155.262C575.765 167.322 569.549 161.352 569.432 147.739C569.432 138.663 567.438 136.036 558.877 133.528C552.075 131.498 547.736 128.035 547.736 124.692C547.736 123.259 549.847 121.229 553.365 119.199C562.395 113.825 571.191 104.272 571.191 99.6153C571.191 97.4658 567.556 94.7194 564.741 94.7194C558.525 94.7194 543.045 110.243 543.045 116.572C543.045 117.527 540.582 120.035 537.533 121.945C530.848 126.364 525.454 128.513 525.454 126.961C525.454 125.17 528.151 119.796 529.089 119.796C531.083 119.796 541.989 110.004 543.631 106.661C544.569 104.75 545.39 101.287 545.39 99.0182C545.39 95.0776 545.625 94.8387 549.847 94.1223C562.747 92.2117 570.018 89.107 570.018 85.7634C570.018 83.3751 568.611 83.4945 563.568 86.4799C561.105 88.0322 556.063 89.4652 551.723 89.8234C545.039 90.5399 543.866 90.4205 542.928 88.5099C541.286 85.4051 535.891 82.8975 533.076 83.9722C531.669 84.4499 529.206 87.0769 527.447 89.8234C524.633 94.1223 523.694 94.7194 519.707 94.7194C515.368 94.7194 515.133 94.4805 514.43 90.1817C513.491 84.0916 507.979 78.5986 503.875 79.6733C500.239 80.6286 497.307 85.8828 497.307 91.3758V95.3164L492.03 94.9582C487.573 94.5999 486.401 93.8835 484.993 91.137C483.117 87.3158 476.432 81.2257 471.507 78.5986C461.773 73.4639 458.724 88.8681 467.637 97.3464C469.513 99.0182 472.328 102.004 474.204 104.034L477.371 107.616L474.204 110.124C466.816 116.094 463.884 114.661 460.483 103.556C458.606 97.4658 456.143 94.8387 437.966 79.7927C431.046 74.0609 428.818 85.4051 433.861 100.929C437.614 112.512 444.064 117.288 457.433 118.363C462.242 118.721 466.229 119.796 468.223 121.229C473.031 124.573 480.537 126.961 486.87 126.961C492.382 126.961 492.734 127.2 497.425 133.17C500.122 136.633 503.523 142.126 505.048 145.47C507.628 151.202 510.794 166.248 509.621 167.442C509.269 167.681 503.288 162.307 496.369 155.381C483.703 142.604 478.895 139.619 475.611 142.484C472.914 144.753 473.5 149.649 477.253 156.217C481.944 164.576 487.925 168.516 499.418 170.785L508.8 172.696L512.553 192.28C518.534 224.521 522.522 234.552 534.132 247.329C541.989 256.046 541.989 256.046 540.699 275.152C539.996 284.466 539.058 306.438 538.354 323.872C537.416 352.293 534.249 397.192 532.959 401.371C532.725 402.327 528.972 397.789 524.633 391.221C520.411 384.773 515.133 377.011 513.022 373.906C511.029 370.802 508.214 364.473 506.807 359.816C501.412 341.904 486.284 316.588 470.099 298.318C463.063 290.437 462.124 288.526 454.032 267.868C443.829 241.597 441.367 237.298 434.799 234.432C428.818 231.925 412.165 230.253 410.992 232.163C409.702 234.432 413.103 235.626 420.843 235.626C429.17 235.626 434.447 237.537 438.435 241.836C440.663 244.344 457.902 285.66 457.082 286.496C456.847 286.735 449.107 282.675 439.842 277.421C420.961 267.032 416.621 262.972 412.751 252.464C408.764 241.478 407.826 233.358 409.233 222.013C410.992 208.759 413.455 200.758 417.091 196.22C421.195 191.324 424.831 191.563 431.281 197.414C435.737 201.355 437.496 202.191 441.601 202.191C447.817 202.191 450.514 204.699 447.582 207.923C446.644 209.117 445.471 211.983 445.119 214.252C444.65 216.52 443.829 220.222 443.126 222.73C441.367 228.7 442.774 234.432 447.23 239.925C449.341 242.433 454.15 251.269 457.902 259.509C461.655 267.748 465.995 275.869 467.519 277.54C472.679 283.153 480.537 286.257 489.919 286.496C494.727 286.496 499.184 287.213 500.122 288.049C502.702 290.198 506.455 301.303 509.152 314.439C511.146 323.992 511.38 328.291 510.794 342.023C510.208 353.367 510.442 358.622 511.263 359.219C513.14 360.293 513.491 358.741 515.485 341.068C516.541 331.276 518.534 321.126 520.763 314.2C526.274 296.646 530.965 270.973 528.972 269.659C527.447 268.704 525.923 272.764 524.867 281.003C523.812 289.482 520.176 304.528 516.892 314.797L514.195 322.798L512.788 314.678C510.56 301.184 506.103 289.243 501.764 285.302C498.48 282.317 497.894 280.884 497.542 275.152C497.425 271.45 498.011 263.808 499.184 258.076C500.239 252.344 500.826 245.896 500.357 243.627C499.184 237.418 493.437 229.178 488.746 226.909C486.401 225.715 484.173 223.685 483.821 222.372C482.648 218.909 476.315 215.326 471.272 215.326C468.575 215.326 465.291 214.252 462.594 212.341C460.248 210.669 457.316 209.356 456.261 209.356C454.971 209.356 453.915 208.162 453.446 206.37C452.156 201.236 448.638 198.608 443.008 198.608C439.021 198.608 437.262 197.892 435.034 195.504C424.948 184.518 414.51 187.861 409.468 203.624C404.19 220.342 403.487 231.805 406.888 245.538C411.109 262.136 416.035 268.704 429.17 275.63C440.897 281.839 441.015 281.959 431.985 281.362C422.837 280.645 407.474 282.436 393.518 285.899C388.358 287.093 383.198 288.168 382.025 288.168C380.149 288.168 380.149 287.81 382.494 284.705C385.778 280.048 384.957 273.241 380.618 269.301C376.748 265.957 374.05 265.957 370.884 269.42C366.779 273.838 367.835 282.556 372.878 286.735C374.402 287.929 373.581 288.168 368.069 287.452C361.736 286.735 361.15 286.974 357.984 290.079C354.7 293.542 350.947 305.602 348.953 319.215C348.602 322.201 347.663 327.335 347.077 330.798L345.904 336.888L335.936 336.53L325.967 336.053L325.615 323.156C325.146 307.752 322.918 291.273 320.573 286.616C319.634 284.824 317.641 282.675 316.116 281.959C313.888 280.884 313.536 280.167 314.357 278.496C318.344 270.973 313.067 259.509 305.444 259.509C299.932 259.509 297.704 263.33 298.056 272.047C298.408 278.496 298.173 278.854 294.772 280.526C289.964 283.033 288.674 285.78 286.211 300.229C283.514 315.991 283.279 311.095 285.859 293.303C288.087 277.899 287.266 273.003 281.637 266.793C275.07 259.628 263.928 262.733 255.485 274.077C253.726 276.466 249.855 279.57 246.924 281.003C241.998 283.392 240.708 283.511 226.048 282.794C202.593 281.481 197.668 283.272 156.152 308.946C143.955 316.588 123.198 337.008 117.334 347.397L113.229 354.681L112.995 337.008C112.995 327.216 112.526 316.947 112.174 314.081L111.353 308.826L123.198 294.019C134.456 280.048 143.838 270.614 149.467 267.629C150.757 266.913 158.732 262.017 166.942 256.762C183.36 246.374 188.755 241 186.527 236.94C185.588 234.91 184.181 234.432 179.725 234.432C167.88 234.432 155.448 243.866 147.826 258.434C145.48 263.091 141.258 268.584 137.036 272.525C133.283 275.988 126.716 283.392 122.494 288.885C118.272 294.377 114.637 298.915 114.285 298.915C113.816 298.915 118.507 288.526 129.648 264.883C133.987 255.688 139.616 243.03 142.079 236.821C145.949 227.029 147.005 225.357 150.054 224.282C158.263 221.416 165.417 213.177 165.417 206.609C165.417 202.549 162.602 202.31 157.208 206.012C153.572 208.759 151.93 211.147 148.998 218.312C146.77 223.685 146.184 219.864 148.177 212.699C149.116 209.236 150.288 203.504 150.64 200.041C151.344 194.31 151.227 193.713 149.35 194.071C148.06 194.31 147.122 195.743 146.887 197.414C146.77 199.086 146.066 204.101 145.363 208.52L144.073 216.759L141.375 214.132C138.092 210.908 134.456 211.386 133.987 215.087C133.753 216.879 134.925 219.147 137.857 222.133L142.196 226.551L137.857 237.418C132.228 251.389 112.291 294.019 111.236 294.139C109.828 294.139 108.773 271.211 109.476 255.927C110.415 235.149 118.507 204.34 128.944 182.01C130.938 177.711 132.814 172.099 133.166 169.352C133.87 164.934 134.456 164.218 140.32 161.113C149.819 155.978 156.856 146.903 161.43 133.767C164.596 124.811 161.312 122.423 152.399 127.08C149.702 128.394 147.356 129.23 147.122 128.991C146.77 128.752 148.412 124.573 150.64 119.677C157.208 105.228 163.658 81.8228 161.547 79.6733C160.022 78.0015 158.498 80.8675 157.325 88.1516C155.566 97.9435 151.344 110.004 145.48 121.945C141.024 130.782 140.672 131.26 134.691 133.409C122.846 137.708 115.457 149.172 118.507 158.725C120.031 163.262 122.611 165.173 127.185 165.173C129.061 165.173 130.234 165.889 130.234 166.964C130.234 170.308 124.488 184.279 120.969 189.414C116.161 196.578 107.131 205.773 105.02 205.773C101.384 205.773 99.6252 197.892 100.446 184.995C100.915 176.517 100.681 169.113 99.2734 160.038C98.2179 152.993 97.397 144.514 97.397 141.171C97.397 135.439 97.6315 134.961 104.903 127.558C114.402 117.885 117.686 110.124 117.803 97.1076C117.92 85.644 114.167 74.4192 111.118 77.5239ZM442.07 87.9128C445.706 91.3758 450.045 95.197 451.921 96.5105C453.681 97.8241 456.026 101.526 457.316 104.869C458.489 108.094 459.896 111.795 460.365 113.109C461.304 115.139 460.952 115.258 455.557 114.422C448.051 113.348 441.484 109.765 439.373 105.705C435.972 99.0182 432.688 81.5839 434.799 81.5839C435.151 81.5839 438.435 84.4498 442.07 87.9128ZM474.673 85.0469C479.247 88.3905 483.234 93.0476 483.234 94.9582C483.234 96.1523 477.84 96.1523 472.797 95.197C468.692 94.3611 465.643 89.8234 465.643 84.5693C465.643 80.5092 468.692 80.6286 474.673 85.0469ZM61.2762 87.1963C66.7881 93.0476 70.4236 101.048 70.4236 107.855C70.4236 112.87 69.9546 113.706 65.1463 117.766C62.2144 120.274 59.3997 122.065 58.8134 121.707C58.227 121.348 57.4061 119.199 57.0542 116.93C56.5851 114.781 54.7087 109.646 52.715 105.586L49.0795 98.1823L52.3632 90.5399C54.1223 86.241 55.8815 82.7781 56.2333 82.7781C56.7024 82.7781 58.9306 84.8081 61.2762 87.1963ZM506.924 94.9582C507.979 95.6747 507.276 95.9135 504.93 95.6746C501.06 95.3164 500.122 93.0476 501.412 87.7934C502.233 84.5693 502.233 84.6887 503.758 89.2264C504.696 91.734 506.103 94.3611 506.924 94.9582ZM510.442 88.1516C511.146 89.8234 511.38 91.4952 511.029 91.8534C509.856 93.167 506.689 89.8234 506.689 87.4352C506.689 84.211 508.8 84.6887 510.442 88.1516ZM538.471 89.4652C540.348 91.734 538.237 93.5252 533.428 93.5252C529.675 93.5252 529.441 92.8087 532.138 89.704C534.484 87.0769 536.36 86.9575 538.471 89.4652ZM542.224 98.3017C542.576 99.4959 541.989 102.123 540.817 104.153C538.588 108.213 531.552 114.422 530.496 113.348C530.027 112.87 530.496 109.527 531.435 105.705C532.607 100.69 533.78 98.5405 536.008 97.4658C540.113 95.3164 541.52 95.5552 542.224 98.3017ZM521.701 98.8988C521.935 99.1376 521.349 101.645 520.411 104.511C519.473 107.258 518.3 114.064 517.831 119.557C517.01 129.349 517.01 129.468 514.43 127.797C510.56 125.17 507.041 119.318 504.227 110.482C502.819 106.064 501.412 101.765 501.06 100.929C500.708 99.9735 501.881 99.4958 504.461 99.4958C506.689 99.4958 509.269 98.8988 510.208 98.3017C511.615 97.3464 520.411 97.8241 521.701 98.8988ZM529.558 99.1376C529.089 100.332 527.916 104.511 527.095 108.452C525.571 115.736 522.287 125.886 521.114 126.961C520.176 127.797 521.818 112.99 523.225 107.258C523.929 104.631 525.219 101.287 526.157 99.7347C528.151 96.6299 530.848 96.1523 529.558 99.1376ZM498.597 104.869C502.467 115.258 502.468 115.02 499.184 115.02C497.542 115.02 495.666 114.064 495.079 112.87C494.375 111.676 492.147 109.407 489.919 107.855C486.166 105.228 486.049 104.869 487.222 101.645C488.277 98.66 488.981 98.1823 492.382 98.5406C496.017 98.8988 496.604 99.4958 498.597 104.869ZM567.673 99.3764C567.673 99.8541 566.5 102.123 564.975 104.392C562.044 108.929 547.501 119.557 546.798 117.647C545.86 114.542 553.013 105.466 560.636 100.332C563.685 98.1823 567.673 97.5852 567.673 99.3764ZM484.172 100.929C483.938 101.645 482.765 102.839 481.71 103.556C480.185 104.511 479.13 104.272 477.136 102.123L474.556 99.4958H479.599C482.883 99.4958 484.407 99.9735 484.172 100.929ZM52.3632 114.303C55.8815 124.453 55.8815 125.17 51.6595 134.245L48.2586 141.768L46.4994 137.589C43.8021 131.021 43.2157 123.378 44.623 114.542C46.6167 101.406 47.6722 101.406 52.3632 114.303ZM487.925 110.243C490.388 112.273 490.623 112.751 489.098 113.825C484.993 116.572 478.191 112.99 481.006 109.527C482.765 107.258 484.407 107.497 487.925 110.243ZM485.697 118.602C486.987 118.602 489.098 118.005 490.271 117.408C492.968 115.975 493.789 117.169 492.499 120.632C491.678 122.901 490.623 123.378 486.518 123.259C481.123 123.259 471.39 119.915 470.686 118.005C470.569 117.288 471.741 115.975 473.618 114.9C476.55 113.109 477.019 113.228 480.068 115.855C481.944 117.408 484.407 118.602 485.697 118.602ZM74.2937 125.408C78.0465 142.365 80.1575 161.471 78.6329 165.053C77.9293 166.964 77.1083 174.009 76.9911 180.816C76.7565 193.951 74.9974 199.325 69.2509 205.534C65.9671 209.117 64.6772 208.52 62.6835 202.549L61.0416 197.534L66.7881 189.772C73.2382 181.055 74.9974 175.323 72.7691 169.949C71.9482 168.039 66.6708 161.949 60.9243 156.336L50.3695 146.306L53.1841 139.977C58.3443 128.394 58.8134 127.558 64.9117 122.543C68.3127 119.796 71.3618 117.408 71.8309 117.408C72.1828 117.408 73.3555 120.99 74.2937 125.408ZM506.689 125.767C507.862 128.036 509.152 132.334 509.621 135.32C510.442 141.768 511.967 144.753 513.609 143.082C514.312 142.365 514.312 139.738 513.726 136.514C513.257 133.528 512.788 131.021 512.905 130.901C513.022 130.782 514.547 131.021 516.423 131.379C519.472 131.976 519.59 132.215 519.59 139.977C519.707 155.262 525.688 174.726 534.953 189.653C540.348 198.489 551.489 209.356 555.007 209.356C556.297 209.356 559.229 207.445 561.34 205.176L565.21 200.997V187.503C565.21 169.949 565.796 167.561 570.018 167.561C573.067 167.561 573.419 168.039 574.475 173.174C575.765 179.622 574.709 189.891 572.012 196.459C571.074 198.847 567.79 204.34 564.858 208.759C560.988 214.49 558.408 220.58 555.242 230.611C552.896 238.254 549.612 246.971 547.97 249.837L544.921 255.21L542.693 243.866C541.52 237.656 536.829 221.177 532.256 207.206C524.515 183.443 523.577 181.413 518.417 175.562C513.022 169.472 512.905 169.113 512.319 160.158C511.615 149.41 508.097 141.052 500.005 130.901C495.079 124.811 494.845 124.095 496.135 120.871L497.659 117.408L501.06 119.438C502.937 120.632 505.517 123.498 506.689 125.767ZM544.687 126.483C545.156 128.274 544.921 130.304 544.335 130.901C541.989 133.29 542.928 136.633 549.73 150.605C554.89 161.232 557.118 164.695 559.463 165.531L562.513 166.725L562.044 182.965C561.692 196.101 561.223 199.803 559.581 202.191C558.408 203.863 556.649 205.296 555.711 205.534C553.248 206.012 540.817 192.996 536.126 184.995C533.897 181.294 530.262 172.696 528.034 166.128C524.75 156.097 523.929 152.157 523.812 143.32L523.694 132.573L527.213 131.379C529.089 130.663 533.076 128.633 536.008 126.841C542.693 122.662 543.749 122.662 544.687 126.483ZM157.911 132.693C155.8 138.663 151.93 145.947 149.35 149.172C146.418 152.515 137.271 159.202 135.512 159.202C133.166 159.202 131.055 150.127 132.697 147.022C135.863 140.813 141.493 135.797 149.467 132.215C154.041 130.066 158.146 128.394 158.615 128.274C159.084 128.155 158.732 130.185 157.911 132.693ZM550.668 134.006C551.02 134.603 554.186 136.036 557.822 137.111C564.624 139.141 566.5 141.529 566.5 147.977C566.5 150.843 566.383 150.843 563.92 149.172C558.643 145.35 557.822 147.858 562.395 153.47C565.914 157.769 566.383 162.785 563.099 162.785C561.926 162.785 560.284 162.068 559.581 161.113C556.532 157.411 546.446 136.036 547.032 134.484C547.736 132.693 549.612 132.454 550.668 134.006ZM131.993 141.29C128.358 145.112 127.654 149.888 129.531 157.65C130.469 161.352 130.352 161.59 127.42 161.59C118.624 161.59 120.031 145.828 129.413 140.096C134.808 136.633 135.863 137.23 131.993 141.29ZM95.6379 159.322C96.5761 165.651 97.397 174.487 97.397 179.025V187.264L90.9468 173.771L84.4967 160.158L88.9532 150.485C92.8233 141.887 93.2923 141.171 93.6442 144.276C93.7614 146.186 94.6997 152.993 95.6379 159.322ZM491.561 155.62C497.425 161.591 501.998 166.725 501.647 167.203C500.357 168.397 492.968 166.367 489.098 163.621C483.703 159.919 478.778 153.351 477.84 148.694C476.55 142.246 479.951 143.917 491.561 155.62ZM68.7818 169.711C71.3618 173.651 70.1891 178.786 64.7944 186.309L60.338 192.518L54.5914 179.98C50.7213 171.502 48.7277 165.173 48.3758 160.874C47.4376 149.888 48.2586 149.649 58.1097 158.725C62.918 163.143 67.7263 168.039 68.7818 169.711ZM569.315 162.188C569.666 163.143 569.432 163.979 568.846 163.979C568.142 163.979 567.673 163.143 567.673 162.188C567.673 161.232 567.907 160.396 568.142 160.396C568.376 160.396 568.846 161.232 569.315 162.188ZM91.5332 183.443C95.8724 194.31 96.2242 195.504 94.9342 200.161C93.996 203.863 92.0023 206.609 87.6631 210.55C84.3794 213.535 79.2193 218.55 76.0528 221.894C73.0037 225.118 70.3063 227.506 69.9545 227.268C69.72 226.909 69.2509 223.446 69.1336 219.506C68.6645 212.819 69.0163 211.863 72.5346 207.564C78.3984 200.28 80.9784 191.921 80.9784 180.099C80.9784 174.607 81.3302 169.233 81.7993 168.158C82.3857 166.367 82.7376 166.367 84.614 168.875C85.7867 170.427 88.8359 176.995 91.5332 183.443ZM519.472 182.368C523.577 189.294 539.527 239.925 539.527 245.777C539.527 247.687 538.588 247.09 534.953 242.791C525.336 231.686 520.997 220.103 516.072 192.638C514.664 185.115 513.257 177.831 512.905 176.517C512.201 174.129 512.319 174.129 514.781 176.398C516.189 177.711 518.3 180.338 519.472 182.368ZM59.8688 204.818C59.8688 205.415 58.8134 205.773 57.5233 205.773C55.4124 205.773 55.2951 205.415 56.4679 203.266C57.5233 201.236 57.9924 200.997 58.8134 202.31C59.3997 203.266 59.8688 204.34 59.8688 204.818ZM114.285 211.147C105.841 237.776 103.964 259.031 106.896 291.989L108.186 306.319L102.792 318.141C97.0452 330.321 93.5269 342.381 92.1196 354.323C91.5332 358.741 90.8296 360.771 90.2432 359.696C88.3668 356.114 82.1512 330.082 80.392 318.26L78.6329 305.961L83.793 298.557C93.996 283.869 98.4525 271.45 101.502 249.956C102.44 242.672 103.261 230.611 103.261 223.088C103.261 210.072 103.378 209.356 105.606 209.356C106.896 209.356 109.945 207.564 112.408 205.296C114.754 203.027 116.865 201.355 116.982 201.474C117.099 201.594 115.927 206.012 114.285 211.147ZM99.1561 229.059C98.3352 259.151 94.3478 275.51 83.9103 291.87C80.9784 296.527 78.2811 300.109 78.0465 299.87C76.991 298.915 71.5964 259.867 70.6582 246.612L69.6027 233.119L77.6947 225.238C82.1512 220.819 87.5459 216.043 89.6568 214.371C91.8851 212.819 94.5824 209.714 95.7551 207.445L97.9834 203.266L98.8043 207.206C99.2734 209.356 99.508 219.147 99.1561 229.059ZM160.96 210.192C160.257 211.386 158.38 213.654 156.739 215.207C152.282 219.506 152.868 215.684 157.442 210.908C161.312 206.848 162.837 206.49 160.96 210.192ZM62.8007 211.027C65.6154 213.057 67.1399 229.178 64.4426 228.223C62.8007 227.745 52.8323 212.222 52.8323 210.311C52.8323 208.759 60.4552 209.236 62.8007 211.027ZM462.828 216.759C464.236 218.073 467.05 218.909 469.982 218.909C478.074 218.909 483.586 225.954 479.951 231.686C478.895 233.358 459.896 228.103 458.372 225.715C457.902 224.999 457.785 222.252 458.254 219.745C458.723 216.282 458.489 215.326 457.082 215.326C453.798 215.326 452.625 227.029 455.674 229.656C457.082 230.85 467.988 234.193 478.309 236.462C479.716 236.821 481.71 238.612 482.648 240.403C483.586 242.314 486.518 246.254 489.098 249.359L493.789 254.852L494.024 265.838C494.258 279.451 494.024 281.242 492.499 282.794C490.388 284.824 481.123 273.003 478.895 265.48C477.488 260.464 475.611 257.479 470.451 252.344C466.816 248.642 461.421 244.582 458.489 243.149C452.156 240.164 445.706 233.119 445.706 229.178C445.706 227.626 446.527 224.402 447.465 222.133C448.403 219.745 448.872 216.998 448.52 215.923C448.051 214.968 448.403 213.296 449.107 212.46C450.28 211.027 451.218 211.027 455.44 212.699C458.137 213.654 461.421 215.565 462.828 216.759ZM58.1097 227.387C58.4615 228.462 60.2207 230.014 61.9798 230.969C66.5536 233.358 66.9053 234.193 66.9053 242.194C66.9053 253.419 68.5472 265.838 77.4602 321.723C78.7502 329.365 81.3302 341.546 83.3239 348.83C86.8422 361.726 86.8422 362.323 85.0831 367.578C84.1449 370.563 83.3239 373.787 83.3239 374.742C83.3239 377.489 86.7249 375.459 87.5459 372.235C88.8359 366.98 90.3605 369.249 90.3605 376.533C90.3605 381.788 90.8296 383.698 92.0023 383.698C93.1751 383.698 93.7614 380.355 94.2305 369.01C94.5824 358.98 95.7551 350.86 97.7488 342.859C100.915 330.56 106.427 316.827 108.069 316.827C109.242 316.827 109.476 348.352 108.421 369.01L107.6 383.221L100.329 387.161C96.2242 389.191 90.2432 393.012 86.9595 395.52C81.0957 400.058 80.8611 400.058 72.4173 399.461C67.8435 399.222 63.8562 398.864 63.739 398.744C63.6217 398.625 62.2144 390.266 60.5725 380.116C57.5233 360.293 54.9433 309.901 57.1715 311.215C57.8752 311.692 59.2825 316.111 60.4552 321.245C66.6708 349.307 69.9545 361.607 74.7628 374.623C80.392 390.027 81.6821 392.415 82.7376 389.43C83.0894 388.475 80.8611 380.474 77.6947 371.638C74.5283 362.801 70.4236 349.188 68.6645 341.307C65.3808 326.738 62.2144 314.081 56.937 294.736C53.0669 280.884 49.5486 252.225 49.1968 233.238C48.8449 210.55 48.7277 211.266 53.4187 218.909C55.6469 222.491 57.7579 226.312 58.1097 227.387ZM141.493 219.745C140.672 220.58 138.444 218.909 138.444 217.476C138.444 216.759 139.147 216.759 140.203 217.715C141.258 218.55 141.727 219.506 141.493 219.745ZM490.623 232.88C494.493 237.179 497.307 243.985 497.307 249.478V253.777L492.499 248.045C487.808 242.314 483.352 234.193 483.234 231.089C483.234 228.581 487.339 229.536 490.623 232.88ZM183.008 239.806C183.008 241.478 167.997 252.225 154.51 260.106L148.764 263.45L152.517 257.36C159.084 246.374 170.577 238.134 179.255 238.015C181.836 238.015 183.008 238.612 183.008 239.806ZM463.532 250.911C470.451 256.524 474.79 262.375 475.729 267.629C476.198 269.778 478.309 274.077 480.42 276.943C483.586 281.242 484.055 282.197 482.296 282.197C479.716 282.197 471.155 276.346 468.223 272.644C466.933 270.973 465.526 268.346 465.057 266.674C464.587 265.002 462.359 260.106 460.248 255.688C454.619 244.344 454.971 243.985 463.532 250.911ZM310.135 265.718C312.363 268.943 312.481 273.361 310.487 277.301C308.611 281.242 306.734 281.6 303.92 278.734C301.457 276.227 300.636 269.181 302.16 265.002C303.216 262.255 308.024 262.733 310.135 265.718ZM279.643 270.376C283.983 275.63 284.334 278.376 282.341 292.706C281.285 299.751 280.113 308.826 279.761 313.006C278.94 321.126 280.699 332.47 283.279 336.65C284.804 339.157 284.686 339.277 278.822 339.993C266.978 341.426 266.274 341.187 266.274 336.769C266.274 332.59 257.009 315.633 250.207 307.274C247.275 303.811 246.806 302.259 247.275 298.557C247.627 295.094 247.158 293.064 245.399 290.556L242.936 287.213L246.689 285.66C248.8 284.824 254.546 280.167 259.472 275.391C267.095 267.987 269.089 266.674 272.49 266.674C275.656 266.674 277.298 267.51 279.643 270.376ZM379.914 273.958C381.908 277.54 380.852 283.153 378.038 284.227C373.816 285.899 369.711 275.271 373.229 271.689C375.34 269.54 377.92 270.376 379.914 273.958ZM308.728 283.75C315.295 283.272 318.344 287.69 319.986 300.229C322.215 317.066 322.918 329.604 321.745 330.321C319.869 331.515 317.641 321.842 316.82 309.065C316.468 302.378 315.647 297.124 314.943 297.124C312.598 297.124 312.95 316.588 315.53 326.619C316.82 331.873 317.758 336.53 317.406 336.769C316.351 337.844 293.599 339.874 291.606 339.157C289.143 338.202 289.26 336.65 293.013 322.201C295.827 311.692 296.883 299.751 295.007 299.154C294.42 298.915 292.896 304.05 291.84 310.498C290.667 316.947 289.025 324.589 288.087 327.574L286.445 332.948L286.328 327.694C286.211 321.484 290.433 293.78 292.309 289.004C293.834 284.944 298.759 281.959 302.043 283.153C303.333 283.511 306.382 283.869 308.728 283.75ZM447.582 287.452C457.199 290.079 459.193 291.989 461.538 301.065C462.711 305.483 465.408 314.678 467.637 321.484C469.748 328.291 471.39 334.023 471.155 334.261C471.038 334.381 465.408 329.604 458.723 323.514C448.872 314.558 446.175 311.334 444.416 306.558C440.546 296.049 434.213 293.661 427.88 300.229C424.362 303.692 424.362 304.05 425.065 311.454C426.121 322.439 427.528 325.664 432.219 327.932C436.089 329.843 436.324 330.321 436.324 335.694C436.324 340.471 435.855 341.784 433.744 342.859C429.756 344.889 400.437 345.247 394.925 343.337C390.821 341.784 390.703 341.546 392.345 339.157C393.401 337.605 394.104 333.903 394.104 329.963C394.104 320.171 390.821 301.781 388.241 296.527L385.895 291.87L390.234 290.676C395.043 289.362 410.054 286.257 415.8 285.302C421.782 284.466 441.249 285.66 447.582 287.452ZM227.925 286.496L236.838 287.332L234.023 290.795C232.381 292.706 231.091 295.333 231.091 296.646C231.091 297.96 229.215 300.109 226.4 301.901C223.468 303.811 220.654 307.035 218.777 310.737C216.08 316.23 211.741 331.515 210.92 338.321C210.568 341.068 209.982 341.307 204.47 341.665C197.199 342.143 197.081 341.665 200.013 329.365C200.951 325.425 201.772 320.29 201.772 318.021C201.772 308.707 194.619 300.945 184.416 299.393L179.021 298.557L188.755 293.9C204.822 286.257 210.803 285.063 227.925 286.496ZM242.936 293.064C244.461 296.169 242.232 305.961 239.652 306.916C234.727 308.826 232.499 297.482 236.955 292.945C239.887 289.959 241.294 289.959 242.936 293.064ZM367.131 291.392C367.131 291.989 366.076 293.9 364.903 295.81C363.261 298.318 362.44 302.498 361.854 310.737C360.915 323.275 358.218 331.515 353.527 336.053C352.003 337.486 350.478 338.441 350.126 338.202C349.422 337.366 353.879 310.737 356.224 302.259C358.218 294.736 361.267 290.556 364.786 290.556C366.076 290.556 367.131 290.915 367.131 291.392ZM381.204 293.542C385.426 295.81 387.654 302.498 389.531 319.693C391.055 332.231 390.234 341.665 388.123 336.291C387.654 334.739 386.599 328.888 385.895 323.156C384.253 309.304 383.784 307.274 382.142 307.274C380.501 307.274 381.791 325.783 384.019 334.858C384.957 338.441 385.543 341.426 385.426 341.546C385.192 341.784 382.142 342.501 378.507 343.217C373.581 344.292 371.47 344.292 370.298 343.217C366.31 339.993 364.316 306.319 367.6 298.438C370.298 291.87 374.871 290.198 381.204 293.542ZM473.5 308.11C485.58 323.514 496.252 341.068 500.826 353.129L502.116 356.592L497.307 352.173C494.727 349.785 488.981 345.486 484.524 342.62C476.784 337.605 476.55 337.127 473.618 328.649C471.859 323.753 469.396 315.752 467.989 310.856C466.581 305.961 465.174 300.945 464.939 299.751C464.587 298.676 464.47 297.721 464.822 297.721C465.057 297.721 468.927 302.378 473.5 308.11ZM437.145 301.065C437.848 301.542 439.842 305.244 441.601 309.185C443.829 314.558 446.058 317.544 450.162 320.648C454.619 323.992 456.964 327.455 462.359 337.844C472.093 356.95 475.142 368.533 475.846 389.191C477.019 422.507 470.803 430.269 443.008 430.269C425.183 430.269 403.956 423.582 396.685 415.581C395.16 413.91 393.635 410.447 393.284 407.82C392.697 403.76 393.166 402.446 395.629 399.938C399.616 395.998 402.431 395.998 404.777 400.177C406.184 402.804 410.289 405.073 423.541 410.924C432.805 414.984 440.78 418.328 441.367 418.328C441.836 418.328 442.188 417.611 442.188 416.656C442.188 415.343 434.096 411.163 414.745 402.924C411.579 401.491 409.233 400.058 409.585 399.819C409.937 399.461 412.634 400.297 415.683 401.61C428.935 407.342 442.305 402.327 448.52 389.311C452.391 381.31 453.915 370.563 451.218 370.563C449.928 370.563 449.224 372.235 448.638 376.175C446.292 393.729 432.336 404.357 419.319 398.625L414.628 396.714L418.498 395.042C428.818 390.505 435.855 381.429 440.428 366.622C443.478 356.83 444.064 347.994 442.188 340.829C441.601 338.441 440.546 334.261 439.842 331.395C438.787 327.335 437.848 326.022 434.682 324.708C431.281 323.275 430.577 322.201 429.404 316.827C427.294 306.677 428.114 302.617 432.805 300.945C435.268 299.99 435.62 299.99 437.145 301.065ZM191.218 305.483C195.088 307.513 198.254 312.767 198.254 317.185C198.254 318.738 197.199 325.067 195.909 331.276C194.619 337.486 193.563 342.74 193.563 343.098C193.563 343.456 191.921 344.77 189.928 345.964C187.23 347.516 185.119 347.874 181.484 347.397C173.861 346.203 173.04 345.367 174.799 340.113C177.965 330.201 173.509 320.409 165.651 320.409C159.436 320.409 155.214 324.231 152.986 331.993C151.461 337.247 149.35 340.471 142.665 347.874C137.974 353.009 132.111 361.129 129.648 365.906C125.309 374.026 124.488 374.862 118.507 377.25L112.056 379.877L111.705 375.817C111.236 370.682 114.988 358.98 119.797 350.382C124.722 341.665 143.604 321.962 153.689 315.155C166.003 306.677 173.157 303.692 181.015 303.692C184.767 303.692 189.341 304.528 191.218 305.483ZM234.258 308.707C238.245 312.648 238.245 312.648 241.763 310.498C243.757 309.424 245.751 308.468 246.337 308.468C246.923 308.468 250.794 314.2 255.133 321.126C263.225 334.381 264.749 340.113 259.941 340.113C258.182 340.113 257.127 338.321 255.133 332.47C252.67 324.947 249.855 321.484 249.855 326.022C249.855 327.335 251.028 331.634 252.318 335.814C255.133 344.292 254.546 347.516 249.269 350.979C245.634 353.367 239.066 352.412 235.548 348.83C233.32 346.561 233.202 345.486 233.906 334.381C234.258 327.813 234.961 321.245 235.313 319.693C235.782 317.663 235.548 316.827 234.258 316.827C231.678 316.827 231.091 319.574 230.27 334.261L229.567 347.755L233.202 351.457L236.838 355.159L233.906 356.233C229.684 357.905 224.641 357.666 219.95 355.756C213.617 353.009 212.679 346.203 216.432 329.365C219.481 315.394 224.876 304.886 228.98 304.886C229.684 304.886 232.147 306.677 234.258 308.707ZM283.514 317.663C283.162 318.857 282.927 318.141 282.927 316.23C282.927 314.2 283.162 313.364 283.514 314.081C283.748 314.916 283.748 316.588 283.514 317.663ZM171.163 327.813C172.688 330.56 172.688 331.993 171.398 338.56C169.404 348.83 168.701 349.427 161.078 348.471L154.862 347.755L147.943 354.442C140.085 361.965 136.919 368.413 134.808 380.713C133.166 390.624 133.987 406.506 136.802 416.537C138.913 424.06 138.913 425.373 137.74 433.374C137.153 437.673 137.388 438.628 140.085 440.658C144.307 444.002 154.51 445.793 176.558 446.748L195.322 447.584L183.008 455.107C166.942 464.899 162.133 466.571 138.092 470.989C106.545 476.84 95.1688 474.81 82.8548 461.197C70.0718 447.226 69.72 434.21 81.9166 420.477L86.1386 415.701L96.6933 416.656C110.18 417.731 112.526 417.611 115.223 415.104C117.803 412.716 117.92 409.491 115.575 398.625C113.464 388.236 113.346 382.504 115.34 382.504C116.044 382.504 119.445 381.191 122.729 379.638C128.241 377.011 129.179 375.936 132.462 368.772C134.573 364.353 138.678 358.025 141.727 354.562C152.399 342.979 154.745 339.516 156.035 334.5C156.856 331.634 158.498 328.171 159.905 326.619C163.306 322.917 168.818 323.395 171.163 327.813ZM364.082 334.381C365.489 343.098 365.255 343.456 360.446 342.501C357.984 342.023 355.873 341.546 355.638 341.307C355.404 341.187 356.576 338.918 358.335 336.53C359.977 334.023 361.267 331.515 361.267 331.037C361.267 330.44 361.736 329.963 362.323 329.963C362.792 329.963 363.613 331.993 364.082 334.381ZM475.142 345.964C475.846 348.591 477.722 355.995 479.364 362.204C482.062 372.115 482.531 375.936 482.531 392.654C482.648 412.954 481.71 418.567 477.019 425.612C471.741 433.732 462.124 436.837 439.021 438.15C427.294 438.867 418.381 440.897 418.967 442.808C419.201 443.405 420.609 443.882 422.251 443.763C423.893 443.524 428.701 443.046 433.04 442.688C442.891 441.733 448.403 443.524 460.365 451.764L469.396 457.973L449.576 466.929C413.455 483.289 407.474 485.557 397.036 486.154C391.876 486.393 385.661 486.154 383.198 485.438C380.383 484.602 378.624 484.602 378.155 485.438C376.396 488.304 380.501 489.379 393.87 489.379C407.122 489.379 408.06 489.14 418.732 484.721C424.831 482.214 434.33 477.915 439.842 475.407C455.088 468.123 471.507 461.317 473.735 461.317C474.79 461.317 478.191 462.63 481.475 464.302C484.642 465.974 489.215 467.645 491.678 468.123C494.141 468.481 496.486 469.198 496.721 469.675C497.659 471.228 487.222 477.676 469.63 486.393C441.953 500.126 428.232 505.38 413.22 508.007C405.949 509.321 401.61 509.201 369.008 507.171C360.212 506.574 354.583 506.932 346.139 508.485C330.776 511.47 321.863 510.037 300.284 501.32C282.106 493.916 278.94 493.2 254.312 490.573C224.524 487.468 219.246 487.946 193.211 495.469C174.799 500.842 164.948 500.962 149.819 495.946C143.838 494.036 135.043 491.289 130.234 489.976C125.426 488.543 118.038 485.438 113.816 483.05L106.193 478.631L116.747 477.796C122.611 477.318 135.512 475.407 145.48 473.377C166.355 469.078 176.558 464.66 197.55 450.569C214.673 439.106 218.191 437.434 225.228 437.434C232.264 437.434 235.782 435.882 235.782 432.777C235.782 431.583 236.838 429.792 238.245 428.956C239.535 428 241.763 424.418 243.171 420.836C246.103 413.432 248.8 411.044 251.966 413.074C254.429 414.746 254.546 422.627 252.201 433.016C250.911 439.225 250.911 440.419 252.67 444.121C256.306 452.002 258.651 452.361 299.111 452.241C330.189 452.241 336.991 451.883 350.712 449.614C376.63 445.315 388.827 441.136 385.543 437.912C385.192 437.553 381.791 438.389 378.038 439.703C369.828 442.688 347.898 446.509 330.307 448.181C323.27 448.778 317.289 449.256 317.172 449.017C317.054 448.898 318.227 443.763 319.869 437.553C322.332 428.717 323.856 425.373 327.14 421.91C332.066 416.537 340.744 413.551 350.712 413.551C356.576 413.551 358.101 414.029 362.909 417.85C365.958 420.119 369.711 424.179 371.353 426.806C374.989 432.777 379.21 434.688 383.081 432.06C385.426 430.508 385.895 429.195 385.895 424.537C385.895 413.432 378.038 396.117 370.415 390.505C367.717 388.355 367.014 388.355 365.255 389.788C363.261 391.46 363.378 397.67 365.489 410.327L366.31 414.865L362.323 412.477C354.7 407.7 335.115 409.969 326.554 416.537C322.214 419.88 319.752 424.776 316.116 437.673C314.592 443.046 312.715 447.823 311.777 448.42C309.901 449.734 264.867 448.539 260.997 446.987C259.472 446.39 257.361 444.599 256.306 442.927C254.546 440.3 254.546 439.225 256.54 429.911C259.003 417.492 258.065 411.283 253.256 409.491C247.393 407.461 244.461 409.372 240.356 417.731C238.245 422.03 236.251 425.134 235.782 424.657C235.313 424.179 232.85 416.776 230.388 408.297C227.925 399.938 225.11 391.938 224.055 390.624C222.296 388.355 221.944 388.236 218.66 390.027C215.142 391.938 212.093 395.878 201.303 413.313C191.1 429.672 181.718 435.643 166.003 435.523C160.843 435.523 155.097 435.165 153.22 434.688L149.819 433.732L153.807 431.225C156.035 429.911 159.436 427.284 161.312 425.493C163.306 423.702 166.472 421.791 168.349 421.433C170.343 420.955 174.447 418.686 177.614 416.179C182.422 412.477 184.767 409.133 191.687 395.759C202.593 375.101 205.525 371.518 211.741 371.399C214.907 371.279 217.956 372.235 221.123 374.384L225.814 377.608L238.128 375.459C263.225 371.041 277.415 365.786 278.705 360.174C280.113 354.681 277.884 351.099 270.965 347.636L264.515 344.411L274.483 344.292C295.71 344.053 306.969 343.217 314.474 341.546C322.097 339.754 331.362 339.993 332.652 342.023C333.59 343.576 337.46 343.337 340.158 341.665C342.034 340.471 343.09 340.471 345.67 342.023C353.175 346.441 373.933 348.83 382.963 346.441C388.006 345.009 389.296 345.128 392.345 346.68C395.043 348.113 399.616 348.471 413.22 348.233C422.72 348.113 430.46 348.233 430.46 348.591C430.46 348.83 428.701 351.576 426.473 354.681C421.078 362.443 412.634 379.758 411.813 384.773C411.109 388.475 410.523 389.072 403.487 391.699C390.469 396.475 386.482 403.998 391.29 414.268C396.333 425.015 419.671 433.852 443.008 433.852C458.137 433.852 464.236 432.299 470.217 427.165C477.84 420.477 479.13 415.223 479.012 392.057C478.895 368.891 477.019 359.457 468.809 342.859L463.649 332.47L468.692 336.769C472.328 339.754 474.204 342.381 475.142 345.964ZM492.147 352.532C501.06 359.457 506.807 369.13 512.201 386.803C523.225 422.269 525.923 440.181 521.818 448.301C520.997 449.853 518.065 450.331 506.455 450.928C497.776 451.286 488.394 452.599 482.882 454.032L473.618 456.54L466.464 451.286C462.476 448.42 457.433 445.196 455.205 444.002C450.514 441.613 451.921 439.942 458.606 439.822C463.766 439.703 472.21 435.882 476.55 431.702C484.759 423.821 487.339 412.238 486.401 388.714C485.814 373.309 483 357.905 478.661 346.322L477.371 342.979L481.944 345.606C484.524 347.039 489.098 350.143 492.147 352.532ZM210.568 349.069C211.037 351.099 212.679 354.323 214.321 356.233C218.308 361.01 216.666 360.771 208.223 355.039C201.186 350.263 195.909 348.949 195.909 351.815C195.909 352.651 198.371 354.562 201.538 355.995C204.587 357.427 209.747 360.293 213.031 362.204C219.364 365.906 226.4 367.339 227.221 364.95C227.456 364.234 226.752 363.398 225.579 363.04C224.407 362.801 225.462 362.562 227.808 362.682C230.505 362.682 232.85 361.965 233.671 360.771C234.492 359.696 237.541 358.502 240.473 358.144C243.288 357.666 250.207 355.397 255.836 353.129C266.391 348.83 268.385 348.71 273.076 353.009C278.822 358.383 275.304 362.204 260.528 366.503C255.602 367.936 245.868 370.085 238.949 371.279L226.518 373.429L222.999 370.921C218.074 367.1 214.086 366.503 207.05 368.175C200.834 369.727 200.717 369.727 190.279 364.712C184.416 361.846 178.669 359.816 177.027 360.055C172.571 360.652 170.577 366.742 166.238 393.251L162.368 417.731L155.214 418.328C150.406 418.686 147.239 419.642 145.48 421.313C143.369 423.224 142.783 423.343 141.962 421.91C138.561 416.298 136.567 394.326 138.326 382.624C140.203 370.563 143.486 363.279 150.171 356.95C155.683 351.696 156.035 351.576 161.781 352.293C166.121 352.77 168.466 352.532 170.46 351.099C173.04 349.427 173.861 349.427 179.373 351.099C185.354 352.89 185.471 352.89 191.569 349.188C196.143 346.561 199.192 345.606 203.766 345.606C209.513 345.486 209.864 345.606 210.568 349.069ZM260.41 345.964C260.41 346.322 259.941 346.919 259.238 347.277C258.651 347.636 258.065 347.397 258.065 346.8C258.065 346.083 258.651 345.486 259.238 345.486C259.941 345.486 260.41 345.725 260.41 345.964ZM437.027 365.07C432.923 378.205 427.997 385.131 419.553 389.788C412.165 393.729 408.998 393.968 415.566 389.908C417.794 388.594 420.961 385.728 422.602 383.579C427.528 376.892 437.379 356.592 438.317 351.218L439.256 346.083L439.607 350.979C439.842 353.726 438.669 359.696 437.027 365.07ZM430.108 362.443C424.362 374.503 417.442 385.012 416.739 382.862C415.683 379.877 433.157 349.069 434.799 350.74C435.151 351.099 433.04 356.353 430.108 362.443ZM189.458 368.413L200.365 373.429L196.143 379.758C193.915 383.221 191.921 386.087 191.687 386.087C191.452 386.087 189.107 383.101 186.409 379.399C183.712 375.698 179.959 371.996 178.2 371.279C174.682 369.966 173.861 367.219 176.206 364.831C178.083 362.92 177.027 362.682 189.458 368.413ZM180.311 377.966C182.187 380.116 185.237 383.937 186.996 386.325L190.162 390.624L186.644 397.908C182.07 406.984 176.91 413.074 170.929 416.059L166.238 418.567L167.059 412.716C168.583 401.849 172.453 378.325 173.157 376.175C174.095 373.19 176.206 373.668 180.311 377.966ZM110.297 388.117C110.297 389.311 111.118 394.923 112.291 400.774C113.698 408.178 113.816 411.641 112.995 412.477C112.056 413.432 107.717 413.551 99.2734 412.954C88.8359 412.238 86.8422 411.76 86.8422 410.088C86.8422 409.014 86.0213 406.864 84.9658 405.312C83.3239 402.924 83.2067 402.327 84.614 401.491C96.9279 393.49 108.773 386.206 109.476 386.206C109.945 386.087 110.297 387.042 110.297 388.117ZM524.75 398.028C528.385 403.521 531.317 408.894 531.317 409.73C531.317 410.686 530.496 414.626 529.441 418.567C527.799 425.254 527.799 425.97 529.675 428C530.731 429.195 535.305 430.986 539.996 432.06C544.57 433.135 548.909 434.329 549.495 434.807C550.668 435.643 555.242 445.912 557.47 452.599C559.112 457.973 557.235 461.794 551.254 464.899C543.279 469.078 535.657 469.914 521.935 468.362C515.133 467.526 509.387 466.69 509.152 466.451C508.8 466.212 512.67 462.152 517.479 457.376C525.454 449.734 526.509 448.181 527.095 443.285C527.565 440.181 527.33 434.09 526.626 429.792C525.454 422.269 518.534 393.251 516.541 387.878C515.251 384.056 517.596 386.922 524.75 398.028ZM221.709 394.326C221.709 394.923 220.419 400.297 218.895 406.267C214.907 421.313 213.969 429.792 215.963 432.299C217.136 433.613 217.253 434.329 216.315 434.688C215.494 434.926 211.975 436.956 208.223 439.225C202.007 443.046 200.717 443.405 191.921 443.405C177.027 443.405 150.875 441.136 145.949 439.583C141.375 438.031 139.499 434.688 141.727 432.419C142.431 431.702 143.955 432.419 146.066 434.329C153.22 441.016 172.102 441.375 185.002 434.926C193.68 430.627 199.779 424.06 207.871 409.969C215.142 397.311 221.709 389.908 221.709 394.326ZM373.699 399.58C378.155 406.267 382.377 418.328 382.377 424.537C382.377 428.597 382.025 429.075 379.445 429.075C375.575 429.075 371.588 421.074 369.008 407.82C365.841 391.341 367.014 389.311 373.699 399.58ZM232.264 429.314C232.264 431.105 231.209 431.463 225.814 431.463C221.24 431.463 219.129 430.986 218.66 429.792C217.956 428.12 220.419 414.507 223.117 404.595L224.289 399.819L228.277 413.551C230.388 421.074 232.264 428.239 232.264 429.314ZM539.527 426.926C539.527 428 533.663 426.926 532.138 425.493C531.669 425.015 531.786 423.224 532.607 421.552L534.015 418.328L536.829 422.149C538.237 424.299 539.527 426.448 539.527 426.926ZM159.553 422.388C159.553 423.582 149.937 429.075 147.826 429.075C144.659 429.075 144.776 426.09 148.06 423.821C150.288 422.149 159.553 421.074 159.553 422.388ZM509.035 460.242C502.937 465.974 502.233 466.212 497.777 465.615C491.209 464.78 479.247 460.122 480.537 458.928C482.179 457.137 498.597 454.391 507.276 454.271H515.485L509.035 460.242Z" fill="#423D33"/>
<path d="M298.642 348.71C297 351.099 295.006 356.114 294.302 359.696C293.481 363.398 292.661 366.622 292.543 366.742C292.426 366.98 287.149 368.175 280.933 369.369C266.391 372.235 257.243 376.414 256.188 380.594C254.311 388.355 264.397 394.445 283.982 397.311C304.74 400.416 323.504 399.461 339.923 394.207C348.249 391.58 355.403 385.728 355.403 381.549C355.403 377.847 350.947 373.071 344.848 370.443C339.923 368.294 339.102 367.458 338.398 363.637C337.343 357.308 332.417 346.8 330.071 345.844C327.609 344.889 326.67 346.68 324.911 355.278C324.09 359.099 322.918 362.562 322.449 362.92C320.924 363.876 317.875 355.278 318.227 351.099C318.461 347.874 317.992 347.158 315.647 346.919C311.307 346.203 309.9 348.591 312.949 351.576L315.647 353.964L313.066 358.383C308.375 366.383 307.789 366.622 305.913 360.771C303.567 353.726 301.104 353.606 299.345 360.532C298.524 363.637 297.586 365.786 297.234 365.428C296.062 364.353 300.401 352.532 302.16 351.815C304.036 351.099 304.388 345.964 302.746 344.889C302.043 344.531 300.283 346.203 298.642 348.71ZM334.176 362.204L335.232 367.219L331.01 366.383C328.547 365.906 326.553 365.428 326.319 365.189C325.967 364.831 327.843 356.353 329.133 352.651C329.954 350.263 332.652 355.278 334.176 362.204ZM316.35 372.354C313.184 377.369 312.48 377.489 311.19 373.309C310.252 370.682 310.721 369.249 313.066 365.548L315.998 361.01L317.523 364.592C318.813 367.936 318.696 368.772 316.35 372.354ZM303.802 365.309C303.802 366.264 303.567 366.98 303.333 366.98C303.098 366.98 302.043 367.339 300.987 367.697C299.462 368.294 299.462 367.936 300.635 365.428C302.043 362.323 303.802 362.204 303.802 365.309ZM335.232 371.16C335.466 371.279 334.645 373.668 333.59 376.414L331.713 381.31L328.547 376.892C322.8 368.772 322.8 369.011 329.133 369.966C332.3 370.443 334.997 370.921 335.232 371.16ZM293.247 371.16C293.247 371.518 290.432 373.071 287.149 374.623C279.76 377.847 277.532 380.235 278.587 383.698C279.643 387.042 285.272 389.788 292.778 390.505C298.172 391.102 299.111 390.863 299.111 389.191C299.111 387.758 298.055 387.281 295.006 387.281C289.729 387.281 282.34 384.176 282.927 382.265C283.63 379.877 293.481 375.339 297 375.698C299.345 376.056 300.401 375.459 300.987 373.906C301.339 372.712 302.043 371.757 302.629 371.757C303.215 371.757 302.277 374.145 300.635 377.131C297.469 382.862 297.703 387.639 300.87 384.892C301.808 384.057 302.629 382.862 302.629 382.265C302.629 379.996 307.555 374.145 308.727 374.862C309.314 375.22 309.783 378.325 309.665 381.788C309.431 385.131 309.431 388.355 309.548 388.952C309.783 390.863 313.066 387.042 313.77 383.937C314.122 382.146 315.998 378.922 317.758 376.772L321.041 372.832L324.208 377.011C328.312 382.504 328.078 384.295 322.918 385.609C317.875 386.922 316.233 389.669 320.689 389.669C327.609 389.669 335.583 383.221 338.398 375.22L339.571 371.876L345.435 375.101C353.175 379.28 353.644 382.504 347.546 386.564C333.707 395.878 294.654 398.028 271.668 390.744C253.021 384.892 256.54 378.444 281.167 373.071C293.481 370.324 293.247 370.443 293.247 371.16Z" fill="#423D33"/>
<path d="M384.806 177.905C384.806 190.003 374.071 201.635 362.403 199.81C350.03 199.81 340 187.945 340 177.905C340 167.865 347.934 156 362.403 156C374.776 156 386.673 164.671 384.806 177.905Z" fill="#F1E8D2"/>
</svg>
