<svg width="843" height="600" viewBox="0 0 843 600" fill="none" xmlns="http://www.w3.org/2000/svg">
<g clip-path="url(#clip0_536_137)">
<path d="M247.697 299.842C243.368 445.083 357.6 566.334 502.842 570.663C575.102 572.817 644.246 551.691 694.68 508.509C745.224 465.232 776.604 400.107 773.663 315.196C770.736 230.731 743.426 164.103 698.353 118.027C653.276 71.9465 590.85 46.8524 518.518 44.6966C433.99 42.1772 367.241 69.5497 321.095 116.027C275.001 162.452 249.851 227.547 247.697 299.842Z" stroke="#423D33" stroke-width="9.99"/>
<path d="M391.702 215.071C308.106 278.036 291.381 396.847 354.346 480.444C385.611 521.954 428.589 551.324 475.626 560.241C522.806 569.186 573.599 557.454 619.97 517.599C666.003 478.035 691.191 432.717 696.806 386.561C702.422 340.4 688.385 293.995 657.076 252.428C620.498 203.864 575.055 178.62 528.067 173.598C481.15 168.583 433.24 183.784 391.702 215.071Z" stroke="#423D33" stroke-width="9.99"/>
<path d="M442.645 330.922C384.68 367.992 367.74 445.033 404.81 502.999C423.151 531.678 449.806 553.104 480.255 561.333C510.844 569.6 544.8 564.41 577.153 540.652C609.147 517.158 627.971 488.764 633.99 458.705C640.011 428.64 633.102 397.497 614.723 368.757C593.26 335.197 564.747 316.308 534.096 310.634C503.517 304.973 471.354 312.562 442.645 330.922Z" stroke="#423D33" stroke-width="9.99"/>
</g>
<defs>
<clipPath id="clip0_536_137">
<rect width="842.609" height="600" fill="white"/>
</clipPath>
</defs>
</svg>
