<svg width="1400" height="680" viewBox="0 0 1400 680" fill="none" xmlns="http://www.w3.org/2000/svg">
<path d="M941.187 299.719C933.719 288.989 928.443 275.661 927.562 268.838C925.922 256.132 928.621 236.694 935.484 224.092C957.893 182.939 1006.46 181.866 1029.46 195.031C1052.91 207.089 1063.58 221.667 1068.56 250.561C1070.2 279.233 1059.6 297.545 1044.48 310.433C1035.61 317.996 1029.91 323.353 1014.06 326.504C983.233 332.636 953.862 317.93 941.187 299.719ZM1016.51 321.777C1054.42 309.879 1077.43 271.989 1057.16 226.298C1052.45 216.723 1043.72 208.573 1034.66 202.349C991.567 175.564 942.455 198.567 932.632 243.314C928.885 262.151 931.517 280.781 942.138 294.677C962.1 321.645 994.419 328.71 1016.51 321.777Z" fill="#D9D8D6"/>
<path d="M986.57 308.308C984.301 295.452 985.099 281.144 987.153 274.576C990.978 262.344 1001.54 245.796 1013.01 237.191C1050.46 209.092 1094.81 228.294 1110.1 249.815C1126.27 270.521 1129.83 288.206 1122.26 316.541C1111.76 343.286 1094.53 355.527 1075.48 360.962C1064.3 364.15 1056.9 366.651 1041.26 362.933C1010.83 355.699 990.421 330.127 986.57 308.308ZM1045.45 359.652C1084.69 364.587 1121.33 339.705 1122.08 289.745C1121.83 279.088 1117.34 268.053 1111.75 258.629C1083.98 216.378 1029.97 216.885 1002.4 253.48C991.143 269.047 985.739 287.075 989.536 304.12C996.316 336.927 1022.58 356.777 1045.45 359.652Z" fill="#D9D8D6"/>
<path d="M1029.38 289.723C1017.42 284.482 1005.96 275.885 1001.63 270.533C993.574 260.568 985.658 242.604 984.856 228.289C982.238 181.543 1022.81 155.279 1049.2 154.487C1075.39 152.515 1092.08 159.359 1111.47 181.369C1127.91 204.931 1128.54 226.062 1122.5 244.93C1118.95 256.002 1116.93 263.542 1105.17 274.495C1082.27 295.811 1049.67 298.617 1029.38 289.723ZM1104.76 269.193C1130.62 239.271 1130.23 194.988 1089.07 166.658C1080.06 160.959 1068.39 158.573 1057.45 158.004C1006.89 157.684 977.364 202.912 992.53 246.148C999.243 264.148 1011.25 278.641 1027.54 284.933C1058.6 297.481 1089.68 286.628 1104.76 269.193Z" fill="#D9D8D6"/>
<path d="M967.005 252.112C955.257 246.418 944.13 237.389 940.01 231.876C932.338 221.611 925.115 203.357 924.861 189.021C924.03 142.209 965.578 117.515 991.976 117.733C1018.23 116.763 1034.64 124.24 1053.17 146.974C1068.7 171.147 1068.52 192.287 1061.76 210.911C1057.8 221.839 1055.49 229.296 1043.32 239.792C1019.62 260.217 986.943 261.775 967.005 252.112ZM1043.11 234.478C1070.1 205.566 1071.4 161.3 1031.35 131.418C1022.57 125.379 1011 122.549 1000.08 121.562C949.576 119.311 918.344 163.376 931.846 207.161C937.866 225.404 949.311 240.346 965.348 247.255C995.908 260.981 1027.38 251.324 1043.11 234.478Z" fill="#D9D8D6"/>
<path d="M871.096 202.337C875.49 190.043 883.266 178.007 888.302 173.317C897.681 164.583 915.049 155.434 929.274 153.635C975.723 147.761 1004.75 186.403 1007.38 212.671C1011.18 238.665 1005.52 255.793 984.913 276.665C962.555 294.707 941.519 296.81 922.275 292.1C910.983 289.336 903.321 287.848 891.574 276.875C868.712 255.523 863.639 223.201 871.096 202.337ZM896.834 276.096C928.488 299.813 972.636 296.33 998.026 253.296C1003.08 243.911 1004.65 232.102 1004.45 221.145C1001.24 170.688 954.066 144.39 911.993 162.536C894.506 170.488 880.885 183.477 875.746 200.166C865.395 232.028 878.39 262.278 896.834 276.096Z" fill="#D9D8D6"/>
<path d="M880.361 337.657C872.96 326.927 867.731 313.599 866.857 306.776C865.231 294.07 867.907 274.632 874.708 262.029C896.917 220.877 945.05 219.804 967.841 232.969C991.086 245.027 1001.66 259.604 1006.6 288.499C1008.23 317.17 997.717 335.483 982.733 348.371C973.941 355.933 968.288 361.29 952.587 364.442C922.031 370.574 892.922 355.867 880.361 337.657ZM955.01 359.715C992.583 347.817 1015.39 309.927 995.294 264.235C990.632 254.661 981.981 246.511 972.998 240.287C930.291 213.502 881.617 236.505 871.882 281.251C868.168 300.089 870.777 318.719 881.303 332.615C901.086 359.583 933.117 366.647 955.01 359.715Z" fill="#D9D8D6"/>
<path d="M928.959 325.56C929.814 312.533 933.993 298.827 937.551 292.935C944.176 281.965 958.371 268.405 971.558 262.776C1014.62 244.394 1053.13 273.598 1062.86 298.139C1073.63 322.096 1072.88 340.121 1058.79 365.841C1042.24 389.322 1022.58 397.11 1002.78 397.855C991.167 398.293 983.39 398.962 969.085 391.63C941.246 377.362 927.507 347.669 928.959 325.56ZM973.93 389.439C1010.87 403.57 1052.38 388.119 1065 339.773C1067.29 329.362 1065.55 317.576 1062.36 307.092C1045.45 259.448 992.867 247.089 957.379 276.073C942.741 288.515 933.204 304.74 932.836 322.198C931.616 355.677 952.405 381.206 973.93 389.439Z" fill="#D9D8D6"/>
</svg>
