<svg width="600" height="600" viewBox="0 0 600 600" fill="none" xmlns="http://www.w3.org/2000/svg">
<path d="M278.001 416.5C272.722 407.639 287 406.5 296.501 412.5C309.729 420.853 305.818 407.01 310.328 414.67C313.037 419.271 324.162 429.311 314.828 432.17C302.605 435.914 281.419 422.239 278.001 416.5Z" fill="#7B9361" fill-opacity="0.2"/>
<path d="M410.137 294.74C404.859 285.879 411.499 277 421 283C434.227 291.353 431.5 294 431.5 297.5C431.5 300.5 433.334 305.641 424 308.5C411.777 312.244 413.556 300.479 410.137 294.74Z" fill="#7B9361" fill-opacity="0.2"/>
<path d="M298.137 508.74C292.859 499.879 304.999 490 314.5 496C327.727 504.353 337.989 508.34 342.5 516C345.209 520.601 344.299 521.551 334.964 524.41C322.742 528.154 301.555 514.479 298.137 508.74Z" fill="#7B9361" fill-opacity="0.2"/>
<path d="M107 284.5C96.6856 284.451 106.633 272.12 116.674 267.076C130.653 260.053 141.611 250.412 150.5 250.5C155.839 250.553 165.866 249.029 163.5 258.5C160.402 270.902 113.68 284.532 107 284.5Z" fill="#7B9361" fill-opacity="0.2"/>
<path d="M240.408 228.431C235.129 219.57 226.206 209.886 237.326 205.67C251.546 200.279 255.816 209.01 260.326 216.67C263.035 221.271 274.16 231.311 264.826 234.17C252.603 237.914 243.826 234.17 240.408 228.431Z" fill="#7B9361" fill-opacity="0.2"/>
<path d="M251.5 345.5C246.257 341.131 248.5 327.33 248.5 319.5C248.5 307.893 259.624 316.921 262.59 322C264.372 325.05 270.139 346.104 264 348C255.961 350.482 254.5 348 251.5 345.5Z" fill="#7B9361" fill-opacity="0.2"/>
<path d="M196.408 359.432C191.129 350.57 185.288 329.216 196.408 325C210.628 319.609 211.816 340.01 216.326 347.67C219.035 352.271 230.16 362.311 220.826 365.17C208.603 368.914 199.826 365.17 196.408 359.432Z" fill="#7B9361" fill-opacity="0.2"/>
<path d="M374 166.5C389 168 397.47 143.617 398.998 155.41C400.5 167 396.209 179.17 392 187C389.472 191.703 378.787 200.997 371.5 194.5C361.958 185.993 367.354 165.835 374 166.5Z" fill="#7B9361" fill-opacity="0.2"/>
<path d="M159 225C153.721 216.139 157.38 197.716 168.5 193.5C182.72 188.109 211 185.5 215.5 210.5C219.35 231.888 200.834 241.641 191.5 244.5C179.277 248.244 162.418 230.739 159 225Z" fill="#E3B646" fill-opacity="0.2"/>
<path d="M443 293C437.722 284.138 447.88 267.216 459 263C473.22 257.609 491 261.5 495.5 286.5C499.35 307.888 504.13 326.976 498.5 319C492.5 310.5 456.998 316.5 443 293Z" fill="#E3B646" fill-opacity="0.2"/>
<path d="M283.625 315.003C278.103 305.219 271.993 281.643 283.625 276.988C298.5 271.036 299.742 293.56 304.46 302.018C307.294 307.097 318.932 318.182 309.168 321.339C296.382 325.473 287.201 321.339 283.625 315.003Z" fill="#E3B646" fill-opacity="0.2"/>
<path d="M306.333 303.327C298 279 276.838 265.832 288.5 263.5C308.499 259.5 321.741 283.905 326.251 291.565C328.96 296.166 329.334 313.141 320 316C314.5 317.685 308.105 308.5 306.333 303.327Z" fill="#A7D8F0" fill-opacity="0.3"/>
<path d="M426.5 367.5C424.519 354.718 431.515 345.329 442.5 338.5C451.388 332.974 459.081 331.16 469 334.5C483.186 339.277 484.362 353.114 488.5 367.5C494.237 387.448 482.5 415.5 482.5 415.5L477.5 421.5C477.5 421.5 482 391 475.5 389C464.883 385.734 450.239 393.666 441 387.5C432.975 382.145 427.977 377.034 426.5 367.5Z" fill="#A7D8F0" fill-opacity="0.3"/>
<path d="M172.764 389.616C185.643 388.416 194.589 395.97 200.738 407.349C205.714 416.557 207.057 424.346 203.12 434.043C197.49 447.913 183.607 448.246 168.996 451.501C148.736 456.016 150.685 444.808 150.685 444.808L146.307 440.684C145.389 441.173 145 439.453 145 439.453L146.307 440.684C146.812 440.416 147.477 439.478 148.326 437.219C152.232 426.821 145.204 411.721 151.92 402.874C157.753 395.19 163.159 390.511 172.764 389.616Z" fill="#A7D8F0" fill-opacity="0.3"/>
<path d="M399.5 199.5C402.148 212.09 411.639 215.084 421.499 219C429.477 222.168 442.598 215.984 448.499 210.5C456.939 202.656 465.142 185.115 463.5 170.5C459.625 136 421.499 108 421.499 108L434.196 129.645C434.196 129.645 446.984 157.533 443.057 160.948C436.644 166.525 412.031 154.993 407.5 163C403.564 169.954 397.525 190.11 399.5 199.5Z" fill="#A7D8F0" fill-opacity="0.3"/>
<path d="M75.7004 435.745C96.2029 467.602 176.478 525.307 210.571 547.322C220.346 553.634 235.138 513.799 210.571 513.799C181.495 513.799 116.903 449.035 100.268 425.237C69.8588 381.736 62.4522 347.141 64.6701 294.146C67.0055 238.346 137.174 212.173 115.81 160.554C111.285 149.62 109.327 126.907 100.268 134.535C84.2242 148.045 75.9285 162.121 64.6701 182.569C43.0135 221.902 37.9763 249.275 37.0945 294.146C35.9686 351.443 44.6676 387.525 75.7004 435.745Z" fill="#423D33" fill-opacity="0.1"/>
<path d="M513.5 165.5C491.682 129.497 398.572 72.3799 362.291 47.5C351.889 40.3665 344.654 61.3529 362.291 80.6516C385 105.5 461.969 153.842 479.672 180.737C512.032 229.899 519.914 268.995 517.554 328.885C515.069 391.946 467.5 447.5 449.5 472.5C441.751 483.262 472.859 474.121 482.5 465.5C499.573 450.233 510.019 453.608 522 430.5C545.046 386.049 552.562 379.595 553.5 328.885C554.698 264.133 546.524 219.994 513.5 165.5Z" fill="#423D33" fill-opacity="0.1"/>
<path d="M300 112.5C306.848 100.557 326.677 98.3296 339.747 102.306C355.23 107.016 378.5 161 350 157C329.784 154.163 311.719 176.415 302 158.5C298.902 152.789 298.265 146.659 298 140.15C297.662 131.84 295.875 119.695 300 112.5Z" fill="#FF8E8E" fill-opacity="0.2"/>
<path d="M378.21 402.961C381.895 413.615 375.134 438.889 367.745 454.61C358.991 473.235 307.603 475.112 339.156 454.61C357.625 442.61 339.071 406.658 352.625 397.545C356.945 394.64 360.504 394.897 364.117 395.686C368.73 396.693 375.99 396.542 378.21 402.961Z" fill="#FF8E8E" fill-opacity="0.2"/>
<path d="M326.875 121.36C321.631 122.514 314.708 128.807 311.667 135.31C309.255 140.344 308.101 148.42 309.884 148.42C311.142 148.42 312.086 146.427 314.184 139.295C316.701 130.8 324.463 124.297 332.119 124.297C337.363 124.297 343.971 128.073 349.844 134.471C354.04 139.085 355.088 140.973 355.088 143.805C355.088 147.056 354.669 147.686 351.208 149.154C346.068 151.252 336.314 150.518 329.602 147.581C325.511 145.798 324.672 144.854 324.672 142.651C324.672 139.505 328.973 134.785 331.804 134.785C333.902 134.785 337.258 137.827 337.258 139.82C337.258 140.449 336.314 141.707 335.056 142.546C332.748 144.12 333.168 146.322 335.685 146.322C337.573 146.322 341.454 141.288 341.454 138.98C341.454 135.939 335.475 131.639 331.28 131.639C326.455 131.639 320.477 137.302 320.477 141.917C320.477 149.364 328.973 153.664 343.446 153.664C353.41 153.664 357.815 151.462 358.759 145.903C359.808 140.868 357.081 135.939 349.739 129.017C345.334 125.031 341.873 122.829 338.097 121.675C335.161 120.836 332.434 120.102 332.119 120.206C331.804 120.311 329.392 120.836 326.875 121.36Z" fill="#423D33"/>
<path d="M314.708 216.384C310.722 218.272 304.744 224.04 304.744 226.033C304.744 228.655 307.261 227.816 310.722 224.145C317.959 216.594 327.923 216.069 339.041 222.572C346.278 226.767 354.249 235.473 358.654 243.758C362.43 250.995 362.43 251.205 360.856 254.981C357.71 262.637 359.178 267.462 365.681 269.979C367.988 270.818 368.723 272.182 369.981 277.111C370.925 281.201 371.974 283.299 373.233 283.509C374.386 283.719 375.016 283.194 375.016 282.145C375.016 278.055 365.157 248.058 361.591 241.346C357.081 232.641 347.222 222.467 339.46 218.272C331.909 214.181 321.001 213.447 314.708 216.384ZM366.101 262.427C366.52 264.735 366.415 265.889 365.576 265.889C364.108 265.889 362.639 261.798 363.269 259.281C363.898 256.764 365.157 258.232 366.101 262.427Z" fill="#423D33"/>
<path d="M352.781 397.621C349.32 399.404 346.698 404.124 346.698 408.215C346.698 412.2 350.159 417.549 353.83 419.437C356.452 420.801 357.081 421.849 357.396 425.52C358.445 435.694 352.781 445.343 342.188 451.321C332.434 456.88 329.287 461.705 331.595 467.788C332.643 470.305 337.678 472.508 342.817 472.508C360.962 472.508 377.953 446.182 376.904 419.647C376.38 403.705 370.821 395.943 360.333 395.943C357.71 396.048 354.354 396.678 352.781 397.621ZM365.682 400.768C369.772 402.866 373.023 409.998 373.653 418.388C374.701 432.128 367.674 451.636 358.235 461.076C351.942 467.369 343.446 470.41 338.412 468.312C331.909 465.69 333.902 460.132 342.922 455.517C349.425 452.161 356.767 444.714 359.284 438.736C361.172 434.226 361.486 432.023 361.067 426.464C360.647 420.801 360.857 419.227 362.64 416.815C364.947 413.669 364.528 408.634 361.801 406.327C359.703 404.544 357.186 406.851 359.074 408.739C360.962 410.627 360.647 414.612 358.445 415.766C355.927 417.13 353.096 415.347 351.417 411.361C349.53 406.956 351.208 402.446 355.508 400.558C359.808 398.67 361.906 398.775 365.682 400.768Z" fill="#423D33"/>
<path d="M449.693 438.106C447.91 439.889 448.119 443.14 450.112 443.875C452.105 444.609 453.783 442.406 453.468 439.574C453.049 437.057 451.371 436.428 449.693 438.106Z" fill="#423D33"/>
<path d="M178.36 205.266C170.284 209.881 171.438 220.055 180.353 223.411C188.849 226.662 195.666 222.467 195.666 213.867C195.666 210.196 195.142 208.937 192.415 206.735C188.954 203.798 182.241 203.064 178.36 205.266ZM189.793 209.357C196.82 214.916 188.849 223.935 180.668 219.635C177.731 218.062 176.787 216.699 176.787 213.762C176.787 211.035 181.402 207.154 184.653 207.154C185.912 207.154 188.219 208.098 189.793 209.357Z" fill="#423D33"/>
<path d="M466.789 289.382C464.586 290.956 464.167 296.41 466.264 298.822C467.942 300.919 473.501 300.919 476.543 298.927C478.64 297.353 479.165 297.458 483.57 299.976C488.499 302.702 491.436 303.332 491.436 301.654C491.436 300.29 484.828 295.256 483.15 295.256C482.521 295.256 481.682 294.417 481.262 293.368C479.899 289.487 477.487 287.914 473.082 287.914C470.774 287.914 467.837 288.543 466.789 289.382ZM475.704 292.109C477.067 293.053 476.857 293.473 474.655 295.256C471.508 297.773 469.096 297.563 468.572 294.836C467.942 291.585 472.347 289.907 475.704 292.109Z" fill="#423D33"/>
<path d="M454.202 348.117C452.419 348.851 449.587 351.053 448.014 353.046C445.392 356.088 445.077 357.137 445.602 361.751C446.021 366.052 446.756 367.52 449.797 370.352C454.307 374.547 460.285 376.33 465.11 374.967C470.04 373.603 471.508 372.03 471.508 368.149C471.508 362.066 465.32 357.556 458.293 358.395C454.097 358.815 453.678 361.332 457.873 361.332C464.795 361.332 470.144 366.786 466.578 370.247C463.537 373.288 455.461 371.505 451.475 366.995C448.853 363.954 448.119 360.388 449.482 357.137C451.265 352.941 454.936 350.739 460.81 350.529C464.376 350.424 465.739 349.9 465.739 348.746C465.739 346.648 458.398 346.229 454.202 348.117Z" fill="#423D33"/>
<path d="M252.172 58.9695C200.36 66.8357 147.185 100.713 105.651 152.315C95.7922 164.587 89.0797 174.865 81.9477 189.024C69.4666 213.357 60.6564 237.9 55.5172 262.023C53.2098 272.406 53 302.822 53 302.822C53 302.822 53.2098 332.923 55.9367 346.663C70.6203 420.501 118.866 481.333 193.438 520.034C215.359 531.362 235.811 537.76 264.339 542.06C281.54 544.682 325.066 544.787 337.862 542.165C365.341 536.606 388.835 526.432 414.321 509.022C425.858 501.156 452.604 481.123 459.421 475.145C463.511 471.579 464.246 471.264 465.294 472.627C465.924 473.571 466.973 474.306 467.497 474.306C469.07 474.306 490.676 451.756 498.332 442.211C514.799 421.549 530.007 393.755 535.881 373.828C541.649 354.424 542.803 342.992 542.698 310.164C542.488 267.896 540.181 250.8 531.266 223.95C521.407 194.373 505.569 169.411 484.593 150.532C468.441 135.953 448.408 118.858 439.493 112.04C415.37 93.5809 380.549 75.1215 354.853 67.0455C325.905 57.9207 282.064 54.4596 252.172 58.9695ZM315.207 62.6404C345.833 66.4162 371.005 74.9117 400.057 91.1686C418.097 101.342 421.978 103.964 420.614 105.642C418.936 107.635 419.251 107.95 432.886 122.424C454.701 145.603 458.372 151.896 461.623 171.194C465.924 197.31 462.358 208.323 446.415 217.762C437.815 222.901 430.054 224.999 419.565 225.104C411.175 225.104 410.021 224.789 400.687 220.489C388.625 214.93 382.856 214.091 376.773 217.238C368.488 221.433 367.229 229.404 372.368 244.402C377.507 259.401 378.976 267.267 379.081 280.272C379.186 290.865 379.395 292.334 381.073 292.648C382.647 292.963 382.856 291.914 382.856 281.111C382.856 268.211 381.388 259.61 376.668 245.137C372.473 232.236 371.949 229.299 373.417 225.628C376.564 218.077 385.374 217.552 399.008 223.845C407.189 227.726 409.706 228.355 416.943 228.67C438.444 229.614 458.792 218.706 464.665 202.974C466.658 197.729 466.868 195.212 466.553 185.039C466.238 174.76 466.343 173.711 467.497 177.172C476.202 205.176 478.929 212.938 482.915 221.013C485.432 226.153 487.425 230.558 487.215 230.768C487.11 230.977 485.327 230.138 483.439 228.985C475.783 224.265 469.909 227.516 469.909 236.431C469.909 242.514 471.902 246.815 477.041 252.269L480.817 256.149L475.153 254.471C472.007 253.527 464.141 250.695 457.638 248.178C451.24 245.661 443.793 243.144 441.066 242.514C430.998 240.312 423.446 245.241 422.188 254.891C419.985 271.147 416.839 277.126 410.231 277.126C406.455 277.126 406.455 277.336 408.763 272.826C413.063 264.33 409.706 251.22 401.84 245.976C395.652 241.78 389.149 243.563 389.149 249.437C389.149 252.793 392.086 252.793 392.925 249.332C393.24 247.863 394.184 246.71 394.918 246.71C397.33 246.71 403.099 251.43 404.987 255.1C409.602 263.701 405.406 277.021 397.54 278.489C390.932 279.853 382.856 290.446 381.178 300.2C375.41 333.553 347.931 365.437 315.731 376.03C287.413 385.365 264.968 381.065 246.089 362.605C225.637 342.573 211.478 309.01 210.114 277.336C209.38 262.023 211.163 252.898 216.827 242.724C221.022 235.068 222.805 234.858 224.903 241.675C225.218 242.724 226.162 243.563 227.105 243.563C229.832 243.563 228.993 238.214 225.637 234.648L222.491 231.502L224.483 225.733C230.252 209.267 223.33 193.01 207.178 185.458C191.865 178.116 175.923 179.165 158.512 188.605C153.688 191.227 149.597 193.115 149.282 192.8C148.968 192.59 150.122 189.758 151.8 186.717C155.366 180.004 161.449 176.019 174.979 171.614C188.089 167.313 201.514 167.418 222.386 171.928C230.776 173.711 240.216 175.809 243.467 176.438C247.558 177.172 251.124 178.955 255.529 182.207C263.29 188.08 268.429 189.024 275.037 186.087C280.701 183.57 284.372 178.746 285.001 172.872C285.42 169.201 285.106 167.943 282.693 165.111C277.344 158.713 267.066 158.503 262.241 164.587C257.731 170.355 261.402 177.172 268.324 176.124C272.205 175.389 276.925 171.823 276.925 169.411C276.925 167.418 274.408 167.733 272.205 170.145C271.156 171.299 268.954 172.243 267.276 172.243C264.863 172.243 264.339 171.823 264.339 169.726C264.339 164.272 273.149 161.964 278.393 166.055C285.315 171.509 278.393 183.78 268.429 183.78C265.597 183.78 262.766 182.521 257.626 178.955C252.592 175.599 248.816 173.816 244.306 173.082C240.95 172.348 238.118 171.614 238.118 171.299C238.118 170.984 239.482 169.936 241.16 168.992C243.362 167.733 244.936 165.216 247.033 159.657C250.389 150.742 253.956 146.861 265.807 139.205C276.296 132.387 278.498 130.29 283.952 122.424C292.343 110.047 299.999 104.698 314.263 101.342C324.856 98.9299 332.303 99.7689 372.368 107.845C395.967 112.67 411.175 120.745 426.698 136.478C431.417 141.303 435.298 145.708 435.298 146.232C435.298 146.652 433.515 146.337 431.417 145.498C429.215 144.659 421.348 142.981 413.797 141.827C390.723 138.051 380.549 133.961 356.636 118.753C336.708 106.062 328.527 103.125 319.088 105.223C307.97 107.635 302.831 117.389 302.726 136.058C302.621 148.435 304.299 152.945 310.697 157.559C316.78 161.964 329.156 166.789 337.862 168.153C349.294 169.936 349.189 169.726 349.084 179.69C349.084 187.556 349.294 188.5 352.336 192.695C356.531 198.464 356.636 202.764 352.755 205.805C350.028 208.008 349.189 208.113 340.379 207.274C335.24 206.749 326.22 206.33 320.451 206.33C311.746 206.435 309.124 206.749 305.138 208.742C298.426 211.994 292.133 218.601 289.406 225.104L287.203 230.663L277.974 231.816C272.939 232.551 268.324 233.075 267.8 233.075C267.171 233.075 266.437 231.082 266.227 228.565C265.493 221.957 262.451 216.504 257.731 213.042C252.907 209.581 245.355 208.113 241.789 210.001C238.747 211.679 236.65 216.504 237.489 219.965C240.111 230.138 259.829 238.948 274.303 236.326C277.659 235.697 281.854 235.173 283.428 235.173C286.364 235.173 286.469 235.382 286.155 239.053L285.84 243.039L279.022 243.773C269.688 244.822 260.248 249.646 252.802 257.303C247.977 262.128 245.775 263.701 241.894 264.54C235.706 265.903 232.14 268.211 230.147 271.987C227.105 277.965 229.308 285.307 234.867 287.614C238.223 288.978 240.216 288.348 240.216 285.936C240.216 285.097 239.167 284.468 237.594 284.468C234.657 284.468 232.874 281.846 232.874 277.126C232.874 272.511 236.545 269.155 242.733 268.316C247.033 267.686 248.606 266.638 254.375 260.869C262.451 252.898 271.786 248.073 280.805 247.129L286.889 246.5L289.301 252.059C290.56 255.1 291.294 257.932 290.874 258.352C290.35 258.666 286.155 259.505 281.435 260.135C276.715 260.659 270.737 262.232 268.115 263.386C253.116 270.728 244.936 290.551 250.389 306.493C251.543 310.059 252.068 313.415 251.648 315.408C250.494 320.547 250.599 330.826 251.858 335.231C253.431 340.895 258.361 345.719 261.612 344.88C263.919 344.356 264.129 344.67 264.758 348.866C265.807 355.473 271.366 364.179 276.4 367.01C282.064 370.262 291.713 370.367 294.755 367.325C295.909 366.171 296.853 363.864 296.853 362.081C296.853 358.095 291.294 351.593 287.833 351.593C284.372 351.593 284.791 353.795 288.672 356.312C293.916 359.669 294.755 361.766 291.608 364.388C286.155 368.898 276.086 364.598 271.156 355.683C268.115 349.914 267.59 346.139 265.807 317.401C264.549 297.893 270.003 281.426 281.54 269.469C284.476 266.428 288.462 263.281 290.35 262.652C293.706 261.498 293.916 261.603 295.384 265.064C296.223 267.057 296.853 269.05 296.853 269.574C296.853 269.994 294.545 271.043 291.818 271.777C278.918 275.028 272.73 288.873 275.876 307.647C277.764 318.974 282.798 331.875 288.042 339.112C301.467 357.256 334.82 365.437 339.959 351.802C341.323 348.341 340.379 344.251 338.281 344.251C337.232 344.251 336.708 345.405 336.708 347.817C336.708 352.222 334.82 353.795 329.052 354.424C319.927 355.473 306.187 350.858 298.95 344.356C296.014 341.734 295.804 341.314 297.901 342.258C301.677 344.146 327.373 344.146 334.086 342.258C347.721 338.377 361.356 328.728 368.278 317.925C372.998 310.583 377.088 299.046 375.305 297.997C373.417 296.739 372.578 297.683 370.9 303.242C368.383 311.632 365.026 317.191 358.314 323.799C347.196 334.811 333.352 340.37 316.78 340.37C306.187 340.37 297.692 338.587 292.447 335.231C288.672 332.819 284.162 325.267 282.589 318.764L281.959 315.828L286.994 319.184C289.825 321.072 293.601 323.904 295.384 325.582C299.37 329.357 310.697 333.553 318.878 334.497C337.547 336.385 357.37 324.743 366.285 306.808C369.117 300.934 369.746 298.522 369.641 292.858C369.536 281.321 362.719 269.26 354.014 265.589C350.133 263.911 349.399 263.071 347.196 257.093C344.155 248.598 338.911 240.627 334.296 237.585C327.898 233.18 326.115 231.082 326.849 228.355C327.688 224.999 326.534 223.111 324.542 224.789C322.444 226.467 322.654 232.655 324.961 234.963C326.01 236.012 329.052 238.424 331.779 240.417C335.659 243.144 337.652 245.766 340.903 252.269C343.211 256.883 345.099 261.184 345.099 261.813C345.099 262.442 342.372 263.701 339.12 264.645C335.764 265.589 332.408 266.533 331.569 266.742C330.73 267.057 329.681 265.589 328.842 262.757C326.849 256.254 322.864 249.961 316.885 243.878C311.536 238.529 300.523 232.026 296.433 232.026C291.818 232.026 291.084 230.453 293.077 225.838C295.699 220.174 300.523 215.455 306.816 212.518C312.9 209.686 323.178 209.162 337.757 211.154C344.05 211.994 347.511 211.994 350.238 211.154C359.677 208.428 362.09 199.617 355.902 191.122C352.65 186.822 352.44 185.983 352.44 178.012C352.44 167.418 351.601 166.37 341.113 164.901C325.59 162.699 312.48 156.301 308.704 149.169C305.977 144.029 305.453 132.387 307.446 122.843C309.124 114.977 314.578 109.313 321.081 108.579C327.793 107.845 335.659 110.362 345.623 116.445C350.238 119.172 358.838 124.416 364.817 128.087C377.927 136.058 385.269 139.205 399.533 142.876L410.546 145.708L402.47 149.588C393.24 154.098 391.142 156.406 387.996 164.901C385.793 170.879 385.793 170.984 380.969 171.509C377.298 171.928 375.41 172.767 373.207 175.285C366.914 182.312 372.054 192.171 382.017 192.171C385.793 192.171 391.352 188.71 393.974 184.934C395.338 182.836 397.75 175.914 399.428 169.516C403.623 152.84 405.826 150.113 416.734 148.12C428.166 145.917 437.92 150.742 442.43 160.496C446.311 168.782 446.415 181.892 442.849 189.234C439.703 195.527 435.088 198.988 429.739 198.988C424.075 198.988 418.517 193.115 418.517 187.031C418.517 182.312 420.824 179.27 424.18 179.795C425.963 180.004 426.383 180.843 426.383 184.304C426.383 191.646 429.739 193.324 434.354 188.395C439.388 183.046 436.766 170.25 429.739 165.95C417.678 158.503 402.784 172.138 402.784 190.702C402.784 201.925 407.714 211.364 415.685 215.35C428.376 221.853 449.982 210.42 456.065 193.954C458.897 186.507 459.526 179.06 457.428 179.06C456.484 179.06 455.435 181.368 454.596 185.668C452.289 197.1 445.996 205.281 435.508 210.525C425.124 215.664 415.895 213.881 410.336 205.596C407.819 201.82 407.504 200.037 407.189 191.751C406.98 182.941 407.189 181.787 409.811 176.963C413.168 170.879 420.3 166.474 424.81 167.523C430.473 168.992 434.039 175.075 432.99 181.787C432.676 184.2 432.571 184.2 431.103 181.158C427.851 174.655 419.775 174.341 416.104 180.529C412.643 186.402 414.531 193.639 421.034 199.303C424.18 202.135 425.754 202.659 429.949 202.659C440.542 202.659 447.884 193.324 448.723 178.431C449.667 161.755 445.367 151.896 428.271 132.387C421.558 124.626 411.28 113.404 405.406 107.635C395.967 98.0908 393.764 96.4127 383.276 91.1686C355.272 77.1143 340.484 72.1848 326.954 72.3945C321.5 72.4994 317.41 71.975 314.892 70.9262C299.894 64.5283 237.174 72.4994 206.129 84.8756C178.02 95.9932 159.037 108.789 136.696 131.548C124.635 143.925 108.588 163.223 103.763 171.194C99.2533 178.746 95.4775 188.814 95.4775 193.22C95.4775 195.003 94.1141 197.52 91.9115 199.827C89.9188 201.925 87.926 205.176 87.6113 207.064C87.1918 208.952 84.4648 213.147 81.5281 216.294C71.774 227.097 68.6275 237.165 67.0543 262.967C65.9006 281.216 66.3201 293.592 68.208 300.41C68.8373 302.507 71.2496 306.703 73.557 309.639L77.7523 314.884L76.3889 321.281L75.0254 327.679L71.6691 323.799C67.3689 318.764 62.9639 310.059 62.9639 306.493C62.9639 305.025 63.698 302.717 64.642 301.459C66.1104 299.361 66.1104 299.046 64.5371 298.522C62.0199 297.473 59.9223 301.144 59.8174 306.598C59.8174 312.366 63.4883 320.128 69.4666 326.84C73.6619 331.77 73.6619 331.77 74.0814 341.629C74.9205 363.13 84.4648 389.036 98.8338 408.439C105.756 417.879 119.81 430.884 128.516 436.023C135.333 440.114 135.857 440.743 140.472 449.763C145.612 459.937 149.178 465.181 155.156 471.474C160.085 476.718 157.988 476.403 150.436 470.844C144.038 466.125 139.214 460.881 123.586 441.687C113.413 429.206 102.4 418.718 99.4631 418.718C96.3166 418.718 97.3654 421.445 101.666 424.276C106.071 427.213 113.832 435.604 130.299 455.322C142.78 470.32 150.331 476.718 159.666 480.074C165.959 482.381 166.273 482.591 166.273 485.947C166.273 487.94 166.693 490.562 167.217 491.926C168.896 496.855 185.152 505.351 199.836 509.022C203.192 509.861 206.548 511.749 209.38 514.371C211.688 516.468 217.142 519.93 221.442 521.922C240.845 531.152 255.319 531.047 273.149 521.713C276.086 520.139 278.813 518.776 279.232 518.566C279.547 518.356 279.652 519.195 279.337 520.244C278.498 523.496 284.581 529.474 290.874 531.676C295.174 533.145 299.475 533.564 310.487 533.564C323.807 533.459 325.171 533.25 334.086 530.103C339.33 528.215 346.882 526.223 350.867 525.593C366.809 523.496 389.149 515 404.357 505.456C424.285 492.975 445.576 473.676 455.016 459.412C459.526 452.7 462.987 449.343 475.888 438.96C500.535 419.242 507.352 411.376 514.17 394.28C516.058 389.56 519.204 382.638 521.197 378.862C529.378 363.339 533.573 347.397 532.419 336.594C531.475 327.155 528.644 323.274 522.875 323.274C517.946 323.274 512.597 328.204 508.926 336.175C507.248 339.741 505.15 344.356 504.206 346.348L502.423 350.019L503.262 343.202C503.996 336.699 504.101 330.616 503.577 325.896C503.367 324.743 503.367 320.023 503.472 315.408C503.786 295.9 495.396 275.867 484.173 269.26C475.258 264.015 464.141 264.959 455.645 271.357C451.45 274.504 447.884 281.006 447.884 285.202C447.989 293.383 455.96 302.298 467.392 306.913C474.419 309.849 474.629 309.639 458.897 312.786C445.681 315.513 431.312 316.037 425.649 314.045C418.412 311.422 413.063 303.766 419.461 305.025C423.551 305.864 427.956 301.773 427.956 297.054C427.956 287.719 419.985 283.314 413.902 289.292C410.86 292.439 410.441 295.795 412.329 304.29C413.692 310.688 419.251 316.247 426.068 318.135C432.361 319.813 448.933 318.659 464.141 315.513C483.439 311.422 489.522 312.052 495.291 318.869C500.43 325.057 501.374 332.714 498.647 348.551C498.228 351.278 498.437 352.746 499.801 354.005C502.738 356.942 504.94 354.529 509.87 343.202C515.743 329.253 521.616 323.694 525.917 327.994C528.224 330.301 529.063 335.965 528.329 345.195C527.595 354.529 524.553 364.074 517.841 377.289C515.324 382.428 512.806 387.882 512.387 389.35C511.233 393.231 505.674 403.929 502.318 408.859C497.808 415.466 491.515 421.445 476.727 433.296C469.28 439.38 460.47 446.616 457.323 449.448C449.772 456.266 440.227 462.454 434.878 463.922C432.466 464.656 424.18 466.544 416.419 468.222C408.658 469.9 401.106 471.474 399.743 471.893C397.54 472.418 397.33 472.208 398.064 470.53C398.484 469.481 399.743 464.761 400.687 460.146C401.735 455.531 403.309 448.924 404.148 445.463C406.665 435.394 406.98 432.667 407.923 411.9C408.763 394.909 409.182 391.868 410.86 389.455C413.482 385.994 416.314 385.575 421.139 387.777C424.285 389.35 424.705 389.875 424.075 392.392C421.558 402.041 428.166 408.229 439.388 406.551C452.499 404.663 455.435 405.712 459.001 413.264C460.889 417.249 462.672 423.962 461.833 423.962C461.624 423.962 459.945 423.228 458.162 422.284C450.821 418.508 431.522 419.347 420.614 424.067C415.265 426.374 411.175 431.513 411.175 435.918C411.175 439.484 415.475 443.889 419.041 443.889C422.502 443.889 422.397 442.421 418.517 439.694C408.448 432.457 423.131 423.332 444.318 423.647C453.338 423.752 460.575 426.269 461.938 429.73C462.987 432.562 459.631 438.121 453.233 444.204C443.059 453.958 433.725 457.419 416.419 457.839C407.399 458.049 405.406 458.363 405.406 459.622C405.406 461.929 421.139 462.244 430.788 460.146C442.64 457.524 449.772 453.329 458.267 444.099C467.707 434.03 466.133 435.604 474.105 427.947C482.705 419.662 491.41 405.188 492.983 396.692C493.613 393.441 493.927 384.211 493.823 376.345C493.613 364.283 493.298 362.081 491.935 362.291C490.676 362.605 490.256 365.647 489.837 379.911C489.313 395.539 489.208 396.063 488.998 385.575C488.788 372.464 486.061 360.088 482.076 353.166C478.929 347.817 472.007 341.419 467.182 339.426C462.987 337.643 453.967 337.643 449.247 339.321C438.13 343.517 430.264 354.32 431.417 364.179C432.151 370.576 434.459 375.086 439.388 380.226C446.206 387.463 454.806 390.189 464.246 388.302C471.692 386.728 473.79 387.567 475.153 392.287C476.622 397.846 476.517 403.405 474.524 412.425C472.112 423.542 470.643 427.528 468.651 427.947C467.287 428.262 466.658 426.898 465.714 422.179C464.141 414.313 460.68 407.39 456.904 404.663C454.387 402.775 452.499 402.461 442.43 402.461C430.998 402.461 430.788 402.461 428.69 399.524C426.802 397.112 426.698 396.273 427.746 394.595C429.739 391.343 429.32 389.77 425.334 386.309C420.405 382.009 412.853 381.694 409.287 385.47C405.721 389.246 404.882 393.651 404.253 410.327C403.728 426.794 402.47 438.016 400.162 447.036C399.323 450.182 398.169 454.902 397.54 457.419C396.491 461.615 396.281 461.824 394.918 460.041C392.925 457.419 393.03 450.078 395.128 441.792C397.435 432.667 397.435 413.159 395.128 403.719C394.184 399.839 391.562 392.077 389.464 386.414C383.905 371.94 384.01 367.745 390.303 358.305C392.925 354.32 395.967 349.495 396.911 347.712C398.904 343.831 399.113 337.853 397.33 336.07C393.974 332.714 383.381 336.385 377.193 343.202C372.788 348.131 369.851 357.151 372.054 359.249C373.102 360.403 375.515 357.886 375.515 355.578C375.515 352.851 378.976 346.244 382.017 343.517C385.059 340.58 392.086 337.643 393.974 338.377C397.016 339.531 395.338 344.146 387.471 355.788C379.92 367.01 379.92 371.835 387.366 391.553C392.82 405.712 394.708 423.018 392.191 436.023C388.52 455.217 388.52 455.741 391.667 462.034C395.547 469.691 394.708 473.152 388.31 475.04L383.905 476.298V473.257C383.905 469.271 379.71 466.964 372.368 466.964C365.865 466.964 360.412 469.166 355.692 473.571C350.657 478.396 347.931 483.011 342.477 496.016C339.855 502.309 336.289 509.127 334.715 511.119L331.674 514.685L327.059 510.28C319.402 502.939 314.997 500.526 309.334 500.526C303.355 500.526 297.692 504.407 298.636 507.868C299.16 509.651 298.636 509.966 295.489 509.966C293.391 509.966 290.455 510.49 288.986 511.014C285.63 512.273 285.525 512.797 292.133 500.421C295.909 493.289 299.475 488.465 305.033 483.011C312.69 475.354 313.948 473.257 310.907 473.257C307.341 473.257 296.223 485.633 290.56 496.121C280.701 513.951 281.225 513.427 270.422 518.671C261.297 523.181 250.914 526.223 251.858 524.02C252.068 523.496 254.06 520.034 256.368 516.259C259.829 510.385 261.507 508.707 268.849 504.197C280.071 497.17 288.252 488.674 293.182 479.025C296.538 472.418 297.272 469.9 297.587 463.083C298.111 453.748 296.328 449.658 290.35 445.987C280.386 439.904 263.29 448.085 263.29 458.993C263.29 467.069 268.954 473.257 276.505 473.257C280.176 473.257 281.435 472.732 283.218 470.32C287.518 464.971 284.267 454.378 278.288 454.378C275.142 454.378 271.681 457.944 271.681 461.195C271.681 464.656 274.617 464.656 275.456 461.195C276.296 457.734 279.757 457.734 281.12 461.195C283.218 466.754 277.869 471.788 272.73 469.061C270.107 467.698 266.437 462.034 266.437 459.307C266.437 455.007 272.625 449.343 279.127 447.77C283.008 446.826 289.091 448.819 291.504 451.861C300.314 463.083 288.567 487.521 268.429 500.002C264.968 502.099 261.822 503.568 261.507 503.253C261.192 502.939 262.346 501.051 264.129 499.058C269.688 492.765 269.898 484.164 264.758 473.991C260.668 466.02 252.068 453.014 243.992 442.946C240.111 438.121 236.44 433.191 235.811 431.933C233.608 427.738 235.601 415.256 240.216 404.768C242.313 400.153 242.628 399.839 246.509 399.839C248.816 399.839 255.214 398.79 260.878 397.636C270.003 395.539 271.995 395.434 278.918 396.587C292.867 398.685 302.621 404.768 309.543 415.466C311.326 418.298 312.585 421.654 312.585 423.647C312.585 426.898 312.375 427.108 309.124 427.108C303.146 427.108 285.84 420.605 284.896 418.088C283.742 415.047 286.364 412.005 287.938 414.522C289.091 416.41 290.56 415.571 290.56 413.054C290.56 407.915 282.903 408.754 281.54 413.893C279.862 420.606 282.274 423.018 295.909 427.738C305.768 431.199 313.214 431.618 315.312 428.786C318.773 424.067 315.627 415.466 307.131 406.551C304.089 403.3 299.37 399.524 296.643 398.161C285.735 392.602 271.156 391.029 259.2 393.965C252.592 395.643 244.411 396.692 244.411 396.063C244.411 395.643 253.326 378.128 254.585 375.821C254.795 375.611 258.151 376.869 262.136 378.757C272.205 383.372 283.008 385.47 292.133 384.631C319.927 382.009 345.099 369.423 360.621 350.229C373.312 334.392 379.186 323.274 383.696 305.969C389.149 285.412 392.296 282.16 408.238 280.587C420.09 279.538 422.188 276.811 425.229 259.401C426.278 253.737 427.537 249.856 428.795 248.598C432.047 245.241 438.13 245.137 446.311 248.073C472.426 257.513 477.356 259.191 483.02 260.345C497.179 263.176 507.562 279.014 507.667 297.473C507.772 302.403 508.401 306.073 509.555 308.276C511.548 312.052 519.938 321.177 521.302 321.177C525.497 321.177 529.063 309.43 529.168 295.271C529.168 289.397 529.273 284.782 529.378 284.887C529.483 284.992 531.056 287.929 532.839 291.6C534.727 295.48 536.72 298.102 537.664 298.102C539.132 298.102 539.342 300.724 538.817 322.54C538.398 343.726 537.978 348.551 535.566 359.878C530.846 381.694 521.512 402.566 506.513 424.591C495.396 440.953 468.965 470.635 467.182 468.852C466.868 468.432 469.909 464.342 473.895 459.622C483.334 448.714 492.04 435.604 491.725 432.877C491.305 429.835 488.578 430.36 487.634 433.611C486.69 437.177 475.992 451.861 466.973 462.034C459.736 470.215 452.604 476.193 430.159 493.08C378.556 531.886 339.54 544.787 286.364 540.487C234.762 536.291 206.129 526.327 162.707 497.17C125.998 472.522 95.6873 438.121 77.6475 400.573C57.4051 358.62 50.7975 308.486 59.3979 261.393C63.3834 239.368 80.6891 195.946 93.5897 175.494C111.839 146.442 142.675 115.187 173.091 94.9443C217.351 65.4723 259.934 55.7181 315.207 62.6404ZM311.117 73.758C313.634 74.3873 315.731 75.1215 315.731 75.2264C315.731 75.4361 314.053 77.2191 312.061 79.2119C309.439 81.834 308.39 83.8268 308.39 86.1342V89.3855L300.838 89.4904C296.643 89.4904 289.196 89.91 284.267 90.3295C279.337 90.749 275.247 90.9588 275.037 90.8539C274.408 90.4344 277.135 85.9244 280.386 81.834C282.693 78.8973 283.323 77.324 282.798 75.3312L282.169 72.6043H294.23C300.943 72.6043 308.495 73.1287 311.117 73.758ZM278.603 75.2264C278.918 76.0654 277.554 79.0022 275.456 81.834C273.464 84.6658 271.261 88.127 270.737 89.5953C269.793 92.0076 268.954 92.3223 260.248 93.476C255.004 94.1053 249.97 94.9443 248.921 95.259C247.872 95.5736 249.446 93.6857 252.487 90.9588C255.529 88.3367 259.409 83.617 261.192 80.4705C263.919 75.7508 264.968 74.8068 267.8 74.3873C275.352 73.4434 278.079 73.6531 278.603 75.2264ZM259.095 76.5898C259.095 78.6875 252.487 86.4488 247.872 89.9099C245.04 91.9027 239.062 95.0492 234.447 96.8322C229.832 98.7201 223.854 101.342 221.127 102.706C218.4 103.964 215.673 105.118 215.149 105.118C214.624 105.118 212.737 102.706 210.849 99.8738C207.388 94.5248 205.29 93.6857 204.765 97.3566C204.556 98.5103 205.814 100.713 207.702 102.496C211.478 106.062 211.688 107.635 208.541 108.999C206.548 109.838 205.919 109.628 205.08 107.845C203.297 104.174 197.424 101.762 191.97 102.496C178.44 104.174 159.876 119.382 152.639 134.8C148.968 142.351 148.443 142.981 141.836 146.652C125.894 155.462 119.601 160.811 115.405 169.201C112.259 175.285 109.322 187.451 108.168 198.988C107.224 207.798 106.49 210.735 103.449 216.504L99.8826 223.321L99.2533 219.545C98.9387 217.447 98.624 210.525 98.624 204.232C98.7289 184.724 102.819 176.019 123.376 151.896C138.27 134.485 155.261 118.228 168.266 108.894C188.613 94.315 217.771 82.673 247.033 77.4289C257.207 75.6459 259.095 75.541 259.095 76.5898ZM348.245 79.8412C361.775 84.4561 386.842 96.5176 384.535 97.3566C379.29 99.3494 357.685 95.1541 347.721 90.2246C342.896 87.7074 327.269 76.9045 327.269 76.0654C327.269 74.8068 339.75 77.0094 348.245 79.8412ZM332.618 84.7707C351.182 97.6713 357.58 99.8738 378.556 100.608L393.764 101.237L402.679 109.943L411.699 118.543L401.211 113.404C395.442 110.572 386.947 107.32 382.332 106.167C368.802 102.915 334.925 96.7273 330.1 96.7273C323.703 96.7273 322.234 95.4687 324.122 92.0076C325.171 90.0148 325.276 88.7563 324.437 87.4977C322.968 85.1902 321.605 85.5049 320.976 88.5465C320.137 91.9027 313.109 92.7418 312.165 89.5953C310.802 85.4 316.466 77.8484 320.871 77.8484C321.92 77.8484 327.164 80.9949 332.618 84.7707ZM316.675 95.3639C318.983 96.3078 318.563 96.5176 312.165 98.1957C297.797 101.762 289.406 107.74 280.176 121.165C275.981 127.143 273.149 129.765 265.178 135.114C259.829 138.68 255.319 141.512 255.109 141.407C254.585 140.778 260.039 117.914 261.717 113.823C262.975 110.782 270.003 98.9299 272.52 95.6785C273.988 93.6857 311.851 93.3711 316.675 95.3639ZM266.017 99.0348C258.885 109.104 256.892 114.138 253.221 131.024C251.648 138.89 249.341 145.812 246.509 151.476C244.201 156.196 242.313 160.601 242.313 161.335C242.313 163.328 236.964 168.048 234.762 168.048C231.825 168.048 229.413 164.796 223.854 153.888C221.232 148.644 216.198 140.988 212.841 136.793C204.241 126.304 202.982 123.577 204.765 118.333C206.024 114.453 206.968 113.823 219.239 107.635C228.049 103.125 233.189 101.132 234.762 101.552C236.021 101.762 239.167 101.447 241.579 100.818C247.977 99.1397 260.144 96.9371 264.234 96.8322C267.695 96.7273 267.695 96.7273 266.017 99.0348ZM200.465 108.16L202.982 110.152L200.36 112.355C194.592 117.18 155.366 140.044 154.317 139.1C154.107 138.89 155.261 136.478 156.939 133.751C162.707 123.787 177.391 110.572 186.201 107.425C191.34 105.642 197.738 105.957 200.465 108.16ZM430.893 110.572C444.423 119.697 483.649 153.784 493.823 165.216C516.372 190.597 531.161 224.16 536.51 261.918C538.503 276.601 538.398 294.222 536.3 289.502C535.566 287.929 533.888 284.887 532.524 282.685C530.741 279.958 529.588 275.657 528.644 269.26C526.126 250.695 515.114 212.728 507.143 194.688C504.521 188.605 493.718 172.243 487.53 164.796C479.139 154.728 469.595 150.427 464.98 154.728C463.197 156.301 462.882 156.091 460.155 150.952C455.855 142.666 447.779 132.492 435.717 119.906C422.502 106.062 421.558 104.174 430.893 110.572ZM199.836 121.48C198.682 129.136 193.858 135.849 178.125 151.686C166.588 163.328 162.603 166.789 162.603 165.111C162.603 159.552 158.722 155.357 152.219 153.888C149.387 153.259 148.863 152.84 149.387 150.952C149.702 149.693 150.017 148.12 150.017 147.386C150.017 146.756 153.688 144.134 158.197 141.722C181.062 129.241 194.802 121.375 197.109 119.592C200.465 117.075 200.57 117.075 199.836 121.48ZM212.107 141.722C214.31 144.344 218.086 150.427 220.393 155.357C222.805 160.286 225.427 165.216 226.371 166.265C227.21 167.209 227.735 168.257 227.42 168.572C227.105 168.887 222.071 168.153 215.988 166.894C201.095 163.852 183.474 164.482 172.357 168.362C168.161 169.831 165.015 170.565 165.33 170.04C165.644 169.516 172.357 162.699 180.328 154.937C189.348 146.127 196.06 138.576 198.263 134.695L201.934 128.507L204.975 132.807C206.653 135.219 209.905 139.205 212.107 141.722ZM145.821 149.693C145.821 151.266 142.57 156.301 140.053 158.608C138.48 160.077 135.018 165.635 132.501 171.089C128.096 180.634 118.762 195.946 113.727 201.925L111.315 204.757L111.839 199.303C112.888 189.129 115.405 178.326 118.132 172.243C121.384 164.901 126.103 160.181 136.382 153.993C144.038 149.378 145.821 148.539 145.821 149.693ZM399.113 157.245C398.589 158.294 397.645 161.755 396.806 164.901C393.659 177.592 392.191 181.368 389.045 184.619C383.486 190.388 374.466 188.71 374.466 181.997C374.466 178.326 377.298 175.389 380.864 175.389C386.632 175.389 388.835 173.711 390.723 167.838C391.772 164.796 393.659 160.706 395.128 158.818C397.855 155.252 400.372 154.203 399.113 157.245ZM476.412 159.657C481.132 162.804 488.369 170.565 488.998 173.187C489.208 173.921 487.634 175.075 485.642 175.704C483.229 176.543 481.656 177.907 481.027 179.899C479.244 184.934 483.229 190.702 493.927 198.778C499.067 202.659 503.786 206.54 504.521 207.379C506.513 209.791 505.989 216.923 503.472 222.062C501.059 227.097 496.025 233.075 494.242 233.075C492.774 233.075 483.544 214.616 480.083 204.757C475.888 192.695 466.763 162.069 466.763 159.867C466.763 155.462 470.014 155.357 476.412 159.657ZM155.261 158.608C160.085 161.23 159.771 170.25 154.527 176.438C149.702 182.207 127.886 198.988 119.915 203.079C116.664 204.652 116.874 204.337 123.481 194.583C127.257 188.919 132.606 179.585 135.333 173.816C138.48 167.104 141.521 162.174 143.619 160.391C147.185 157.454 151.695 156.72 155.261 158.608ZM495.291 182.626C498.857 186.822 506.618 201.191 506.618 203.708C506.618 204.442 504.311 202.974 501.479 200.456C498.752 197.939 493.718 193.534 490.466 190.807C484.488 185.668 483.124 182.521 485.851 179.795C488.264 177.382 491.725 178.431 495.291 182.626ZM204.661 188.29C218.61 195.003 225.742 208.008 222.386 220.489C221.652 223.111 218.295 230.872 214.939 237.795C207.912 251.954 205.605 260.764 205.605 273.455C205.605 305.339 224.169 349.18 245.46 367.535C248.397 370.052 250.704 372.884 250.704 373.828C250.704 376.135 241.265 394.385 239.691 394.909C237.804 395.643 230.776 392.916 227.945 390.189C222.805 385.47 221.022 377.813 223.959 373.198C226.057 369.947 225.008 367.535 220.917 366.486C217.666 365.647 217.666 365.542 217.456 358.515C217.037 345.405 210.114 330.196 203.087 326.735C199.731 325.162 199.207 325.162 196.689 326.84C193.123 329.148 191.97 332.504 191.97 340.055C191.97 352.537 197.948 363.13 207.178 366.905C209.8 368.059 211.688 369.318 211.583 369.947C210.324 373.828 183.369 391.448 178.65 391.448C174.559 391.448 160.19 386.414 155.261 383.267C150.436 380.121 141.626 371.73 141.626 370.262C141.626 367.64 147.08 369.842 158.827 377.079C164.281 380.435 165.959 380.96 171.727 380.96C179.908 380.96 186.306 378.128 187.355 374.038C188.299 370.157 185.572 363.969 181.586 361.347C175.293 357.151 162.603 359.039 162.603 364.179C162.603 366.801 162.707 366.801 167.532 364.179C172.252 361.661 174.349 361.556 178.335 363.654C183.579 366.381 185.152 371.835 181.796 374.981C179.384 377.079 172.986 378.233 168.371 377.394C166.378 376.974 161.239 374.247 156.939 371.311C150.121 366.801 148.234 366.066 143.724 365.962C138.899 365.857 138.165 365.542 133.026 360.298L127.467 354.634L131.347 356.312C139.948 359.878 147.709 356.627 150.017 348.656C151.275 343.831 151.38 331.245 150.121 326.735C149.178 323.589 149.387 323.379 152.324 322.33C159.351 319.813 163.651 321.386 163.651 326.421C163.651 329.987 162.603 331.245 159.141 332.084C155.575 332.923 155.89 335.231 159.666 335.65C163.547 336.175 166.798 332.819 167.532 327.784C168.056 323.904 167.742 322.96 164.91 320.128C163.022 318.345 160.61 316.981 159.141 316.981C157.673 316.981 151.17 318.659 144.563 320.862C134.074 324.218 131.452 324.638 122.223 324.638C105.232 324.638 101.666 321.491 111.315 314.988C116.244 311.632 117.398 311.318 127.886 310.583C137.431 309.849 140.892 309.01 151.8 305.025C162.183 301.144 165.959 300.2 171.413 300.2C177.181 300.2 178.65 300.62 181.377 302.927C183.894 305.025 184.628 306.493 184.628 309.535C184.628 311.632 183.894 314.464 182.95 315.828C181.377 318.03 180.642 318.24 175.608 317.611C170.993 317.086 169.944 317.296 169.944 318.554C169.944 320.652 173.301 322.225 177.706 322.225C180.328 322.225 182.425 321.281 184.838 319.184C187.984 316.457 188.299 315.513 188.299 310.374C188.299 305.654 187.774 304.081 185.677 301.773C178.755 294.327 170.049 294.222 151.065 301.249C140.892 305.129 137.326 305.864 127.886 306.598C115.615 307.437 113.622 308.171 107.854 313.52L104.078 317.191L102.924 313.205C101.351 307.647 101.246 308.276 106.385 300.2C114.147 288.243 117.713 284.887 125.684 282.265C140.367 277.545 155.156 267.686 158.932 260.24C161.134 256.044 160.924 251.22 158.512 249.961C152.534 246.71 121.069 262.232 101.246 278.175L97.0508 281.531L96.7361 275.028C96.5264 271.462 97.1557 264.959 97.9947 260.659C98.9387 256.359 99.6729 251.534 99.6729 249.961C99.6729 248.388 101.036 244.927 102.819 242.2C106.071 237.061 107.644 235.802 106.49 239.263C105.651 241.99 108.378 248.388 111 249.751C114.566 251.639 119.705 251.01 124.53 248.178C129.879 245.137 137.85 234.858 139.633 228.775C140.787 225.209 141.311 224.684 144.143 224.684C149.178 224.789 155.156 228.041 163.127 235.173C172.147 243.354 178.964 246.71 186.621 246.71C196.689 246.71 203.926 241.571 209.59 230.243C214.729 220.279 213.89 212.518 207.178 204.966C196.375 192.905 178.23 191.017 166.483 200.666C161.763 204.547 157.568 212.413 156.624 219.021C156.1 223.321 155.785 223.74 153.792 223.111C152.534 222.796 149.492 222.167 147.08 221.853L142.465 221.223L143.199 213.777C143.619 209.686 144.668 205.071 145.507 203.393C147.919 198.569 159.351 191.227 171.518 186.822C175.608 185.248 179.174 184.934 187.774 185.144C197.214 185.458 199.626 185.878 204.661 188.29ZM145.402 191.332C145.192 192.066 143.933 195.842 142.675 199.722C140.472 206.435 140.053 206.959 131.872 213.252C127.152 216.923 118.342 223.845 112.364 228.565C106.385 233.39 101.351 237.165 101.141 237.061C100.512 236.326 102.924 226.362 105.022 221.433C107.539 215.664 112.993 211.05 125.789 203.813C129.145 201.925 134.809 198.044 138.165 195.212C144.353 190.073 146.451 189.024 145.402 191.332ZM195.641 200.981C198.577 202.239 202.668 205.386 204.87 207.693C208.331 211.574 208.751 212.728 208.751 217.657C208.751 224.475 206.024 230.453 200.36 236.641C190.921 246.815 179.908 245.556 166.064 232.655C160.4 227.411 159.876 226.572 160.085 222.901C160.82 208.008 170.259 198.464 184.104 198.464C188.509 198.464 191.97 199.198 195.641 200.981ZM96.002 227.831L96.6313 241.99L92.1213 249.227C86.5625 258.142 81.633 261.393 76.9133 259.086C72.8229 257.093 71.0398 252.898 71.8789 246.815C72.8229 239.683 73.557 238.844 77.5426 240.207C83.2063 242.2 88.1357 239.892 91.1773 233.704C93.6945 228.775 93.6945 228.355 92.4359 219.545C91.2822 210.945 91.2822 209.476 93.0652 204.966C94.0092 202.449 95.1629 210.84 96.002 227.831ZM138.899 217.133L138.27 221.328L131.243 222.901C127.467 223.845 124.215 224.37 124.006 224.265C123.691 223.845 138.899 212.308 139.319 212.623C139.423 212.728 139.319 214.825 138.899 217.133ZM255.004 215.56C259.2 218.287 262.241 223.845 262.241 228.565C262.241 232.97 260.668 232.97 252.172 228.985C243.048 224.684 238.747 218.182 242.523 214.406C244.621 212.308 251.124 212.937 255.004 215.56ZM516.582 233.075C521.092 248.912 526.022 270.728 525.182 271.462C524.448 272.196 501.794 246.5 499.172 241.885L496.235 236.851L500.22 233.075C504.311 229.089 507.877 222.377 509.24 216.399C510.289 211.469 510.814 212.623 516.582 233.075ZM89.0797 224.999C89.2895 234.543 83.1014 240.207 77.2279 235.907C75.4449 234.648 75.4449 234.019 76.4938 230.663C77.2279 228.46 79.9549 224.055 82.6818 220.804C87.2967 215.035 87.6113 214.93 88.2406 217.447C88.6602 218.811 88.9748 222.272 89.0797 224.999ZM136.382 227.097C136.382 229.509 128.411 241.046 125.159 243.354C117.922 248.493 111.944 248.388 110.581 243.039C109.742 239.683 111.315 237.9 115.196 237.795C118.657 237.795 118.866 236.117 115.72 234.648C114.356 234.124 113.308 233.39 113.308 233.075C113.308 231.712 118.657 229.404 125.369 227.726C134.599 225.523 136.382 225.419 136.382 227.097ZM484.907 234.019C490.991 237.061 492.459 238.424 495.815 243.773C497.808 247.234 503.681 254.366 508.611 259.715C523.504 275.448 525.497 277.965 525.497 281.006C525.497 283.209 525.182 283.524 524.239 282.58C522.036 280.377 518.26 281.111 517.002 283.838C514.589 289.187 518.994 298.102 524.029 298.102C524.973 298.102 525.497 299.256 525.497 300.934C525.497 304.29 522.875 314.779 521.826 315.828C521.407 316.142 518.994 314.149 516.477 311.213C512.072 306.283 511.862 305.654 511.862 299.676C511.862 287.404 507.143 274.084 500.22 266.113C496.654 262.128 496.864 261.498 500.955 264.12C503.052 265.484 503.891 265.589 504.835 264.645C506.723 262.652 502.213 259.505 496.34 258.771C488.683 257.722 487.739 257.303 482.181 252.059C474.209 244.612 470.853 235.487 474.734 231.502C475.678 230.558 476.727 229.929 477.146 230.138C477.461 230.348 480.922 232.026 484.907 234.019ZM303.985 238.739C306.712 240.102 311.012 243.354 313.529 245.871C318.354 250.59 323.703 257.932 322.968 258.771C322.654 258.981 320.346 257.513 317.829 255.415C311.746 250.59 299.894 244.927 294.126 243.983C289.511 243.354 289.511 243.249 289.511 239.158V234.858L294.23 235.487C296.853 235.907 301.153 237.375 303.985 238.739ZM305.768 252.478C313.319 256.149 326.22 266.742 326.22 269.26C326.22 269.994 325.066 271.357 323.703 272.196C321.29 273.874 321.081 273.77 318.458 269.784C314.053 263.071 305.977 258.247 299.055 258.247C296.748 258.247 295.804 257.408 293.916 253.527C292.657 250.905 291.608 248.493 291.608 248.073C291.608 246.815 298.74 249.017 305.768 252.478ZM93.9043 262.862C93.0652 268.421 92.3311 275.972 92.3311 279.643C92.3311 285.202 91.9115 286.88 89.8139 289.397C88.4504 290.97 86.143 294.641 84.5697 297.578L81.8428 302.822L82.1574 293.383C82.4721 284.782 82.9965 282.58 88.6602 268.001C92.1213 259.191 95.058 252.164 95.2678 252.373C95.3727 252.583 94.8482 257.303 93.9043 262.862ZM156.834 254.052C157.778 255.625 153.583 261.918 148.863 266.008C140.682 273.035 129.04 278.07 116.349 280.167C108.168 281.531 104.917 281.636 104.917 280.482C104.917 279.538 123.481 267.162 132.396 262.128C138.375 258.666 152.009 253.108 154.422 253.003C155.366 253.003 156.519 253.527 156.834 254.052ZM79.5354 263.491C80.8988 263.491 82.8916 262.967 84.1502 262.337C85.3039 261.708 86.4576 261.393 86.6674 261.708C86.982 261.918 85.199 267.057 82.6818 273.035C78.2768 283.943 78.1719 283.943 78.2768 296.739C78.3816 303.871 77.9621 309.325 77.4377 309.01C77.0182 308.696 75.2352 305.969 73.7668 303.032C71.0398 297.788 70.8301 296.844 70.5154 278.384L70.0959 259.191L73.6619 261.393C75.5498 262.547 78.1719 263.491 79.5354 263.491ZM308.18 264.959C310.068 265.903 313.005 268.63 314.683 271.043C317.514 274.923 317.724 275.657 316.361 276.916C314.997 278.279 314.368 278.175 311.431 275.657C309.648 274.084 306.712 272.511 305.138 272.196C301.363 271.462 300.419 270.204 299.475 265.379L298.74 261.498L301.782 262.337C303.46 262.862 306.397 264.015 308.18 264.959ZM281.12 264.12C281.12 264.54 279.022 267.057 276.505 269.784C267.59 279.328 263.29 290.656 262.346 307.542L261.717 319.603L258.57 314.359C253.955 306.598 253.012 303.556 252.907 295.9C252.802 286.775 255.109 280.377 260.878 273.979C266.017 268.211 269.373 266.113 275.561 264.645C280.805 263.386 281.12 263.386 281.12 264.12ZM347.196 275.657C347.196 282.37 346.672 284.677 344.155 290.131C341.218 296.214 332.198 306.493 330.939 305.234C330.52 304.92 330.73 302.822 331.359 300.62C333.247 293.173 333.771 284.048 332.618 277.755C331.988 274.294 331.674 271.357 331.883 271.043C333.037 269.889 340.694 267.791 343.84 267.686H347.196V275.657ZM359.677 274.923C367.019 285.097 367.963 294.536 362.824 305.025C352.86 325.267 330.835 335.126 309.858 328.728C305.872 327.47 301.677 325.791 300.523 324.952C298.531 323.379 298.636 323.379 302.202 323.274C309.439 323.274 316.361 320.338 322.339 314.884C325.486 312.052 328.317 309.954 328.632 310.269C330.52 312.262 343.106 300.934 346.672 293.802C349.504 288.558 351.392 280.482 351.392 274.189V268.63L354.433 270.308C356.111 271.147 358.524 273.245 359.677 274.923ZM482.915 272.826C487.32 275.657 492.039 282.055 494.976 289.397C497.284 295.375 500.325 309.01 500.325 313.73V316.876L495.186 313.415C492.354 311.527 488.159 309.639 485.851 309.22C479.454 308.276 465.294 302.507 460.47 299.046C447.15 289.397 450.296 274.399 466.553 270.308C472.322 268.84 477.775 269.679 482.915 272.826ZM298.74 276.811C298.95 278.489 297.901 279.643 294.65 281.426C288.881 284.572 284.476 290.97 283.637 297.054C282.484 305.864 289.301 312.262 299.475 312.052C308.809 311.737 316.99 306.808 321.29 298.732C323.178 295.271 323.598 292.753 323.493 285.412C323.493 277.545 323.703 276.182 325.486 275.133C326.534 274.399 327.688 274.084 327.898 274.294C328.108 274.504 328.632 278.489 329.052 283.104C330.625 304.5 319.297 319.289 301.153 319.498C289.825 319.498 284.057 314.884 280.596 302.927C276.82 289.817 282.274 277.545 293.182 274.923C297.377 273.979 298.321 274.294 298.74 276.811ZM308.809 279.328C311.431 282.37 312.27 286.67 310.907 290.131C309.858 292.858 308.39 292.019 308.39 288.768C308.39 286.985 307.236 284.363 305.768 282.58C302.831 279.119 302.306 276.077 304.614 276.077C305.453 276.077 307.341 277.545 308.809 279.328ZM319.927 286.985C319.927 292.753 319.507 294.327 316.571 298.732C312.165 305.129 306.712 307.961 298.636 308.066C293.182 308.066 292.238 307.752 289.93 305.13C285.315 299.78 287.623 290.656 294.755 285.726C298.845 282.999 300.943 284.468 298.426 288.348C296.538 291.18 296.328 297.158 298.111 298.941C300.943 301.773 308.495 299.361 312.48 294.327C314.053 292.334 314.683 290.026 314.683 286.46C314.683 283.524 315.207 281.321 316.046 281.006C319.402 279.538 319.927 280.272 319.927 286.985ZM111 287.404C109.532 288.978 106.385 293.173 104.078 296.844C100.827 301.878 99.6729 303.032 99.2533 301.563C97.9947 297.578 96.9459 286.565 97.6801 285.831C98.0996 285.412 101.875 284.887 106.071 284.782L113.622 284.572L111 287.404ZM524.868 288.768C525.287 291.18 525.287 293.383 524.973 293.697C523.504 295.166 520.777 291.809 520.463 288.243C520.148 285.097 520.463 284.468 522.141 284.468C523.714 284.468 524.343 285.412 524.868 288.768ZM304.614 287.195C305.768 290.131 305.243 293.592 303.67 294.956C301.258 296.949 299.37 294.851 300.943 292.019C301.572 290.865 302.097 288.873 302.097 287.719C302.097 285.097 303.67 284.782 304.614 287.195ZM95.058 299.571L96.7361 307.856L94.0092 313.52L91.1773 319.184L88.0309 317.296C82.0525 313.73 81.7379 312.891 84.2551 307.017C87.0869 300.62 92.5408 290.656 92.9604 291.075C93.1701 291.285 94.1141 295.166 95.058 299.571ZM423.866 294.327C425.124 298.837 423.341 301.459 419.251 301.039C416.314 300.724 415.895 300.305 415.58 297.263C415.16 292.963 417.048 290.551 420.405 290.97C422.397 291.18 423.341 292.124 423.866 294.327ZM100.617 317.611C102.19 322.016 101.875 322.54 98.2045 321.596C95.1629 320.862 94.9531 320.338 96.7361 316.457C98.3094 312.996 99.0436 313.101 100.617 317.611ZM260.458 324.743C264.234 332.294 264.234 341.104 260.563 341.104C256.787 341.104 253.536 331.14 254.585 322.435C255.319 315.932 256.368 316.352 260.458 324.743ZM85.6186 320.233C87.6113 321.386 89.1846 322.645 89.1846 322.855C89.1846 323.484 85.7234 336.28 85.4088 336.699C84.6746 337.748 78.6963 332.084 78.6963 330.511C78.6963 327.679 80.8988 318.03 81.5281 318.03C81.8428 318.03 83.7307 318.974 85.6186 320.233ZM100.931 326.001C102.924 326.526 104.707 328.204 106.595 331.56C113.308 342.992 135.857 371.206 146.346 381.17C151.38 385.994 160.295 390.819 167.113 392.497C169.839 393.231 172.042 394.175 172.042 394.595C172.042 395.014 170.469 396.063 168.686 396.797C166.798 397.531 162.812 400.468 159.771 403.3C150.961 411.586 148.653 422.493 154.631 428.052C162.707 435.709 178.02 428.157 177.076 416.935C176.657 411.271 173.72 411.481 173.405 417.144C172.986 428.367 155.261 431.304 155.261 420.081C155.261 412.844 162.498 403.614 171.937 398.79C177.181 396.168 180.433 396.168 185.467 398.685C193.543 402.88 197.214 408.859 197.214 417.983C197.214 433.191 180.433 448.609 162.498 449.973C156.1 450.392 155.471 450.287 153.792 447.98C152.848 446.616 152.114 445.253 152.114 444.938C152.114 444.624 154.841 444.309 158.197 444.309C166.483 444.204 174.14 440.638 179.908 434.24C185.362 428.157 187.145 423.437 186.516 416.515C185.677 408.124 179.174 403.09 171.727 405.188C167.532 406.341 162.812 411.586 162.393 415.571C161.973 419.032 165.225 419.662 166.169 416.305C167.008 412.844 171.832 408.229 174.559 408.229C180.747 408.229 184.313 414.417 182.53 422.074C179.803 433.191 168.056 441.372 155.68 440.533C152.009 440.323 148.653 439.799 148.234 439.275C147.814 438.855 147.29 430.569 147.185 421.025C146.87 399.314 145.192 391.763 137.745 377.289C133.445 369.003 130.404 365.542 122.328 360.298C118.237 357.571 113.203 353.9 111.105 352.012C109.007 350.124 103.134 346.768 98.2045 344.356C93.275 342.048 89.1846 339.426 89.1846 338.692C89.1846 337.119 92.2262 326.421 93.0652 325.057C93.3799 324.533 94.6385 324.428 95.8971 324.743C97.0508 325.162 99.3582 325.687 100.931 326.001ZM146.765 336.175C146.975 346.768 146.765 348.341 144.772 350.858C140.263 356.522 129.145 353.271 120.335 343.936C117.608 340.999 109.112 329.148 109.112 328.309C109.112 328.099 115.091 327.994 122.537 327.889C131.557 327.784 137.431 327.26 140.577 326.106C143.199 325.267 145.612 324.533 145.926 324.428C146.346 324.323 146.66 329.672 146.765 336.175ZM204.241 331.875C209.171 337.329 213.995 350.649 213.995 359.039C213.995 361.766 213.576 364.388 212.946 364.703C211.688 365.542 205.814 362.5 202.248 359.144C198.577 355.683 195.955 347.817 195.746 339.531C195.536 330.092 199.416 326.63 204.241 331.875ZM81.5281 339.007C84.0453 340.895 84.2551 341.734 84.36 350.439C84.4648 358.934 84.6746 360.088 87.0869 362.605C89.4992 365.122 90.2334 365.437 95.058 364.913C100.092 364.388 100.722 364.598 103.658 367.64C106.28 370.367 106.7 371.311 105.756 372.989C104.078 376.03 105.337 390.924 108.063 398.79C111.525 409.068 116.349 418.088 121.488 423.962C129.774 433.506 123.691 429.416 112.364 417.879C96.841 402.041 87.926 386.414 81.4232 363.759C78.6963 354.634 76.5986 336.909 78.067 336.909C78.5914 336.909 80.0598 337.853 81.5281 339.007ZM463.721 342.153C469.175 343.726 476.307 350.439 479.663 357.361C484.383 366.801 485.851 376.974 485.012 394.07C484.278 407.915 484.068 409.068 481.132 413.788C479.454 416.515 477.88 418.613 477.566 418.298C477.251 418.088 477.566 415.361 478.195 412.425C479.768 404.873 479.663 393.126 477.775 388.826C475.888 384.106 472.007 382.533 466.029 384.001C457.218 386.309 450.191 384.736 443.689 379.072C429.844 367.22 433.83 348.131 451.24 342.678C456.799 340.895 458.897 340.79 463.721 342.153ZM97.0508 348.027C101.456 350.124 107.12 353.795 109.742 356.207L114.461 360.508L112.259 363.864C111.105 365.752 109.742 367.325 109.217 367.325C107.224 367.325 101.771 359.878 101.771 357.047C101.771 355.473 101.246 353.48 100.722 352.641C99.1484 350.229 97.1557 353.061 97.0508 357.676C97.0508 361.032 96.7361 361.556 94.3238 361.871C91.0725 362.291 89.2895 360.298 88.0309 355.054C87.1918 351.488 87.7162 344.251 88.765 344.251C88.9748 344.251 92.7506 345.929 97.0508 348.027ZM122.747 364.808C130.404 369.842 137.431 382.113 141.416 397.217C143.304 404.244 143.619 408.229 143.514 422.074C143.409 431.199 142.989 438.645 142.675 438.645C142.255 438.645 139.843 437.282 137.326 435.604C131.243 431.513 120.859 418.403 116.139 408.859C110.476 397.426 106.7 380.121 108.903 376.24C109.951 374.247 109.742 374.038 116.139 381.694C118.971 385.26 123.167 385.784 125.894 383.057C127.152 381.799 127.991 380.016 127.781 379.072C127.257 376.45 124.215 376.24 123.481 378.862C122.537 382.323 120.02 381.274 116.035 375.821L112.259 370.681L115.091 366.381C116.559 363.969 118.027 362.081 118.237 362.081C118.447 362.081 120.44 363.339 122.747 364.808ZM219.449 376.66C219.03 383.162 219.239 384.526 221.756 388.616C223.749 392.077 225.952 394.07 229.937 396.063C232.874 397.531 236.021 398.79 236.86 398.79C237.908 398.79 238.118 399.419 237.594 400.573C234.867 407.18 231.511 419.137 231.091 424.276C230.776 427.633 230.147 430.569 229.623 430.884C228.679 431.408 221.442 422.074 218.925 417.144C215.044 409.488 213.785 400.783 214.205 386.204C214.415 378.338 215.044 371.415 215.464 370.681C215.883 369.947 217.037 369.423 218.086 369.423C219.764 369.423 219.973 370.157 219.449 376.66ZM210.324 390.189C210.429 400.992 210.849 404.978 212.841 411.271C215.673 420.501 215.254 424.172 210.429 435.499C208.541 439.799 206.129 445.358 205.08 447.875C204.031 450.287 202.563 452.805 201.724 453.434C199.626 455.217 200.046 457.524 202.563 457.524C204.765 457.524 204.765 457.419 213.89 436.967C215.673 432.877 217.142 428.577 217.142 427.318C217.142 423.332 218.715 424.067 223.435 430.045L228.154 436.023V445.987C228.154 454.588 228.364 455.951 230.042 456.266C231.615 456.58 231.825 455.636 231.825 447.77C231.825 434.555 232.14 434.345 239.272 443.155C251.543 457.944 263.814 477.976 264.339 483.745C264.968 491.087 264.339 493.289 260.144 497.799C252.907 505.561 247.663 507.239 228.679 507.658C218.715 507.868 211.268 507.553 209.485 506.924C205.814 505.456 202.563 498.533 202.458 492.136V487.311L208.541 484.584C222.071 478.291 232.035 462.034 225.952 456.056C223.33 453.329 219.344 454.063 208.751 459.097C199.207 463.607 198.368 463.817 189.243 463.817C180.328 463.817 179.279 463.607 171.098 459.622C166.378 457.314 162.707 455.007 163.022 454.483C163.337 454.063 165.434 453.329 167.637 453.119C173.93 452.175 184.628 446.407 190.606 440.533C199.102 432.143 203.087 420.291 200.465 410.747C198.997 405.293 191.97 397.217 187.25 395.539L183.789 394.28L191.236 389.98C196.585 386.938 210.324 377.394 210.324 376.764C210.324 376.764 210.324 382.743 210.324 390.189ZM146.241 444.414C147.08 445.358 148.653 447.351 149.597 449.029C151.695 452.595 161.659 459.412 170.993 463.712C179.174 467.488 185.677 471.369 185.677 472.418C185.677 473.886 177.811 477.242 172.566 477.872L167.217 478.606L160.4 471.474C156.624 467.593 152.114 462.244 150.331 459.622C147.29 455.112 141.626 444.624 141.626 443.365C141.626 442.211 144.668 442.946 146.241 444.414ZM224.169 460.251C225.742 464.447 216.303 476.508 208.541 480.284C200.57 484.164 199.836 484.164 197.319 480.389C196.165 478.501 194.592 476.089 193.858 475.04C192.704 473.362 192.914 472.732 196.06 470.32C201.095 466.334 217.142 458.783 220.603 458.678C222.386 458.573 223.749 459.202 224.169 460.251ZM445.996 465.705C444.213 467.908 439.179 473.152 434.773 477.347C407.294 503.358 368.592 522.656 346.462 521.293C341.113 520.873 338.176 520.244 336.708 518.881C334.715 517.098 334.715 516.993 337.862 513.217C339.54 511.014 343.106 504.197 345.728 497.904C352.965 480.703 357.265 475.04 365.97 471.474C369.641 469.9 376.668 470.32 379.605 472.208C382.332 473.781 379.29 477.976 372.893 481.647C369.641 483.535 366.39 485.947 365.761 487.101C365.026 488.15 362.614 489.933 360.202 490.982C354.853 493.394 350.657 498.743 349.714 504.302C349.189 507.868 349.504 509.022 351.706 511.644C353.909 514.161 355.063 514.685 358.733 514.581C367.229 514.266 382.542 504.722 387.681 496.226C388.206 495.282 391.876 494.128 396.491 493.394C400.791 492.66 406.77 490.877 409.811 489.514C417.573 486.052 434.774 473.781 441.381 467.278C447.779 460.776 450.506 459.937 445.996 465.705ZM191.97 468.537C191.236 469.376 190.082 470.11 189.348 470.11C188.613 470.11 187.46 469.376 186.726 468.537C185.572 467.173 185.991 466.964 189.348 466.964C192.704 466.964 193.123 467.173 191.97 468.537ZM436.347 467.488C436.347 467.698 433.62 469.796 430.368 471.998C427.012 474.305 421.034 478.291 417.153 480.913C407.819 487.311 391.247 492.45 391.247 488.989C391.247 488.465 392.401 485.423 393.764 482.381L396.282 476.718L404.777 474.41C409.497 473.152 417.258 471.369 422.188 470.53C427.117 469.691 432.151 468.537 433.515 468.013C436.452 466.859 436.347 466.859 436.347 467.488ZM192.494 479.235C193.963 481.438 195.116 483.535 195.116 483.955C195.116 485.213 181.481 484.899 176.762 483.64L172.566 482.381L178.02 480.494C181.062 479.445 184.628 477.872 185.887 477.032C189.138 474.725 189.453 474.83 192.494 479.235ZM390.198 479.445C390.198 479.864 389.149 482.696 387.996 485.738L385.688 491.087L380.339 490.982C374.046 490.877 370.166 489.933 370.061 488.465C370.061 487.416 386.737 478.606 388.94 478.501C389.569 478.501 390.198 478.92 390.198 479.445ZM177.706 487.521C182.111 488.674 186.201 488.989 191.026 488.57L197.948 487.94L198.577 493.184C198.892 496.016 199.941 499.792 200.885 501.575C201.829 503.463 202.458 505.036 202.248 505.246C202.038 505.351 199.312 504.826 196.165 503.987C183.369 500.736 169.944 492.45 169.944 487.731C169.944 485.423 169.735 485.423 177.706 487.521ZM375.515 494.233C378.137 494.233 380.969 494.758 381.808 495.282C384.22 496.75 377.507 503.043 368.802 507.448C358.629 512.483 353.489 512.063 353.489 506.085C353.489 499.163 360.726 492.66 367.124 493.604C369.117 493.919 372.893 494.233 375.515 494.233ZM315.207 505.77C320.137 508.183 327.793 515.629 326.849 517.098C325.905 518.671 317.095 520.769 314.368 520.034C312.585 519.615 311.012 517.832 309.543 514.79C308.39 512.168 306.397 509.546 305.243 508.917C302.621 507.553 302.516 505.036 305.033 504.407C308.704 503.463 311.012 503.673 315.207 505.77ZM255.319 510.7C253.746 513.532 251.543 516.888 250.494 518.251C249.446 519.615 248.606 521.817 248.606 523.181C248.606 526.223 248.292 526.223 237.174 523.6C227.63 521.293 216.512 516.468 213.785 513.427C212.107 511.644 212.737 511.539 227.945 511.539C242.838 511.539 244.306 511.329 250.18 508.707C253.641 507.239 256.892 505.98 257.312 505.875C257.731 505.875 256.892 507.973 255.319 510.7ZM306.502 517.307C308.39 520.244 310.907 522.866 312.061 523.286C315.627 524.335 320.871 523.705 325.695 521.608C329.576 519.93 330.52 519.825 331.464 520.978C332.093 521.817 334.086 522.761 335.764 523.076C337.442 523.496 338.596 524.125 338.281 524.544C338.072 524.964 334.191 526.432 329.681 527.796C319.298 530.942 300.209 531.257 292.657 528.425C286.784 526.223 283.218 522.866 283.218 519.72C283.218 516.154 286.889 514.685 302.306 512.168C302.726 512.168 304.614 514.476 306.502 517.307Z" fill="#423D33"/>
</svg>
