<svg width="549" height="549" viewBox="0 0 549 549" fill="none" xmlns="http://www.w3.org/2000/svg">
<path d="M106.449 368.716C97.7625 350.344 87.4809 320.313 85.1779 302.378C80.8895 268.982 88.3939 215.466 106.333 182.34C164.91 74.1729 269.071 64.0496 356.975 109.492C418.285 141.187 449.348 178.684 462.366 254.632C474.89 327.693 441.493 384.335 388.792 424.463C369.955 438.807 343.81 453.489 323.133 458.996C244.235 480.011 142.469 444.897 106.449 368.716ZM325.377 436.588C421.415 397.677 478.513 304.771 427.762 200.911C415.465 175.745 389.904 147.507 366.211 131.147C258.082 56.4849 127.357 120.656 103.884 239.316C94.0895 288.83 102.559 338.023 130.322 374.549C176.428 435.205 267.753 459.935 325.377 436.588Z" fill="#423D33"/>
</svg>
